<svg id="office-monthly-calendar" xmlns="http://www.w3.org/2000/svg" width="21.216" height="21.463" viewBox="0 0 21.216 21.463">
  <g id="그룹_51" data-name="그룹 51" transform="translate(0)">
    <path id="패스_91" data-name="패스 91" d="M23.309,45.333h-2.22a.74.74,0,1,0,0,1.48h1.48V63.342H4.313V46.813H6.287a.74.74,0,0,0,0-1.48H3.573a.742.742,0,0,0-.74.74V64.082a.742.742,0,0,0,.74.74H23.309a.742.742,0,0,0,.74-.74V46.073A.742.742,0,0,0,23.309,45.333Z" transform="translate(-2.833 -43.359)" fill="#5b8def"/>
    <path id="패스_92" data-name="패스 92" d="M206.837,45.333h-2.1a.74.74,0,0,0,0,1.48h2.1a.74.74,0,0,0,0-1.48Z" transform="translate(-195.242 -43.359)" fill="#5b8def"/>
    <path id="패스_93" data-name="패스 93" d="M90.3,351.333H88.573a.742.742,0,0,0-.74.74v1.233a.742.742,0,0,0,.74.74H90.3a.742.742,0,0,0,.74-.74v-1.233A.742.742,0,0,0,90.3,351.333Z" transform="translate(-84.133 -336.038)" fill="#5b8def"/>
    <path id="패스_94" data-name="패스 94" d="M209.423,351.333h-1.85a.742.742,0,0,0-.74.74v1.233a.742.742,0,0,0,.74.74h1.85a.742.742,0,0,0,.74-.74v-1.233A.742.742,0,0,0,209.423,351.333Z" transform="translate(-197.952 -336.038)" fill="#5b8def"/>
    <path id="패스_95" data-name="패스 95" d="M91.04,258.573a.742.742,0,0,0-.74-.74H88.573a.742.742,0,0,0-.74.74v1.233a.742.742,0,0,0,.74.74H90.3a.742.742,0,0,0,.74-.74Z" transform="translate(-84.133 -246.608)" fill="#5b8def"/>
    <path id="패스_96" data-name="패스 96" d="M210.163,258.573a.742.742,0,0,0-.74-.74h-1.85a.742.742,0,0,0-.74.74v1.233a.742.742,0,0,0,.74.74h1.85a.742.742,0,0,0,.74-.74Z" transform="translate(-197.952 -246.608)" fill="#5b8def"/>
    <path id="패스_97" data-name="패스 97" d="M331.133,257.833h-1.727a.742.742,0,0,0-.74.74v1.233a.742.742,0,0,0,.74.74h1.727a.742.742,0,0,0,.74-.74v-1.233A.742.742,0,0,0,331.133,257.833Z" transform="translate(-314.481 -246.608)" fill="#5b8def"/>
    <path id="패스_98" data-name="패스 98" d="M87.833,162.24v1.233a.742.742,0,0,0,.74.74H90.3a.742.742,0,0,0,.74-.74V162.24a.742.742,0,0,0-.74-.74H88.573A.742.742,0,0,0,87.833,162.24Z" transform="translate(-84.133 -154.469)" fill="#5b8def"/>
    <path id="패스_99" data-name="패스 99" d="M210.163,162.24a.742.742,0,0,0-.74-.74h-1.85a.742.742,0,0,0-.74.74v1.233a.742.742,0,0,0,.74.74h1.85a.742.742,0,0,0,.74-.74Z" transform="translate(-197.952 -154.469)" fill="#5b8def"/>
    <path id="패스_100" data-name="패스 100" d="M331.873,162.24a.742.742,0,0,0-.74-.74h-1.727a.742.742,0,0,0-.74.74v1.233a.742.742,0,0,0,.74.74h1.727a.742.742,0,0,0,.74-.74Z" transform="translate(-314.481 -154.469)" fill="#5b8def"/>
    <path id="패스_101" data-name="패스 101" d="M123.313,4.934a.742.742,0,0,0,.74-.74V.74a.742.742,0,0,0-.74-.74h-.74a.742.742,0,0,0-.74.74V4.194a.742.742,0,0,0,.74.74Z" transform="translate(-116.652 0)" fill="#5b8def"/>
    <path id="패스_102" data-name="패스 102" d="M318.813,0h-.74a.742.742,0,0,0-.74.74V4.194a.742.742,0,0,0,.74.74h.74a.742.742,0,0,0,.74-.74V.74A.742.742,0,0,0,318.813,0Z" transform="translate(-303.641)" fill="#5b8def"/>
  </g>
</svg>
