
<svg xmlns="http://www.w3.org/2000/svg" version="1.1" id="svg10" xml:space="preserve" width="827.4231" height="200" viewBox="0 0 827.42309 200"><defs id="defs14"><clipPath clipPathUnits="userSpaceOnUse" id="clipPath26"><path d="m 110.745,314.064 c 0,-8.691 7.051,-15.744 15.747,-15.744 v 0 c 2.784,0 5.402,0.727 7.671,1.991 v 0 10.167 c -1.331,-1.742 -3.43,-2.871 -5.793,-2.871 v 0 c -4.021,0 -7.28,3.262 -7.28,7.282 v 0 c 0,1.906 0.734,3.645 1.933,4.94 v 0 c -1.257,2.308 -1.967,4.945 -1.967,7.755 v 0 c 0,0.43 0.017,0.863 0.051,1.285 v 0 c -6.045,-2.198 -10.362,-7.997 -10.362,-14.805" id="path24"></path></clipPath><linearGradient x1="0" y1="0" x2="1" y2="0" gradientUnits="userSpaceOnUse" gradientTransform="matrix(-5.4205017,30.74118,30.74118,5.4205017,124.82031,298.15527)" spreadMethod="pad" id="linearGradient40"><stop style="stop-opacity:1;stop-color:#55c3f1" offset="0" id="stop32"></stop><stop style="stop-opacity:1;stop-color:#55c3f1" offset="0.149994" id="stop34"></stop><stop style="stop-opacity:1;stop-color:#55c3f1" offset="0.47173097" id="stop36"></stop><stop style="stop-opacity:1;stop-color:#0068b7" offset="1" id="stop38"></stop></linearGradient><clipPath clipPathUnits="userSpaceOnUse" id="clipPath50"><path d="m 121.056,327.584 c 0,-2.81 0.71,-5.447 1.967,-7.755 v 0 c 1.331,1.442 3.234,2.344 5.347,2.344 v 0 c 0.82,0 1.612,-0.139 2.35,-0.391 v 0 c -0.818,1.243 -1.297,2.728 -1.297,4.323 v 0 c 0,4.335 3.515,7.851 7.854,7.851 v 0 c 3.163,0 5.888,-1.872 7.129,-4.567 v 0 c 1.174,0.28 2.396,0.424 3.651,0.424 v 0 c 1.892,0 3.705,-0.33 5.384,-0.944 v 0 c -0.658,8.353 -7.645,14.931 -16.166,14.931 v 0 c -8.958,0 -16.219,-7.26 -16.219,-16.216" id="path48"></path></clipPath><linearGradient x1="0" y1="0" x2="1" y2="0" gradientUnits="userSpaceOnUse" gradientTransform="matrix(30.488159,11.096787,11.096787,-30.488159,119.99316,327.62549)" spreadMethod="pad" id="linearGradient64"><stop style="stop-opacity:1;stop-color:#55c3f1" offset="0" id="stop56"></stop><stop style="stop-opacity:1;stop-color:#55c3f1" offset="0.149994" id="stop58"></stop><stop style="stop-opacity:1;stop-color:#55c3f1" offset="0.47173097" id="stop60"></stop><stop style="stop-opacity:1;stop-color:#0068b7" offset="1" id="stop62"></stop></linearGradient><clipPath clipPathUnits="userSpaceOnUse" id="clipPath74"><path d="m 144.406,329.389 c 0.462,-0.999 0.721,-2.11 0.721,-3.284 v 0 c 0,-1.595 -0.478,-3.08 -1.297,-4.317 v 0 c 0.737,0.246 1.524,0.385 2.347,0.385 v 0 c 4.021,0 7.284,-3.259 7.284,-7.284 v 0 c 0,-4.02 -3.263,-7.282 -7.284,-7.282 v 0 c -2.361,0 -4.46,1.124 -5.791,2.869 v 0 -10.165 c 2.27,-1.264 4.887,-1.991 7.671,-1.991 v 0 c 8.695,0 15.747,7.053 15.747,15.744 v 0 c 0,8.7 -7.052,15.749 -15.747,15.749 v 0 c -1.255,0 -2.477,-0.144 -3.651,-0.424" id="path72"></path></clipPath><linearGradient x1="0" y1="0" x2="1" y2="0" gradientUnits="userSpaceOnUse" gradientTransform="matrix(-5.4023132,-30.638016,-30.638016,5.4023132,155.06299,328.40137)" spreadMethod="pad" id="linearGradient88"><stop style="stop-opacity:1;stop-color:#55c3f1" offset="0" id="stop80"></stop><stop style="stop-opacity:1;stop-color:#55c3f1" offset="0.149994" id="stop82"></stop><stop style="stop-opacity:1;stop-color:#55c3f1" offset="0.47173097" id="stop84"></stop><stop style="stop-opacity:1;stop-color:#0068b7" offset="1" id="stop86"></stop></linearGradient><clipPath clipPathUnits="userSpaceOnUse" id="clipPath98"><path d="M 0,595.28 H 419.53 V 0 H 0 Z" id="path96"></path></clipPath><clipPath clipPathUnits="userSpaceOnUse" id="clipPath142"><path d="m 151.092,75.767 c 0,-3.849 3.122,-6.971 6.975,-6.971 v 0 c 1.233,0 2.392,0.32 3.397,0.882 v 0 4.502 c -0.588,-0.772 -1.518,-1.272 -2.565,-1.272 v 0 c -1.782,0 -3.224,1.445 -3.224,3.226 v 0 c 0,0.844 0.324,1.613 0.856,2.189 v 0 c -0.557,1.021 -0.871,2.19 -0.871,3.434 v 0 c 0,0.189 0.007,0.382 0.021,0.568 v 0 c -2.677,-0.973 -4.589,-3.541 -4.589,-6.558" id="path140"></path></clipPath><linearGradient x1="0" y1="0" x2="1" y2="0" gradientUnits="userSpaceOnUse" gradientTransform="matrix(-2.4006195,13.614624,13.614624,2.4006195,157.32617,68.723633)" spreadMethod="pad" id="linearGradient156"><stop style="stop-opacity:1;stop-color:#55c3f1" offset="0" id="stop148"></stop><stop style="stop-opacity:1;stop-color:#55c3f1" offset="0.149994" id="stop150"></stop><stop style="stop-opacity:1;stop-color:#55c3f1" offset="0.47173097" id="stop152"></stop><stop style="stop-opacity:1;stop-color:#0068b7" offset="1" id="stop154"></stop></linearGradient><clipPath clipPathUnits="userSpaceOnUse" id="clipPath166"><path d="m 155.66,81.757 c 0,-1.244 0.314,-2.413 0.871,-3.434 v 0 c 0.589,0.638 1.431,1.037 2.368,1.037 v 0 c 0.362,0 0.713,-0.062 1.041,-0.173 v 0 c -0.363,0.55 -0.575,1.207 -0.575,1.914 v 0 c 0,1.92 1.557,3.477 3.478,3.477 v 0 c 1.402,0 2.608,-0.828 3.159,-2.021 v 0 c 0.52,0.122 1.061,0.187 1.616,0.187 v 0 c 0.839,0 1.642,-0.146 2.386,-0.419 v 0 c -0.292,3.702 -3.386,6.615 -7.161,6.615 v 0 c -3.967,0 -7.183,-3.217 -7.183,-7.183" id="path164"></path></clipPath><linearGradient x1="0" y1="0" x2="1" y2="0" gradientUnits="userSpaceOnUse" gradientTransform="matrix(13.503952,4.9150391,4.9150391,-13.503952,155.18896,81.775391)" spreadMethod="pad" id="linearGradient180"><stop style="stop-opacity:1;stop-color:#55c3f1" offset="0" id="stop172"></stop><stop style="stop-opacity:1;stop-color:#55c3f1" offset="0.149994" id="stop174"></stop><stop style="stop-opacity:1;stop-color:#55c3f1" offset="0.47173097" id="stop176"></stop><stop style="stop-opacity:1;stop-color:#0068b7" offset="1" id="stop178"></stop></linearGradient><clipPath clipPathUnits="userSpaceOnUse" id="clipPath190"><path d="m 166.002,82.557 c 0.205,-0.444 0.318,-0.935 0.318,-1.456 v 0 c 0,-0.707 -0.212,-1.364 -0.573,-1.912 v 0 c 0.325,0.109 0.675,0.171 1.039,0.171 v 0 c 1.781,0 3.227,-1.444 3.227,-3.226 v 0 c 0,-1.781 -1.446,-3.226 -3.227,-3.226 v 0 c -1.046,0 -1.975,0.498 -2.566,1.271 v 0 -4.501 c 1.007,-0.562 2.166,-0.882 3.398,-0.882 v 0 c 3.852,0 6.976,3.122 6.976,6.971 v 0 c 0,3.854 -3.124,6.977 -6.976,6.977 v 0 c -0.555,0 -1.096,-0.065 -1.616,-0.187" id="path188"></path></clipPath><linearGradient x1="0" y1="0" x2="1" y2="0" gradientUnits="userSpaceOnUse" gradientTransform="matrix(-2.3927155,-13.569717,-13.569717,2.3927155,170.72168,82.118164)" spreadMethod="pad" id="linearGradient204"><stop style="stop-opacity:1;stop-color:#55c3f1" offset="0" id="stop196"></stop><stop style="stop-opacity:1;stop-color:#55c3f1" offset="0.149994" id="stop198"></stop><stop style="stop-opacity:1;stop-color:#55c3f1" offset="0.47173097" id="stop200"></stop><stop style="stop-opacity:1;stop-color:#0068b7" offset="1" id="stop202"></stop></linearGradient><clipPath clipPathUnits="userSpaceOnUse" id="clipPath214"><path d="M 0,595.28 H 419.53 V 0 H 0 Z" id="path212"></path></clipPath><clipPath clipPathUnits="userSpaceOnUse" id="clipPath274"><path d="m 150.703,51.854 c 0,-3.851 3.124,-6.973 6.976,-6.973 v 0 c 1.232,0 2.392,0.319 3.398,0.879 v 0 4.506 c -0.59,-0.773 -1.52,-1.272 -2.566,-1.272 v 0 c -1.782,0 -3.225,1.444 -3.225,3.225 v 0 c 0,0.844 0.325,1.614 0.856,2.19 v 0 c -0.556,1.021 -0.871,2.187 -0.871,3.433 v 0 c 0,0.19 0.007,0.382 0.022,0.569 v 0 c -2.676,-0.975 -4.59,-3.541 -4.59,-6.557" id="path272"></path></clipPath><linearGradient x1="0" y1="0" x2="1" y2="0" gradientUnits="userSpaceOnUse" gradientTransform="matrix(-2.4009705,13.616547,13.616547,2.4009705,156.93848,44.807617)" spreadMethod="pad" id="linearGradient288"><stop style="stop-opacity:1;stop-color:#55c3f1" offset="0" id="stop280"></stop><stop style="stop-opacity:1;stop-color:#55c3f1" offset="0.149994" id="stop282"></stop><stop style="stop-opacity:1;stop-color:#55c3f1" offset="0.47173097" id="stop284"></stop><stop style="stop-opacity:1;stop-color:#0068b7" offset="1" id="stop286"></stop></linearGradient><clipPath clipPathUnits="userSpaceOnUse" id="clipPath298"><path d="m 155.271,57.842 c 0,-1.246 0.315,-2.412 0.871,-3.433 v 0 c 0.59,0.637 1.432,1.036 2.369,1.036 v 0 c 0.363,0 0.713,-0.061 1.041,-0.173 v 0 c -0.362,0.55 -0.575,1.208 -0.575,1.913 v 0 c 0,1.922 1.557,3.478 3.478,3.478 v 0 c 1.402,0 2.608,-0.829 3.159,-2.023 v 0 c 0.52,0.124 1.061,0.189 1.616,0.189 v 0 c 0.839,0 1.642,-0.148 2.385,-0.418 v 0 c -0.291,3.7 -3.385,6.612 -7.16,6.612 v 0 c -3.968,0 -7.184,-3.216 -7.184,-7.181" id="path296"></path></clipPath><linearGradient x1="0" y1="0" x2="1" y2="0" gradientUnits="userSpaceOnUse" gradientTransform="matrix(13.503952,4.9150391,4.9150391,-13.503952,154.80029,57.860352)" spreadMethod="pad" id="linearGradient312"><stop style="stop-opacity:1;stop-color:#55c3f1" offset="0" id="stop304"></stop><stop style="stop-opacity:1;stop-color:#55c3f1" offset="0.149994" id="stop306"></stop><stop style="stop-opacity:1;stop-color:#55c3f1" offset="0.47173097" id="stop308"></stop><stop style="stop-opacity:1;stop-color:#0068b7" offset="1" id="stop310"></stop></linearGradient><clipPath clipPathUnits="userSpaceOnUse" id="clipPath322"><path d="m 165.614,58.64 c 0.205,-0.441 0.318,-0.934 0.318,-1.455 v 0 c 0,-0.705 -0.211,-1.363 -0.574,-1.912 v 0 c 0.328,0.111 0.676,0.172 1.04,0.172 v 0 c 1.781,0 3.227,-1.444 3.227,-3.226 v 0 c 0,-1.781 -1.446,-3.225 -3.227,-3.225 v 0 c -1.046,0 -1.974,0.497 -2.566,1.271 v 0 -4.505 c 1.007,-0.56 2.166,-0.879 3.398,-0.879 v 0 c 3.853,0 6.976,3.122 6.976,6.973 v 0 c 0,3.854 -3.123,6.975 -6.976,6.975 v 0 c -0.555,0 -1.096,-0.065 -1.616,-0.189" id="path320"></path></clipPath><linearGradient x1="0" y1="0" x2="1" y2="0" gradientUnits="userSpaceOnUse" gradientTransform="matrix(-2.3927917,-13.57019,-13.57019,2.3927917,170.3335,58.204102)" spreadMethod="pad" id="linearGradient336"><stop style="stop-opacity:1;stop-color:#55c3f1" offset="0" id="stop328"></stop><stop style="stop-opacity:1;stop-color:#55c3f1" offset="0.149994" id="stop330"></stop><stop style="stop-opacity:1;stop-color:#55c3f1" offset="0.47173097" id="stop332"></stop><stop style="stop-opacity:1;stop-color:#0068b7" offset="1" id="stop334"></stop></linearGradient><clipPath clipPathUnits="userSpaceOnUse" id="clipPath346"><path d="M 0,595.28 H 419.53 V 0 H 0 Z" id="path344"></path></clipPath></defs><g id="g18" transform="matrix(1.3333333,0,0,-1.3333333,97.922192,452.79732)"><g id="g44" transform="matrix(2.8126471,0,0,2.8126471,-200.74161,-623.18808)"><g id="g46" clip-path="url(#clipPath50)"></g></g><g id="g486" transform="matrix(1.1726154,0,0,1.1726154,-203.30293,-63.547157)"><g id="g450"><g id="g20" transform="matrix(2.8126471,0,0,2.8126471,-200.74161,-623.18808)"><g id="g22" clip-path="url(#clipPath26)"><g id="g28"><g id="g30"><path d="m 110.745,314.064 c 0,-8.691 7.051,-15.744 15.747,-15.744 v 0 c 2.784,0 5.402,0.727 7.671,1.991 v 0 10.167 c -1.331,-1.742 -3.43,-2.871 -5.793,-2.871 v 0 c -4.021,0 -7.28,3.262 -7.28,7.282 v 0 c 0,1.906 0.734,3.645 1.933,4.94 v 0 c -1.257,2.308 -1.967,4.945 -1.967,7.755 v 0 c 0,0.43 0.017,0.863 0.051,1.285 v 0 c -6.045,-2.198 -10.362,-7.997 -10.362,-14.805" style="fill:url(#linearGradient40);stroke:none" id="path42"></path></g></g></g></g><g id="g52" transform="matrix(2.8126471,0,0,2.8126471,-200.74161,-623.18809)"><g id="g54"><path d="m 121.056,327.584 c 0,-2.81 0.71,-5.447 1.967,-7.755 v 0 c 1.331,1.442 3.234,2.344 5.347,2.344 v 0 c 0.82,0 1.612,-0.139 2.35,-0.391 v 0 c -0.818,1.243 -1.297,2.728 -1.297,4.323 v 0 c 0,4.335 3.515,7.851 7.854,7.851 v 0 c 3.163,0 5.888,-1.872 7.129,-4.567 v 0 c 1.174,0.28 2.396,0.424 3.651,0.424 v 0 c 1.892,0 3.705,-0.33 5.384,-0.944 v 0 c -0.658,8.353 -7.645,14.931 -16.166,14.931 v 0 c -8.958,0 -16.219,-7.26 -16.219,-16.216" style="fill:url(#linearGradient64);stroke:none" id="path66"></path></g></g><g id="g68" transform="matrix(2.8126471,0,0,2.8126471,-200.74161,-623.18808)"><g id="g70" clip-path="url(#clipPath74)"><g id="g76"><g id="g78"><path d="m 144.406,329.389 c 0.462,-0.999 0.721,-2.11 0.721,-3.284 v 0 c 0,-1.595 -0.478,-3.08 -1.297,-4.317 v 0 c 0.737,0.246 1.524,0.385 2.347,0.385 v 0 c 4.021,0 7.284,-3.259 7.284,-7.284 v 0 c 0,-4.02 -3.263,-7.282 -7.284,-7.282 v 0 c -2.361,0 -4.46,1.124 -5.791,2.869 v 0 -10.165 c 2.27,-1.264 4.887,-1.991 7.671,-1.991 v 0 c 8.695,0 15.747,7.053 15.747,15.744 v 0 c 0,8.7 -7.052,15.749 -15.747,15.749 v 0 c -1.255,0 -2.477,-0.144 -3.651,-0.424" style="fill:url(#linearGradient88);stroke:none" id="path90"></path></g></g></g></g><g id="g92" transform="matrix(2.8126471,0,0,2.8126471,-200.74161,-623.18808)"><g id="g94" clip-path="url(#clipPath98)"><g id="g100" transform="translate(204.0342,315.7109)"><path d="m 0,0 h 4.576 v -2.573 c -1.385,-1.282 -3.204,-1.88 -5.023,-1.88 -3.528,0 -6.274,2.249 -6.274,6.897 0,3.604 1.731,6.886 6.286,6.886 2.293,0 4.22,-0.925 4.885,-3.465 h 3.352 c -0.364,3.73 -3.337,6.61 -8.036,6.61 -6.091,0 -10.094,-3.767 -10.094,-10.181 0,-6.513 4.461,-10.009 10.089,-10.009 2.633,0 5.903,1.149 8.22,3.789 V 3.142 H 0 Z" style="fill:#00336d;fill-opacity:1;fill-rule:nonzero;stroke:none" id="path102"></path></g><g id="g104" transform="translate(181.8779,313.3242)"><path d="m 0,0 -5.348,14.537 h -4.42 V -5 h 3.371 V 8.252 l 4.814,-13.02 H 1.583 L 6.396,8.252 V -5 H 9.77 V 14.537 H 5.35 Z" style="fill:#00336d;fill-opacity:1;fill-rule:nonzero;stroke:none" id="path106"></path></g><g id="g108" transform="translate(236.4873,317.3945)"><path d="m 0,0 h -8.651 v 2.556 h -3.164 V 0 h -8.654 V -2.094 H 0 Z" style="fill:#00336d;fill-opacity:1;fill-rule:nonzero;stroke:none" id="path110"></path></g><g id="g112" transform="translate(226.2539,323.0928)"><path d="m 0,0 c 1.441,-2.511 5.002,-3.466 8.605,-3.607 v 2.096 C 4.304,-1.281 1.602,1.324 1.602,3.952 V 5.231 H -1.604 V 3.952 c 0,-2.628 -2.701,-5.233 -7.001,-5.463 V -3.607 C -5.002,-3.466 -1.445,-2.511 0,0" style="fill:#00336d;fill-opacity:1;fill-rule:nonzero;stroke:none" id="path114"></path></g><g id="g116" transform="translate(218.3428,314.1401)"><path d="M 0,0 V -4.422 C 0,-5.443 0.841,-6.28 1.865,-6.28 H 16.05 v 2.092 H 3.142 V 0 Z" style="fill:#00336d;fill-opacity:1;fill-rule:nonzero;stroke:none" id="path118"></path></g><g id="g120" transform="translate(257.2217,328.3262)"><path d="M 0,0 H -3 V -6.628 H -4.673 V 0 h -3.004 v -20.466 h 3.004 V -8.837 H -3 v -11.629 h 3 z" style="fill:#00336d;fill-opacity:1;fill-rule:nonzero;stroke:none" id="path122"></path></g><g id="g124" transform="translate(243.0332,323.4419)"><path d="m 0,0 c 1.161,0 1.861,-1.86 1.861,-4.42 0,-2.559 -0.7,-4.417 -1.861,-4.417 -1.164,0 -1.858,1.858 -1.858,4.417 C -1.858,-1.86 -1.164,0 0,0 m -4.886,-4.42 c 0,-3.719 1.934,-6.511 4.886,-6.511 2.955,0 4.885,2.792 4.885,6.511 0,1.989 -0.551,3.713 -1.515,4.885 H 5.583 V 2.559 H 1.653 V 5.115 H -1.651 V 2.559 H -5.582 V 0.465 h 2.213 C -4.335,-0.707 -4.886,-2.431 -4.886,-4.42" style="fill:#00336d;fill-opacity:1;fill-rule:nonzero;stroke:none" id="path126"></path></g><path d="m 264.652,321.816 h 9.537 v -3.723 h -9.537 z m 15.003,-9.536 H 271 v 3.721 h 6.327 v 11.394 h -3.138 v -3.488 h -9.537 v 3.488 h -3.141 v -9.536 c 0,-1.025 0.839,-1.858 1.861,-1.858 h 4.468 v -3.721 h -8.654 v -2.094 h 20.469 z" style="fill:#00336d;fill-opacity:1;fill-rule:nonzero;stroke:none" id="path128"></path><path d="m 295.76,309.952 h -9.068 v 3.721 h 9.068 z m -12.21,5.816 v -6.05 c 0,-1.025 0.838,-1.858 1.859,-1.858 h 13.492 v 6.86 c 0,0.581 -0.466,1.048 -1.047,1.048 z" style="fill:#00336d;fill-opacity:1;fill-rule:nonzero;stroke:none" id="path130"></path><g id="g132" transform="translate(287.041,319.2554)"><path d="m 0,0 c -1.584,0 -2.561,1.07 -2.561,2.561 0,1.485 0.977,2.558 2.561,2.558 1.582,0 2.557,-1.073 2.557,-2.558 C 2.557,1.07 1.582,0 0,0 M 11.86,9.071 H 8.719 V 3.837 H 5.613 C 5.369,4.539 4.928,5.124 4.313,5.583 h 2.43 V 7.674 H 1.65 V 9.535 H -1.652 V 7.674 H -6.749 V 5.583 h 2.435 c -0.96,-0.714 -1.499,-1.74 -1.499,-3.022 0,-2.654 2.3,-4.656 5.813,-4.656 3.087,0 5.239,1.549 5.716,3.723 h 3.003 v -4.187 h 3.141 z" style="fill:#00336d;fill-opacity:1;fill-rule:nonzero;stroke:none" id="path134"></path></g></g></g></g></g></g></svg>
