
<svg xmlns="http://www.w3.org/2000/svg" width="499.974" height="74.561996" viewBox="0 0 132.28478 19.727862" version="1.1">
  <defs id="defs537"></defs>
  <g id="layer1">
    <path style="fill:#656263;fill-opacity:1;fill-rule:nonzero;stroke:none;stroke-width:0.352777" d="m 121.85855,16.40279 0.60634,1.0666 c 0,0 1.73632,-0.82407 2.28616,-2.18144 0.54984,1.35737 2.28616,2.18144 2.28616,2.18144 l 0.60497,-1.0666 c 0,0 -0.65457,-0.43684 -1.42903,-1.2113 -0.77584,-0.77584 -0.7276,-2.86081 -0.7276,-2.86081 V 8.47769 h 1.6812 v -1.2361 h -4.8314 v 1.2361 h 1.6812 v 3.85299 c 0,0 0.0482,2.08497 -0.7276,2.86081 -0.77583,0.77446 -1.4304,1.2113 -1.4304,1.2113" id="path58"></path>
    <path style="fill:#656263;fill-opacity:1;fill-rule:nonzero;stroke:none;stroke-width:0.352777" d="M 76.350213,16.06654 H 74.518799 V 8.50525 h 1.831414 z M 79.235822,11.2379 H 77.786128 V 7.23332 h -4.703244 v 10.09 h 4.703244 v -4.78731 h 1.449694 v 6.73034 h 1.448319 V 7.09689 h -1.448319 z m 0,0" id="path60"></path>
    <path style="fill:#656263;fill-opacity:1;fill-rule:nonzero;stroke:none;stroke-width:0.352777" d="m 81.805865,19.41518 h 1.448319 V 7.01421 h -1.448319 z m 0,0" id="path62"></path>
    <path style="fill:#656263;fill-opacity:1;fill-rule:nonzero;stroke:none;stroke-width:0.352777" d="m 119.71845,7.08862 h -1.44969 v 12.25903 h 1.44969 v -6.71793 h 1.9954 v -1.29811 h -1.9954 z m 0,0" id="path64"></path>
    <path style="fill:#656263;fill-opacity:1;fill-rule:nonzero;stroke:none;stroke-width:0.352777" d="m 132.28478,7.07622 h -1.44969 v 3.5016 h -1.1548 V 7.01421 h -1.44832 v 12.40097 h 1.44832 v -7.53925 h 1.1548 v 7.47172 h 1.44969 z m 0,0" id="path66"></path>
    <path style="fill:#656263;fill-opacity:1;fill-rule:nonzero;stroke:none;stroke-width:0.352777" d="m 90.049291,16.0252 h -3.093696 v -3.22874 h 4.30637 V 7.23332 h -5.783627 v 1.31327 h 4.320149 v 2.95038 h -4.320149 v 5.82635 l 4.566818,-0.008 0.0041,0.004 c 1.67845,0 2.860805,-0.30179 2.860805,-0.30179 v -1.28985 c 0,0 -1.185111,0.30042 -2.860805,0.30042 z m 0,0" id="path68"></path>
    <path style="fill:#656263;fill-opacity:1;fill-rule:nonzero;stroke:none;stroke-width:0.352777" d="m 93.887125,19.41518 h 1.49104 V 7.01421 h -1.49104 z m 0,0" id="path70"></path>
    <path style="fill:#656263;fill-opacity:1;fill-rule:nonzero;stroke:none;stroke-width:0.352777" d="M 97.260563,18.53874 H 108.26834 V 17.25441 H 97.260563 Z m 0,0" id="path72"></path>
    <path style="fill:#656263;fill-opacity:1;fill-rule:nonzero;stroke:none;stroke-width:0.352777" d="m 102.00515,6.41063 v 1.50344 h -3.920519 v 1.29949 h 3.920519 c -0.0276,2.39228 -1.92374,3.63389 -4.411099,4.20026 v 0.004 l 0.0028,-0.004 0.325215,1.21819 c 2.100134,-0.40239 3.915004,-1.35599 4.834164,-2.78088 0.003,0.003 0.005,0.007 0.007,0.01 0.001,-0.003 0.005,-0.007 0.007,-0.01 0.91915,1.42489 2.7354,2.37849 4.83691,2.78088 l 0.32522,-1.21819 0.003,0.004 v -0.004 c -2.48736,-0.56637 -4.3863,-1.80798 -4.41386,-4.20026 h 3.9219 V 7.91407 h -3.92201 V 6.41063 Z m 0,0" id="path74"></path>
    <path style="fill:#ee2d21;fill-opacity:1;fill-rule:nonzero;stroke:none;stroke-width:0.352778" d="m 14.6389,6.55532 c -1.66605,0 -2.85805,0.54708 -3.82819,1.93891 C 10.19059,7.27742 8.9228,6.55532 7.15753,6.55532 c -1.34221,0 -2.93246,0.69591 -3.55396,1.7887 V 6.92739 H 0 v 12.35274 h 3.7772 v -7.10792 c 0,-1.11759 0.72209,-2.13734 2.03812,-2.13734 1.36702,0 1.98851,0.92053 1.98851,2.08773 v 7.15753 h 3.7276 v -7.13272 c 0,-1.09279 0.72209,-2.11254 2.06292,-2.11254 1.34221,0 1.9637,0.92053 1.9637,2.08773 v 7.15753 h 3.65318 v -8.00227 c 0,-3.35552 -2.23655,-4.72254 -4.57233,-4.72254" id="path76"></path>
    <path style="fill:#ee2d21;fill-opacity:1;fill-rule:nonzero;stroke:none;stroke-width:0.352778" d="M 42.089424,10.65637 V 6.92739 C 41.84,6.85439 41.466549,6.80475 41.094481,6.80475 c -0.994946,0 -2.561773,0.39687 -3.208073,1.78869 V 6.92739 h -3.654559 v 12.35274 h 3.778582 v -5.39226 c 0,-2.46118 1.368393,-3.35553 2.885613,-3.35553 0.373447,0 0.770322,0.0248 1.19338,0.12403" id="path78"></path>
    <path style="fill:#ee2d21;fill-opacity:1;fill-rule:nonzero;stroke:none;stroke-width:0.352778" d="m 43.382023,19.28013 h 3.777203 V 6.92739 h -3.777203 z m 0,0" id="path80"></path>
    <path style="fill:#ee2d21;fill-opacity:1;fill-rule:nonzero;stroke:none;stroke-width:0.352778" d="m 50.266704,15.52773 c 0,2.4598 1.565452,3.97564 4.124467,3.97564 1.193383,0 1.814875,-0.27285 1.965085,-0.34726 V 16.0252 c -0.224621,0.0496 -0.598072,0.12403 -0.993567,0.12403 -0.821313,0 -1.368394,-0.27423 -1.368394,-1.2926 v -4.62332 h 2.411568 V 6.92877 H 53.994295 V 3.3252 h -3.378948 v 1.59026 c 0,1.14239 -0.621495,2.01331 -1.915474,2.01331 h -0.620116 v 3.30454 h 2.186947 z m 0,0" id="path82"></path>
    <path style="fill:#ee2d21;fill-opacity:1;fill-rule:nonzero;stroke:none;stroke-width:0.352778" d="m 45.243755,4.87274 c 1.36839,0 2.462551,-1.09554 2.462551,-2.43637 C 47.706306,1.09554 46.612145,0 45.243755,0 c -1.313272,0 -2.408813,1.09554 -2.408813,2.43637 0,1.34083 1.095541,2.43637 2.408813,2.43637" id="path84"></path>
    <path style="fill:#ee2d21;fill-opacity:1;fill-rule:nonzero;stroke:none;stroke-width:0.352778" d="m 26.72705,9.49881 c 1.80937,0 2.462556,1.1548 2.512168,2.11116 H 24.23694 c 0.0758,-0.93018 0.88056,-2.11116 2.49011,-2.11116 m 0.22462,10.22918 c 2.831873,0 4.71565,-1.44831 5.514914,-3.29902 l -3.125392,-1.18649 c -0.4079,0.7593 -1.149282,1.24161 -2.338532,1.24161 -1.48277,0 -2.76572,-1.00459 -2.84014,-2.41157 h 8.695425 c 0.02618,-0.0744 0.07717,-0.65319 0.07717,-1.18098 0,-4.02111 -2.389519,-6.40925 -6.259055,-6.40925 -3.24252,0 -6.23424,2.56315 -6.23424,6.58426 0,4.19751 3.06613,6.66144 6.50985,6.66144" id="path86"></path>
    <path style="fill:#ee2d21;fill-opacity:1;fill-rule:nonzero;stroke:none;stroke-width:0.352778" d="m 62.443049,15.97422 5.643069,-5.93935 V 6.92739 H 57.971315 v 3.30592 h 5.224142 l -5.372969,5.7161 v 3.33072 h 10.362848 v -3.30591 z m 0,0" id="path88"></path>
    <path style="fill:#656263;fill-opacity:1;fill-rule:nonzero;stroke:none;stroke-width:0.352777" d="m 112.60089,6.41063 v 1.50895 h -2.6417 v 1.21268 h 6.73723 V 7.91958 h -2.6417 V 6.41063 Z m 0,0" id="path90"></path>
    <path style="fill:#656263;fill-opacity:1;fill-rule:nonzero;stroke:none;stroke-width:0.352777" d="m 111.75891,12.35824 c 0,-0.87781 0.74414,-1.59025 1.66329,-1.59025 0.91777,0 1.66329,0.71244 1.66329,1.59025 0,0.87781 -0.74552,1.59026 -1.66329,1.59026 -0.91915,0 -1.66329,-0.71245 -1.66329,-1.59026 m 2.39227,2.71336 c 1.3243,-0.29076 2.31786,-1.35461 2.31786,-2.71336 0,-1.59852 -1.37528,-2.82911 -3.04684,-2.82911 -1.67156,0 -3.08956,1.23059 -3.08956,2.82911 0,1.32843 0.9784,2.37574 2.26825,2.69269 v 1.53651 c -1.58061,0.008 -2.8112,-0.04 -2.8112,-0.04 v 1.3491 c 7.29533,0.0675 7.80383,-0.42719 7.80383,-0.42719 v -1.18787 c -0.97703,0.16123 -2.22829,0.24254 -3.44234,0.27974 z m 0,0" id="path92"></path>
  </g>
</svg>