
<svg xmlns="http://www.w3.org/2000/svg" width="145.56mm" height="41.09mm" viewBox="0 0 145.56001 41.090001" version="1.1" id="svg347">
  <defs id="defs341">
    <clipPath clipPathUnits="userSpaceOnUse" id="clipPath40">
      <path d="M 0,595.28 H 841.89 V 0 H 0 Z" id="path38"></path>
    </clipPath>
    <clipPath clipPathUnits="userSpaceOnUse" id="clipPath88">
      <path d="m 222.786,467.221 c -1.206,-5.534 -0.642,-53.095 -0.211,-58.6 v 0 c 0.303,-4.047 2.007,-6.408 6.748,-6.311 v 0 c 33.071,0.532 41.743,40.616 21.316,59.477 v 0 c -3.27,3.014 -7.254,5.491 -12.052,7.177 v 0 c -2.408,0.849 -6.382,2.088 -9.772,2.088 v 0 c -2.911,0 -5.396,-0.927 -6.029,-3.831" id="path86"></path>
    </clipPath>
    <linearGradient x1="0" y1="0" x2="1" y2="0" gradientUnits="userSpaceOnUse" gradientTransform="matrix(-40.88475,0.3897693,-0.3897693,-40.88475,261.83228,436.36548)" spreadMethod="pad" id="linearGradient104">
      <stop style="stop-opacity:1;stop-color:#ee7700" offset="0" id="stop94"></stop>
      <stop style="stop-opacity:1;stop-color:#ee7700" offset="0.0996612" id="stop96"></stop>
      <stop style="stop-opacity:1;stop-color:#ee7700" offset="0.44032139" id="stop98"></stop>
      <stop style="stop-opacity:1;stop-color:#c8171e" offset="0.999661" id="stop100"></stop>
      <stop style="stop-opacity:1;stop-color:#c8171e" offset="1" id="stop102"></stop>
    </linearGradient>
    <clipPath clipPathUnits="userSpaceOnUse" id="clipPath114">
      <path d="m 263.213,504.905 c -1.086,-5.009 -0.57,-48.196 -0.191,-53.207 v 0 c 0.287,-3.656 1.825,-5.797 6.129,-5.734 v 0 c 30.032,0.501 37.918,36.895 19.374,54.018 v 0 c -2.969,2.734 -6.618,4.985 -10.937,6.509 v 0 c -2.198,0.786 -5.799,1.904 -8.878,1.904 v 0 c -2.662,0 -4.912,-0.86 -5.497,-3.49" id="path112"></path>
    </clipPath>
    <linearGradient x1="0" y1="0" x2="1" y2="0" gradientUnits="userSpaceOnUse" gradientTransform="matrix(36.614681,-0.3490295,0.3490295,36.614681,262.65393,477.2374)" spreadMethod="pad" id="linearGradient126">
      <stop style="stop-opacity:1;stop-color:#22aee6" offset="0" id="stop120"></stop>
      <stop style="stop-opacity:1;stop-color:#22aee6" offset="0.05557917" id="stop122"></stop>
      <stop style="stop-opacity:1;stop-color:#0054a7" offset="1" id="stop124"></stop>
    </linearGradient>
    <clipPath clipPathUnits="userSpaceOnUse" id="clipPath136">
      <path d="m 269.975,466.034 c -1.394,-6.306 -0.724,-60.558 -0.235,-66.852 v 0 c 0.368,-4.623 2.279,-7.29 7.685,-7.209 v 0 c 37.741,0.599 47.668,46.343 24.363,67.869 v 0 c -3.725,3.436 -8.322,6.27 -13.748,8.18 v 0 c -2.772,0.987 -7.306,2.389 -11.156,2.389 v 0 c -3.337,0 -6.187,-1.058 -6.909,-4.377" id="path134"></path>
    </clipPath>
    <linearGradient x1="0" y1="0" x2="1" y2="0" gradientUnits="userSpaceOnUse" gradientTransform="matrix(54.08374,-0.5156306,0.5156306,54.08374,265.30954,431.30289)" spreadMethod="pad" id="linearGradient148">
      <stop style="stop-opacity:1;stop-color:#8ec31f" offset="0" id="stop142"></stop>
      <stop style="stop-opacity:1;stop-color:#8ec31f" offset="0.37851141" id="stop144"></stop>
      <stop style="stop-opacity:1;stop-color:#008e51" offset="1" id="stop146"></stop>
    </linearGradient>
  </defs>
  
  
  <g id="layer1">
    <g id="g34" transform="matrix(0.35277777,0,0,-0.35277777,-78.337748,179.35045)">
      <g id="g36" clip-path="url(#clipPath40)">
        <g id="g42" transform="translate(473.4082,442.2859)">
          <path d="m 0,0 h -18.616 v 7.565 h -8.318 V 6.979 c 0,-1.282 0.522,-2.146 1.571,-2.621 V 0 h -18.674 c -0.819,0 -1.504,-0.281 -2.065,-0.845 -0.564,-0.563 -0.846,-1.25 -0.846,-2.064 0,-0.853 0.282,-1.562 0.846,-2.127 0.561,-0.562 1.246,-0.84 2.065,-0.84 H 0 c 0.814,0 1.499,0.278 2.064,0.84 0.56,0.565 0.842,1.274 0.842,2.127 0,0.814 -0.282,1.501 -0.842,2.064 C 1.499,-0.281 0.814,0 0,0" style="fill:#007f41;fill-opacity:1;fill-rule:nonzero;stroke:none" id="path44"></path>
        </g>
        <g id="g46" transform="translate(467.7676,424.8352)">
          <path d="m 0,0 h -25.133 c -1.159,0 -1.743,0.578 -1.743,1.744 V 8.145 H -35.37 V 7.563 c 0,-1.283 0.541,-2.132 1.628,-2.56 V 0.169 c 0,-3.996 2.231,-5.989 6.683,-5.989 H 0 c 0.776,0 1.456,0.278 2.064,0.846 0.598,0.558 0.9,1.246 0.9,2.068 0,0.774 -0.302,1.449 -0.9,2.031 C 1.456,-0.293 0.776,0 0,0" style="fill:#007f41;fill-opacity:1;fill-rule:nonzero;stroke:none" id="path48"></path>
        </g>
        <g id="g50" transform="translate(432.5693,446.2419)">
          <path d="m 0,0 c 0.546,-0.041 1.106,0.021 1.69,0.171 2.438,0.737 4.525,1.59 6.249,2.562 1.728,0.971 3.271,1.96 4.625,2.964 2.639,1.827 4.775,3.982 6.403,6.458 1.628,-2.476 3.763,-4.631 6.396,-6.458 1.361,-1.004 2.911,-1.993 4.65,-2.964 1.753,-0.972 3.826,-1.825 6.229,-2.562 0.584,-0.15 1.145,-0.212 1.681,-0.171 1.015,0.076 1.748,0.581 2.217,1.51 0.431,0.89 0.431,1.771 0,2.626 -0.388,0.649 -1.048,1.136 -1.978,1.447 -2.37,0.736 -4.429,1.632 -6.195,2.676 -1.763,1.047 -3.266,2.136 -4.511,3.262 -3.371,3.02 -5.095,6.609 -5.172,10.757 v 0.698 h -8.379 v -0.637 c 0,-0.467 0.076,-0.873 0.23,-1.224 0.158,-0.35 0.465,-0.76 0.933,-1.215 0,-2.602 -1.55,-5.394 -4.654,-8.379 C 9.17,10.395 7.699,9.306 5.995,8.259 4.285,7.215 2.212,6.319 -0.229,5.583 -1.159,5.272 -1.824,4.785 -2.212,4.136 -2.639,3.281 -2.639,2.4 -2.212,1.51 -1.748,0.581 -1.006,0.076 0,0" style="fill:#007f41;fill-opacity:1;fill-rule:nonzero;stroke:none" id="path52"></path>
        </g>
        <g id="g54" transform="translate(523.4365,454.7351)">
          <path d="m 0,0 h -4.362 v 14.482 h -7.973 v -0.636 c 0,-1.243 0.546,-2.096 1.633,-2.565 v -44.442 c 0,-0.852 0.311,-1.592 0.929,-2.213 0.618,-0.618 1.375,-0.929 2.269,-0.929 0.853,0 1.595,0.311 2.208,0.929 0.622,0.621 0.934,1.361 0.934,2.213 V -5.989 H 0 v -27.11 c 0,-0.859 0.32,-1.604 0.962,-2.245 0.637,-0.636 1.384,-0.959 2.236,-0.959 0.896,0 1.656,0.323 2.298,0.959 0.638,0.641 0.963,1.386 0.963,2.245 V 14.482 H 0 Z" style="fill:#007f41;fill-opacity:1;fill-rule:nonzero;stroke:none" id="path56"></path>
        </g>
        <g id="g58" transform="translate(501.9756,446.9411)">
          <path d="m 0,0 c -0.393,-1.015 -0.915,-1.883 -1.575,-2.619 -0.695,-0.78 -1.504,-1.378 -2.419,-1.803 -0.909,-0.427 -1.848,-0.636 -2.816,-0.636 -1.047,0 -2.03,0.209 -2.944,0.636 -0.905,0.425 -1.695,1.023 -2.351,1.803 -0.656,0.736 -1.173,1.604 -1.542,2.619 -0.369,1.007 -0.555,2.073 -0.555,3.197 0,1.124 0.186,2.189 0.555,3.199 0.369,1.008 0.886,1.879 1.542,2.617 0.656,0.776 1.446,1.38 2.351,1.809 0.914,0.423 1.897,0.634 2.944,0.634 0.968,0 1.907,-0.211 2.816,-0.634 C -3.079,10.393 -2.27,9.789 -1.575,9.013 -0.915,8.275 -0.393,7.404 0,6.396 0.383,5.386 0.579,4.321 0.579,3.197 0.579,2.073 0.383,1.007 0,0 m 5.233,17.624 h -8.437 v 5 H -10.3 v -5 h -8.839 c -0.862,0 -1.556,-0.281 -2.097,-0.842 -0.546,-0.558 -0.82,-1.235 -0.82,-2.009 0,-0.773 0.274,-1.444 0.82,-2.004 0.541,-0.565 1.235,-0.843 2.097,-0.843 h 1.963 c -0.928,-1.058 -1.705,-2.249 -2.317,-3.58 -0.776,-1.688 -1.164,-3.462 -1.164,-5.322 0,-1.901 0.369,-3.686 1.106,-5.357 0.738,-1.664 1.743,-3.137 3.022,-4.417 1.206,-1.24 2.637,-2.234 4.309,-2.969 1.666,-0.733 3.472,-1.104 5.41,-1.104 1.897,0 3.673,0.371 5.326,1.104 1.646,0.735 3.088,1.729 4.328,2.969 1.283,1.28 2.279,2.753 2.997,4.417 0.719,1.671 1.073,3.456 1.073,5.357 0,1.86 -0.374,3.634 -1.13,5.322 -0.594,1.331 -1.365,2.522 -2.289,3.58 h 1.738 c 0.771,0 1.455,0.278 2.036,0.843 0.579,0.56 0.871,1.231 0.871,2.004 0,0.774 -0.292,1.451 -0.871,2.009 -0.581,0.561 -1.265,0.842 -2.036,0.842" style="fill:#007f41;fill-opacity:1;fill-rule:nonzero;stroke:none" id="path60"></path>
        </g>
        <g id="g62" transform="translate(552.7695,445.2507)">
          <path d="M 0,0 C -1.169,0 -1.748,0.596 -1.748,1.802 V 8.261 H 20.12 V 1.802 C 20.12,0.596 19.54,0 18.377,0 Z M 31.171,-14.076 H 12.563 v 8.321 h 7.796 c 4.381,0 6.575,1.975 6.575,5.932 v 22.097 h -8.323 v -0.572 c 0,-1.281 0.508,-2.138 1.509,-2.564 V 14.134 H -1.748 v 8.14 h -8.38 v -0.572 c 0,-1.281 0.527,-2.138 1.571,-2.564 V 0.177 c 0,-3.957 2.174,-5.932 6.512,-5.932 h 7.862 v -8.321 h -18.674 c -0.814,0 -1.508,-0.268 -2.064,-0.815 -0.569,-0.544 -0.848,-1.241 -0.848,-2.094 0,-0.811 0.279,-1.501 0.848,-2.068 0.556,-0.561 1.25,-0.842 2.064,-0.842 h 44.028 c 0.824,0 1.509,0.281 2.068,0.842 0.566,0.567 0.848,1.257 0.848,2.068 0,0.853 -0.282,1.55 -0.848,2.094 -0.559,0.547 -1.244,0.815 -2.068,0.815" style="fill:#007f41;fill-opacity:1;fill-rule:nonzero;stroke:none" id="path64"></path>
        </g>
        <g id="g66" transform="translate(610.4434,447.4861)">
          <path d="m 0,0 c -1.264,-1.293 -2.882,-1.942 -4.859,-1.942 -2.022,0 -3.668,0.649 -4.943,1.942 -1.283,1.307 -1.925,2.867 -1.925,4.691 0,1.821 0.642,3.371 1.925,4.657 1.275,1.276 2.921,1.916 4.943,1.916 1.977,0 3.595,-0.64 4.859,-1.916 C 1.255,8.062 1.892,6.512 1.892,4.691 1.892,2.867 1.255,1.307 0,0 m 15.85,21.731 v -0.636 c 0,-1.243 0.521,-2.095 1.57,-2.565 V 8.295 H 7.944 C 7.834,8.581 7.724,8.868 7.59,9.138 7.011,10.32 6.168,11.411 5.109,12.423 h 3.822 c 0.732,0 1.364,0.268 1.89,0.79 0.523,0.524 0.786,1.153 0.786,1.89 0,0.699 -0.263,1.328 -0.786,1.888 -0.526,0.565 -1.158,0.844 -1.89,0.844 H -1.077 v 4.711 h -7.45 V 17.835 H -18.53 c -0.699,0 -1.322,-0.279 -1.863,-0.844 -0.545,-0.56 -0.814,-1.189 -0.814,-1.888 0,-0.737 0.269,-1.366 0.814,-1.89 0.541,-0.522 1.164,-0.79 1.863,-0.79 h 3.643 c -1.062,-1.012 -1.91,-2.103 -2.513,-3.285 -0.675,-1.337 -1.015,-2.838 -1.015,-4.506 0,-1.677 0.34,-3.236 1.015,-4.684 0.684,-1.458 1.662,-2.749 2.94,-3.869 1.201,-1.088 2.628,-1.936 4.275,-2.564 1.648,-0.621 3.424,-0.93 5.326,-0.93 1.857,0 3.605,0.309 5.233,0.93 1.633,0.628 3.064,1.476 4.309,2.564 1.279,1.12 2.246,2.411 2.907,3.869 0.411,0.916 0.684,1.874 0.838,2.874 h 8.992 v -7.441 c 0,-0.926 0.33,-1.728 0.991,-2.389 0.656,-0.656 1.451,-0.983 2.385,-0.983 0.929,0 1.724,0.327 2.385,0.983 0.655,0.661 0.986,1.463 0.986,2.389 v 26.35 z" style="fill:#007f41;fill-opacity:1;fill-rule:nonzero;stroke:none" id="path68"></path>
        </g>
        <g id="g70" transform="translate(606.8672,432.0461)">
          <path d="m 0,0 h 21.054 v -5.762 c 0,-1.163 -0.618,-1.742 -1.859,-1.742 H 1.857 C 0.617,-7.504 0,-6.925 0,-5.762 Z m -8.327,4.888 c 0,-1.281 0.526,-2.135 1.575,-2.562 v -9.368 c 0,-3.996 2.189,-5.989 6.569,-5.989 H 21.23 c 4.339,0 6.513,1.993 6.513,5.989 V 5.467 h -36.07 z" style="fill:#007f41;fill-opacity:1;fill-rule:nonzero;stroke:none" id="path72"></path>
        </g>
        <g id="g74" transform="translate(365.4668,443.7702)">
          <path d="m 0,0 c 0,-11.016 -7.312,-18.13 -18.301,-18.13 h -9.662 v 36.329 h 9.662 C -6.981,18.199 0,11.355 0,0 m -18.052,26.228 h -19.162 v -52.389 h 19.167 c 15.82,0 27.298,10.977 27.298,26.099 0,15.724 -10.975,26.297 -27.303,26.29" style="fill:#007f41;fill-opacity:1;fill-rule:nonzero;stroke:none" id="path76"></path>
        </g>
        <g id="g78" transform="translate(396.1978,448.4973)">
          <path d="m 0,0 c -1.7,-0.409 -2.72,-1.445 -2.988,-3.033 -0.206,-1.213 0.072,-2.494 0.733,-3.419 0.531,-0.733 1.269,-1.21 2.126,-1.343 1.197,-0.203 2.519,-0.263 3.912,-0.322 4.123,-0.186 8.489,-0.369 10.438,-4.022 1.154,-2.178 0.982,-4.999 -0.43,-7.037 -1.457,-2.11 -4.32,-3.386 -8.514,-3.634 -0.541,-0.031 -1.092,-0.047 -1.691,-0.047 H -8.078 L -8.083,13.472 H 2.49 c 6.962,0 9.773,-2.004 9.773,-6.254 C 12.268,4.886 11.377,2.735 9.615,1.468 8.03,0.318 5.727,0.289 3.505,0.266 2.514,0.253 1.102,0.233 0,0 m 15.849,-3.778 c 3.419,2.326 5.67,6.964 5.67,11.837 0,8.421 -6.757,13.449 -18.071,13.441 H -17.329 V -30.888 H 3.816 c 12.785,0 20.413,5.602 20.413,14.965 0,5.607 -2.744,9.587 -8.38,12.145" style="fill:#007f41;fill-opacity:1;fill-rule:nonzero;stroke:none" id="path80"></path>
        </g>
      </g>
    </g>
    <g id="g82" transform="matrix(0.35277777,0,0,-0.35277777,-78.337748,179.35045)">
      <g id="g84" clip-path="url(#clipPath88)">
        <g id="g90">
          <g id="g92">
            <path d="m 222.786,467.221 c -1.206,-5.534 -0.642,-53.095 -0.211,-58.6 v 0 c 0.303,-4.047 2.007,-6.408 6.748,-6.311 v 0 c 33.071,0.532 41.743,40.616 21.316,59.477 v 0 c -3.27,3.014 -7.254,5.491 -12.052,7.177 v 0 c -2.408,0.849 -6.382,2.088 -9.772,2.088 v 0 c -2.911,0 -5.396,-0.927 -6.029,-3.831" style="fill:url(#linearGradient104);stroke:none" id="path106"></path>
          </g>
        </g>
      </g>
    </g>
    <g id="g108" transform="matrix(0.35277777,0,0,-0.35277777,-78.337748,179.35045)">
      <g id="g110" clip-path="url(#clipPath114)">
        <g id="g116">
          <g id="g118">
            <path d="m 263.213,504.905 c -1.086,-5.009 -0.57,-48.196 -0.191,-53.207 v 0 c 0.287,-3.656 1.825,-5.797 6.129,-5.734 v 0 c 30.032,0.501 37.918,36.895 19.374,54.018 v 0 c -2.969,2.734 -6.618,4.985 -10.937,6.509 v 0 c -2.198,0.786 -5.799,1.904 -8.878,1.904 v 0 c -2.662,0 -4.912,-0.86 -5.497,-3.49" style="fill:url(#linearGradient126);stroke:none" id="path128"></path>
          </g>
        </g>
      </g>
    </g>
    <g id="g130" transform="matrix(0.35277777,0,0,-0.35277777,-78.337748,179.35045)">
      <g id="g132" clip-path="url(#clipPath136)">
        <g id="g138">
          <g id="g140">
            <path d="m 269.975,466.034 c -1.394,-6.306 -0.724,-60.558 -0.235,-66.852 v 0 c 0.368,-4.623 2.279,-7.29 7.685,-7.209 v 0 c 37.741,0.599 47.668,46.343 24.363,67.869 v 0 c -3.725,3.436 -8.322,6.27 -13.748,8.18 v 0 c -2.772,0.987 -7.306,2.389 -11.156,2.389 v 0 c -3.337,0 -6.187,-1.058 -6.909,-4.377" style="fill:url(#linearGradient148);stroke:none" id="path150"></path>
          </g>
        </g>
      </g>
    </g>
  </g>
</svg>