
<svg xmlns="http://www.w3.org/2000/svg" width="126.2mm" height="21.9mm" viewBox="0 0 126.19999 21.9" version="1.1" id="svg8">
  <defs id="defs2"></defs>
  
  
  <g id="layer1">
    <path d="M 65.905145,5.2139417 C 65.013438,0.06318626 49.539587,-1.5430766 31.3467,1.6240439 23.710631,2.9541598 16.810701,4.9162102 11.441857,7.1216557 c 0.826204,0.024559 1.436555,0.2121344 1.807229,0.5813219 0.289545,0.2902876 0.441386,0.6914805 0.441386,1.1886931 V 9.4007918 H 11.904085 V 8.9512164 c 0,-0.3721645 -0.226277,-0.6096051 -0.624493,-0.6096051 -0.334948,0 -0.54336,0.1533268 -0.609606,0.446598 -0.0156,0.0856 -0.02309,0.2299969 0.01033,0.3624885 0.189807,0.7793117 2.836637,1.2616372 3.123947,2.7011682 0.04169,0.184596 0.09007,0.581322 0.0083,1.147755 -0.164488,1.1619 -1.183483,1.613707 -2.482336,1.613707 -1.8146732,0 -2.5493265,-0.861934 -2.5493265,-2.043929 l 0.0038,-0.562712 h 1.9062275 l 0.0074,0.698179 c 0,0.393752 0.281357,0.611095 0.669897,0.611095 0.367697,0 0.58132,-0.150352 0.657985,-0.451062 0.03348,-0.141428 0.05285,-0.343881 -0.01351,-0.503167 C 11.65758,11.473747 9.1871535,11.061389 8.8812338,9.6263241 8.8112691,9.3010522 8.8067961,9.0271394 8.8632994,8.6802811 8.8953067,8.4934486 8.9541099,8.3311903 9.0210995,8.184558 c -5.956863,2.786768 -9.4418117,5.851169 -8.98032617,8.500981 0.89468372,5.148525 16.36779267,6.753297 34.55397767,3.586177 7.994093,-1.391152 15.184312,-3.478249 20.657363,-5.810977 -0.07965,0.0053 -0.159286,0.01413 -0.241166,0.01413 -1.243772,0 -2.353568,-0.465206 -2.470426,-1.738009 -0.01647,-0.235216 -0.02456,-0.331233 -0.02456,-0.463725 V 9.3479384 c 0,-0.1242947 0.01645,-0.3453689 0.03051,-0.4607407 0.146641,-1.2281419 1.120217,-1.7357734 2.471175,-1.7357734 1.039826,0 2.317839,0.2977314 2.454796,1.737263 0.02088,0.1793844 0.02088,0.3729094 0.02088,0.4376646 V 9.6032438 H 55.692048 V 9.191628 9.187828 c 0,-0.00739 -0.0057,-0.1607752 -0.02231,-0.2582822 -0.03199,-0.1458791 -0.158534,-0.4867918 -0.670639,-0.4867918 -0.507632,0 -0.637147,0.3409019 -0.670642,0.4867918 -0.01859,0.081126 -0.03051,0.1979938 -0.03051,0.3237823 V 12.4331 c 0,0.110899 0.0067,0.195758 0.02005,0.261261 0.0057,0.04988 0.09676,0.48679 0.687013,0.48679 0.588024,0 0.676597,-0.436921 0.687016,-0.48679 0.01329,-0.08783 0.01645,-0.190547 0.01329,-0.261261 V 11.449183 H 54.996711 V 10.38926 h 2.506157 v 1.883895 c 0,0.131004 -0.0014,0.2233 -0.02606,0.463717 -0.02679,0.333458 -0.131739,0.614073 -0.300709,0.854491 5.806508,-2.754763 9.18502,-5.7715271 8.728745,-8.3774224 M 18.742688,14.337924 17.830885,8.1391538 h -0.03348 L 16.861787,14.337924 H 14.93695 l 1.293645,-6.9996684 h 3.140324 l 1.280244,6.9996684 z m 9.250521,0 -0.04614,-6.0804233 h -0.02531 L 26.788896,14.337924 H 24.984641 L 23.855494,8.2575007 h -0.032 l -0.04018,6.0804233 h -1.786391 l 0.153334,-6.9996684 h 2.879062 l 0.836626,5.1991364 h 0.04094 l 0.83737,-5.1991364 h 2.877576 l 0.153334,6.9996684 z m 8.419847,-1.355422 c -0.189808,1.355422 -1.520666,1.591374 -2.460007,1.591374 -1.555649,0 -2.521042,-0.667662 -2.521042,-2.022342 v -0.553779 h 1.890596 v 0.690735 c 0,0.376631 0.262004,0.604397 0.671384,0.604397 0.365464,0 0.57611,-0.150352 0.650543,-0.448086 0.03201,-0.13993 0.04838,-0.343137 -0.01183,-0.497213 -0.347533,-0.870864 -2.803073,-1.295131 -3.101551,-2.7093567 -0.06849,-0.3193179 -0.07443,-0.5932304 -0.015,-0.9348774 0.206181,-1.2817337 1.432092,-1.5482044 2.422791,-1.5482044 0.885751,0 1.531085,0.1935208 1.915904,0.5828094 0.290287,0.2858229 0.433199,0.6825511 0.433199,1.1738075 V 9.4179115 H 34.522007 V 8.973548 c 0,-0.3825856 -0.23521,-0.6029066 -0.618536,-0.6029066 -0.333463,0 -0.536662,0.1503513 -0.602164,0.4451085 -0.01858,0.062517 -0.03051,0.2091553 0.0057,0.351323 0.186831,0.7763344 2.812072,1.2512161 3.100128,2.6795831 0.03724,0.181622 0.08858,0.5709 0.0057,1.135847 m 6.545096,-0.63789 c 0.0014,0.13248 -0.01183,0.393749 -0.0194,0.463716 -0.107908,1.151477 -0.9319,1.736518 -2.443632,1.736518 -1.522152,0 -2.34538,-0.585041 -2.451819,-1.736518 -0.0073,-0.06996 -0.02457,-0.331226 -0.01943,-0.462228 V 7.3367672 h 1.807232 v 5.1671308 c 0,0.116103 0.0051,0.200968 0.01793,0.259027 0.02003,0.118345 0.135476,0.494235 0.646078,0.494235 0.505401,0 0.620025,-0.375885 0.646078,-0.491257 0.0084,-0.06105 0.01709,-0.150353 0.01709,-0.262005 V 7.3367672 h 1.799787 z m 7.784936,1.923345 H 48.228079 L 46.540686,8.7241966 h -0.02904 l 0.09156,5.5437614 H 44.851805 V 7.3382567 h 2.624502 l 1.556394,5.3271603 h 0.03648 l -0.09079,-5.3271603 h 1.764805 z" style="fill:#004098;fill-opacity:1;fill-rule:nonzero;stroke:none;stroke-width:0.744332" id="path30"></path>
    <path d="m 81.612346,7.7787487 c 0,0 1.377752,2.6088733 2.753271,3.0487713 l 1.017489,-1.0189864 c 0,0 -2.976562,-1.8511454 -2.830675,-5.8429828 h -1.884639 c 0,0 0.432456,3.8831647 -2.903627,5.7685494 l 1.013776,1.1648738 c 0,0 1.95833,-1.0904404 2.834405,-3.1202253 m 12.190623,0 c 0,0 1.380726,2.6088733 2.758475,3.0487713 l 1.013769,-1.0189864 c 0,0 -2.973579,-1.8511454 -2.82696,-5.8429828 h -1.891322 c 0,0 0.436918,3.8831647 -2.898424,5.7685494 l 1.011531,1.1648738 c 0,0 1.960569,-1.0904404 2.832931,-3.1202253 m -5.153746,0 h 1.522911 V 6.106241 H 88.649223 V 3.676753 h -1.815407 v 7.365134 h 1.815407 z M 80.013525,18.008063 h 8.708659 v -6.239711 h -8.708659 z m 1.810954,-4.641638 h 5.010814 v 2.97434 h -5.010814 z m 17.42176,-2.177161 h 1.958331 V 3.7132249 H 99.246239 V 6.106241 h -2.251588 v 1.6725077 h 2.251588 z m -2.684795,0 c -2.646078,0 -4.791982,1.625612 -4.791982,3.62786 0,2.005221 2.145904,3.627856 4.791982,3.627856 2.64534,0 4.788266,-1.622635 4.788266,-3.627856 0,-2.002248 -2.142926,-3.62786 -4.788266,-3.62786 m 0,5.66211 c -1.64347,0 -2.977313,-0.909569 -2.977313,-2.03425 0,-1.122448 1.333843,-2.032762 2.977313,-2.032762 1.641256,0 2.972862,0.910314 2.972862,2.032762 0,1.124681 -1.331606,2.03425 -2.972862,2.03425 M 110.05686,4.8736324 h -2.6111 V 3.6038071 h -1.88462 v 1.1991138 h -2.83144 v 1.5236432 h 7.32716 z m 4.50023,4.3066886 H 112.8176 V 3.7132249 h -1.74099 V 18.008063 h 1.74099 v -7.377047 h 1.73949 z m 4.20992,-3.2006154 h 2.17715 v -1.612217 h -5.80501 v 1.612217 h 2.03277 c 0,0 0.43318,6.6617424 -2.90066,8.9118494 l 1.15893,1.232608 c 0,0 1.81244,-1.160407 2.46746,-3.413491 0,0 1.30702,2.690003 2.39448,3.413491 l 1.23188,-1.232608 c 0,0 -2.955,-1.825094 -2.757,-8.9118494 m 5.66211,-2.2664807 V 8.818577 h -0.87237 V 3.7132249 h -1.74097 V 18.008063 h 1.74097 v -7.738791 h 0.87237 v 7.738791 h 1.81542 V 3.7132249 Z m -17.05481,9.3733321 c 1.59882,-0.326759 2.78826,-1.541503 2.78826,-2.9922 0,-1.6978145 -1.63231,-3.0778002 -3.65018,-3.0778002 -2.01567,0 -3.64721,1.3799857 -3.64721,3.0778002 0,1.424644 1.14327,2.616315 2.69596,2.97136 v 1.173806 h -2.90588 v 1.518432 h 7.69414 v -1.44921 h -2.97509 z m -2.80462,-2.9922 c 0,-0.914036 0.87087,-1.6553884 1.9427,-1.6553884 1.07628,0 1.9412,0.7413524 1.9412,1.6553884 0,0.919989 -0.86492,1.659108 -1.9412,1.659108 -1.07183,0 -1.9427,-0.739119 -1.9427,-1.659108" style="fill:#004098;fill-opacity:1;fill-rule:nonzero;stroke:none;stroke-width:0.744332" id="path34"></path>
  </g>
</svg>