<svg xmlns="http://www.w3.org/2000/svg" width="192.03" height="150" viewBox="0 0 192.03 150">
  <g id="undraw_time_management_re_tk5w" transform="translate(0 -0.004)">
    <path id="패스_67" data-name="패스 67" d="M828.246,590.312,837,591.68a28.58,28.58,0,0,0,5.949-12.4c-6.4,5.238-16.131,2.455-23.891,5.315a17.191,17.191,0,0,0-10.285,10.783l-4.277,4.6a28.807,28.807,0,0,0,24.084-1.326,27.821,27.821,0,0,0,5.671-4.071C831.186,592.656,828.246,590.312,828.246,590.312Z" transform="translate(-650.964 -453.108)" fill="#f2f2f2"/>
    <path id="패스_68" data-name="패스 68" d="M834.248,528.536l8.443-2.679a28.581,28.581,0,0,0-.2-13.75c-3.392,7.543-13.344,9.391-19.014,15.412a17.192,17.192,0,0,0-4.4,14.237l-1.776,6.026a28.807,28.807,0,0,0,20.965-11.928,27.828,27.828,0,0,0,3.26-6.173C837.925,529.323,834.248,528.536,834.248,528.536Z" transform="translate(-660.073 -405.329)" fill="#f2f2f2"/>
    <path id="패스_69" data-name="패스 69" d="M454.2,659.779a.345.345,0,0,1-.1.243.334.334,0,0,1-.239.1H262.5a.344.344,0,0,1,0-.687H453.857a.334.334,0,0,1,.239.1A.345.345,0,0,1,454.2,659.779Z" transform="translate(-262.165 -510.118)" fill="#ccc"/>
    <ellipse id="타원_20" data-name="타원 20" cx="62.078" cy="60.883" rx="62.078" ry="60.883" transform="translate(18.479 13.246)" fill="#e6e6e6"/>
    <path id="패스_70" data-name="패스 70" d="M463,263.308a53.342,53.342,0,0,1-21.56,42.88c-.448.335-.9.661-1.363.979a53.425,53.425,0,0,1-60.987,0c-.459-.318-.915-.644-1.363-.979a53.422,53.422,0,0,1,0-85.76c.448-.335.9-.661,1.363-.979a53.425,53.425,0,0,1,60.987,0c.459.318.915.644,1.363.979A53.342,53.342,0,0,1,463,263.308Z" transform="translate(-329.023 -187.984)" fill="#fff"/>
    <circle id="타원_21" data-name="타원 21" cx="48.796" cy="48.796" r="48.796" transform="translate(30.764 25.371)"/>
    <path id="패스_71" data-name="패스 71" d="M531.078,226.365c-.74,0-1.475.019-2.207.052a48.795,48.795,0,0,1-2.066,97.352c1.408.122,2.833.188,4.273.188a48.8,48.8,0,1,0,0-97.593Z" transform="translate(-452.04 -200.864)" opacity="0.2"/>
    <path id="패스_72" data-name="패스 72" d="M537.751,213.892a1.591,1.591,0,0,0-1.588,1.588v6.93a1.588,1.588,0,1,0,3.176,0v-6.93A1.591,1.591,0,0,0,537.751,213.892Z" transform="translate(-458.311 -191.216)" fill="#fff"/>
    <path id="패스_73" data-name="패스 73" d="M634.363,243.963c-.448-.335-.9-.661-1.363-.979a1.587,1.587,0,0,0-1.415.69l-3.9,5.726a1.588,1.588,0,0,0,2.625,1.787l3.9-5.726A1.578,1.578,0,0,0,634.363,243.963Z" transform="translate(-523.666 -212.043)" fill="#fff"/>
    <path id="패스_74" data-name="패스 74" d="M689.521,334.365a1.586,1.586,0,0,0-2.067-.872l-6.422,2.607a1.588,1.588,0,0,0,1.2,2.942l6.421-2.607A1.592,1.592,0,0,0,689.521,334.365Z" transform="translate(-561.376 -276.752)" fill="#fff"/>
    <path id="패스_75" data-name="패스 75" d="M437.211,249.4l-3.9-5.726a1.587,1.587,0,0,0-1.415-.69c-.459.318-.915.644-1.363.979a1.578,1.578,0,0,0,.153,1.5l3.9,5.726a1.588,1.588,0,1,0,2.625-1.787Z" transform="translate(-382.622 -212.043)" fill="#fff"/>
    <path id="패스_76" data-name="패스 76" d="M377.65,336.1l-6.421-2.607a1.588,1.588,0,1,0-1.2,2.942l6.421,2.607a1.588,1.588,0,1,0,1.2-2.942Z" transform="translate(-338.692 -276.752)" fill="#fff"/>
    <path id="패스_77" data-name="패스 77" d="M537.751,540.892a1.591,1.591,0,0,0-1.588,1.588v6.93a1.588,1.588,0,1,0,3.176,0v-6.93A1.591,1.591,0,0,0,537.751,540.892Z" transform="translate(-458.311 -425.386)" fill="#fff"/>
    <path id="패스_78" data-name="패스 78" d="M634.21,522.4l-3.9-5.726a1.588,1.588,0,1,0-2.625,1.787l3.9,5.726a1.587,1.587,0,0,0,1.415.69c.459-.318.915-.644,1.363-.979a1.578,1.578,0,0,0-.153-1.5Z" transform="translate(-523.666 -407.529)" fill="#fff"/>
    <path id="패스_79" data-name="패스 79" d="M688.65,439.1l-6.421-2.607a1.588,1.588,0,0,0-1.2,2.942l6.421,2.607a1.588,1.588,0,1,0,1.2-2.942Z" transform="translate(-561.376 -350.497)" fill="#fff"/>
    <path id="패스_80" data-name="패스 80" d="M436.792,516.254a1.588,1.588,0,0,0-2.206.419l-3.9,5.726a1.578,1.578,0,0,0-.153,1.5c.448.335.9.661,1.363.979a1.587,1.587,0,0,0,1.415-.69l3.9-5.726A1.587,1.587,0,0,0,436.792,516.254Z" transform="translate(-382.622 -407.529)" fill="#fff"/>
    <path id="패스_81" data-name="패스 81" d="M378.521,437.365a1.586,1.586,0,0,0-2.067-.872l-6.421,2.607a1.588,1.588,0,1,0,1.2,2.942l6.421-2.607a1.592,1.592,0,0,0,.872-2.07Z" transform="translate(-338.692 -350.497)" fill="#fff"/>
    <path id="패스_82" data-name="패스 82" d="M463.136,385.355a3.324,3.324,0,0,1-2.717,3.83l-28.18,4.793a3.32,3.32,0,0,1-1.114-6.547l28.18-4.793a3.324,3.324,0,0,1,3.83,2.717Z" transform="translate(-381.291 -312.036)" fill="#3f3d56"/>
    <path id="패스_83" data-name="패스 83" d="M567.669,417.061a2.168,2.168,0,0,1-3.062.012l-30.335-30.1a2.166,2.166,0,1,1,3.05-3.075L567.657,414a2.168,2.168,0,0,1,.012,3.062Z" transform="translate(-456.744 -312.762)" fill="#3f3d56"/>
    <circle id="타원_22" data-name="타원 22" cx="3.754" cy="3.754" r="3.754" transform="translate(75.55 70.39)" fill="#ccc"/>
    <path id="패스_84" data-name="패스 84" d="M373.025,144.264c-5.762,9.058-14.553,15.07-25.394,19.019a2.038,2.038,0,0,1-2.853-.41h0a17.9,17.9,0,1,1,28.494-21.68l.163.217A2.038,2.038,0,0,1,373.025,144.264Z" transform="translate(-318.323 -134.027)" fill="#e6e6e6"/>
    <path id="패스_85" data-name="패스 85" d="M628.448,141.193a17.9,17.9,0,1,1,28.494,21.68h0a2.038,2.038,0,0,1-2.853.41c-10.065-3.853-18.318-10.521-25.394-19.019a2.038,2.038,0,0,1-.41-2.853Z" transform="translate(-524.274 -134.027)" fill="#e6e6e6"/>
    <path id="패스_86" data-name="패스 86" d="M619.106,580.665a1.591,1.591,0,0,0-.61,2.161l9.165,16.378a1.588,1.588,0,0,0,2.772-1.551l-9.165-16.378A1.591,1.591,0,0,0,619.106,580.665Z" transform="translate(-517.189 -453.948)" fill="#e6e6e6"/>
    <path id="패스_87" data-name="패스 87" d="M430.658,581.272l-9.165,16.378a1.588,1.588,0,0,0,2.772,1.551l9.165-16.378a1.588,1.588,0,0,0-2.772-1.551Z" transform="translate(-376.115 -453.946)" fill="#e6e6e6"/>
    <circle id="타원_23" data-name="타원 23" cx="4.909" cy="4.909" r="4.909" transform="translate(107.339 139.632)" fill="#e6e6e6"/>
    <circle id="타원_24" data-name="타원 24" cx="4.909" cy="4.909" r="4.909" transform="translate(110.747 16.422)" fill="#e6e6e6"/>
    <circle id="타원_25" data-name="타원 25" cx="4.909" cy="4.909" r="4.909" transform="translate(74.115 4.873)" fill="#e6e6e6"/>
    <circle id="타원_26" data-name="타원 26" cx="4.909" cy="4.909" r="4.909" transform="translate(39.187 15.845)" fill="#e6e6e6"/>
    <circle id="타원_27" data-name="타원 27" cx="4.909" cy="4.909" r="4.909" transform="translate(42.311 139.632)" fill="#e6e6e6"/>
  </g>
</svg>
