<svg id="undraw_statistic_chart_re_w0pk" xmlns="http://www.w3.org/2000/svg" width="130.511" height="150" viewBox="0 0 130.511 150">
  <g id="그룹_4" data-name="그룹 4" transform="translate(90.888 108.486)">
    <path id="패스_164" data-name="패스 164" d="M358.317,389.025c-.257-.433-1.368.031-1.573-.363s.829-.989,1.419-2.352c.106-.246.777-1.8.281-2.274-.941-.906-5.246,2.834-6.753,1.61a20.129,20.129,0,0,0-1.562-1.676c-.4-.346-.639-.5-.872-.445-.331.083-.357.525-.711,1.4-.532,1.3-.846,1.226-1.156,2.267-.23.773-.177,1.222-.448,1.31-.383.124-.735-.7-1.221-.622s-.795,1.029-.889,1.744a6.694,6.694,0,0,0,.588,3.156,7.927,7.927,0,0,1-.212,4.725l-6.78,19.1c1.5-3.92,5.83-14.664,7.651-18.657a4.729,4.729,0,0,1,2.3-2.783c1.147-.444,2.723-.179,4.732-.663.235-.057.886-.222.968-.605.068-.317-.315-.493-.256-.79.079-.4.832-.4,1.758-.862a5.477,5.477,0,0,0,1.409-1.039c.105-.1,1.672-1.6,1.33-2.178h0Z" transform="translate(-326.323 -375.285)" fill="#f2f2f2"/>
    <path id="패스_165" data-name="패스 165" d="M303.973,431.21c-.287,0-.38.681-.632.667s-.246-.692-.745-1.375c-.09-.123-.657-.9-1.035-.794-.716.2-.123,3.393-1.158,3.779a11.462,11.462,0,0,0-1.273.283c-.285.1-.431.169-.47.3-.055.186.155.327.479.752.487.637.358.769.779,1.221.313.336.549.44.513.6-.05.224-.554.16-.658.42s.276.687.6.94a3.81,3.81,0,0,0,1.719.622,4.513,4.513,0,0,1,2.258,1.468l7.419,8.839c-1.492-1.866-5.515-7.093-6.949-9.139a2.693,2.693,0,0,1-.7-1.931c.113-.691.7-1.388,1.04-2.514.04-.131.147-.5-.018-.65-.136-.125-.333.012-.462-.1-.172-.154.042-.525.084-1.111a3.119,3.119,0,0,0-.1-.991c-.019-.081-.3-1.283-.685-1.281h0Z" transform="translate(-298.651 -407.414)" fill="#f2f2f2"/>
    <path id="패스_166" data-name="패스 166" d="M334.544,423.549l-.173-1.542.079-.117a2.854,2.854,0,0,0,.554-1.57c0-.08,0-.159-.007-.241a2.412,2.412,0,0,1,.175-1.188c.117-.26.445-.862.939-.787a.559.559,0,0,1,.31.151l.035-.055a1.7,1.7,0,0,1,.393-.432,1.984,1.984,0,0,0,.329-.333c.064-.08.114-.15.156-.209a.724.724,0,0,1,.589-.387.773.773,0,0,1,.588.447,3.715,3.715,0,0,1,.341.675,1.165,1.165,0,0,0,.058.133c.1.149.925.01,1.235-.041.7-.116,1.3-.217,1.548.223.178.314.046.73-.4,1.268a2.519,2.519,0,0,1-.422.395.516.516,0,0,1,.248.324h0c.094.374-.228.748-.955,1.115a2.568,2.568,0,0,1-.764.273,3,3,0,0,1-.429.038.507.507,0,0,1-.063.229.763.763,0,0,1-.794.319,6.229,6.229,0,0,1-1.124-.181,2.727,2.727,0,0,0-.71-.106c-.351.028-.621.309-.938.673l-.792.926Z" transform="translate(-323.501 -398.469)" fill="#f2f2f2"/>
    <path id="패스_167" data-name="패스 167" d="M320.751,395.564l-1.448.558-.133-.047a2.854,2.854,0,0,0-1.659-.137c-.077.02-.153.044-.231.068a2.413,2.413,0,0,1-1.193.132c-.281-.047-.946-.212-1-.709a.559.559,0,0,1,.068-.338l-.062-.02a1.7,1.7,0,0,1-.517-.27,1.986,1.986,0,0,0-.406-.234c-.093-.042-.174-.072-.241-.1A.724.724,0,0,1,313.4,394a.773.773,0,0,1,.283-.682,3.72,3.72,0,0,1,.566-.5,1.171,1.171,0,0,0,.114-.089c.118-.136-.225-.9-.353-1.184-.289-.644-.539-1.2-.177-1.554.259-.252.694-.229,1.33.07a2.519,2.519,0,0,1,.489.308.516.516,0,0,1,.25-.322h0c.338-.186.782.03,1.321.641a2.567,2.567,0,0,1,.458.67,3,3,0,0,1,.145.4.508.508,0,0,1,.237,0c.259.064.435.293.511.687a6.23,6.23,0,0,1,.11,1.133,2.727,2.727,0,0,0,.078.713c.116.332.457.522.889.737l1.1.531Z" transform="translate(-308.906 -379.667)" fill="#f2f2f2"/>
    <path id="패스_168" data-name="패스 168" d="M334.544,378.442l-.173-1.542.079-.117a2.854,2.854,0,0,0,.554-1.57c0-.08,0-.159-.007-.241a2.412,2.412,0,0,1,.175-1.188c.117-.26.445-.862.939-.787a.559.559,0,0,1,.31.151l.035-.055a1.7,1.7,0,0,1,.393-.432,1.984,1.984,0,0,0,.329-.333c.064-.08.114-.15.156-.209a.724.724,0,0,1,.589-.387.773.773,0,0,1,.588.447,3.715,3.715,0,0,1,.341.675,1.168,1.168,0,0,0,.058.133c.1.149.925.01,1.235-.041.7-.116,1.3-.217,1.548.223.178.314.046.73-.4,1.268a2.519,2.519,0,0,1-.422.395.516.516,0,0,1,.248.324h0c.094.374-.228.748-.955,1.115a2.568,2.568,0,0,1-.764.273,3,3,0,0,1-.429.038.507.507,0,0,1-.063.229.763.763,0,0,1-.794.319,6.226,6.226,0,0,1-1.124-.181,2.727,2.727,0,0,0-.71-.106c-.351.028-.621.309-.938.673l-.792.926Z" transform="translate(-323.501 -367.09)" fill="#f2f2f2"/>
    <path id="패스_169" data-name="패스 169" d="M330.069,408.809l-.323-.2-.078-.373.078.373-.377.043c-.006-.035-.026-.115-.057-.241a53.94,53.94,0,0,1-1.112-6.094,62.119,62.119,0,0,1-.5-7.051c-.035-2.376.077-4.174.168-5.62.068-1.09.151-2.129.232-3.14a58.712,58.712,0,0,0,.268-8.08,7.486,7.486,0,0,0-.871-3.341,7.094,7.094,0,0,0-1.822-2.137l.475-.6a7.869,7.869,0,0,1,2.016,2.368,8.2,8.2,0,0,1,.964,3.667,59.288,59.288,0,0,1-.27,8.18c-.08,1.008-.163,2.041-.231,3.127-.089,1.432-.2,3.215-.166,5.56a61.374,61.374,0,0,0,.5,6.965,53.09,53.09,0,0,0,1.1,6.01c.089.363.107.439.016.582Z" transform="translate(-317.448 -367.517)" fill="#f2f2f2"/>
    <path id="패스_170" data-name="패스 170" d="M314.4,363.114c-.031,0-.063,0-.095,0a2.438,2.438,0,0,1-1.788-1.155,5.333,5.333,0,0,1-.638-1.519,9.52,9.52,0,0,1-.351-1.575,1.546,1.546,0,0,1,.042-.984,1.164,1.164,0,0,1,.537-.491.431.431,0,0,1,.03-.225c.13-.318.476-.276.662-.256a1.873,1.873,0,0,0,.34.021.959.959,0,0,0,.471-.159,2.121,2.121,0,0,1,.638-.251,2.274,2.274,0,0,1,1.2.1,3.342,3.342,0,0,1,1.7,1.659,5.824,5.824,0,0,1,.629,1.434,1.706,1.706,0,0,1,.086.952c-.094.364-.315.573-.878,1.033a10.228,10.228,0,0,1-1.136.87,2.866,2.866,0,0,1-1.451.554Z" transform="translate(-307.572 -356.475)" fill="#f2f2f2"/>
  </g>
  <g id="그룹_7" data-name="그룹 7" transform="translate(0.094 0)">
    <path id="b-545" d="M210.409,128.071c2.063-1.031,3.2-2.932,2.547-4.245s-2.861-1.541-4.925-.509a5.773,5.773,0,0,0-2.106,1.732l-8.687,4.481,2.189,4.032,8.331-4.845A5.773,5.773,0,0,0,210.409,128.071Z" transform="translate(-137.308 -85.338)" fill="#ffb6b6"/>
    <g id="그룹_5" data-name="그룹 5" transform="translate(22.927 131.009)">
      <path id="패스_171" data-name="패스 171" d="M78.788,446.436h4.135l1.967-15.95h-6.1Z" transform="translate(-77.831 -430.486)" fill="#ffb6b6"/>
      <path id="패스_172" data-name="패스 172" d="M90.769,471.923h0a3.551,3.551,0,0,1,.2,1.169h0a1.4,1.4,0,0,1-1.4,1.4H76.757a.957.957,0,0,1-.957-.957v-.533a4.093,4.093,0,0,1,.671-3.577s1.621,1.546,4.043-.876l.714-1.294,5.17,3.781,2.866.353c.627.077,1.183-.012,1.505.531h0Z" transform="translate(-75.646 -456.067)" fill="#2f2e41"/>
    </g>
    <g id="그룹_6" data-name="그룹 6" transform="translate(28.857 115.257)">
      <path id="패스_173" data-name="패스 173" d="M100.126,392.89l3.672,1.9,9.08-13.26-5.42-2.806Z" transform="translate(-98.606 -378.726)" fill="#ffb6b6"/>
      <path id="패스_174" data-name="패스 174" d="M109.277,426.3h0a3.55,3.55,0,0,1-.363,1.128h0a1.4,1.4,0,0,1-1.892.6L95.65,422.146a.957.957,0,0,1-.41-1.29l.245-.473a4.093,4.093,0,0,1,2.24-2.868s.729,2.119,3.993,1.081l1.229-.821,2.853,5.735,2.383,1.631c.521.357,1.056.533,1.093,1.164Z" transform="translate(-95.133 -405.709)" fill="#2f2e41"/>
    </g>
    <path id="패스_175" data-name="패스 175" d="M63.981,66.908H74.825l-.237,3.536L81.66,92.985l1.326,15.027-13.259,2.21L63.539,82.377,64.865,69.56Z" transform="translate(-44.296 -46.546)"/>
    <path id="패스_176" data-name="패스 176" d="M40.9,76.348,29.409,82.094l7.072,23.867L35.155,130.27s18.121,5.746,17.237-10.607-.884-19.005-.884-19.005L40.9,76.348Z" transform="translate(-20.554 -53.113)" fill="#2f2e41"/>
    <path id="패스_177" data-name="패스 177" d="M127.44,84.549s2.873-2.093,4.2,1,9.945,18.784,9.945,18.784l13.48-5.967,2.21,4.862s-11.049,10.607-17.679,9.282-11.933-12.817-11.933-12.817l-.221-15.144Z" transform="translate(-88.751 -58.337)" fill="#2f2e41"/>
    <path id="패스_178" data-name="패스 178" d="M52.394,210.717a71.035,71.035,0,0,0,.442,12.817c.884,5.746,6.851,54.584,6.851,54.584l7.514-.442.663-57.236,10.607,16.8-9.282,25.193L75.6,265.3l13.48-27.624L79.8,206.3l-2.652-7.956-19.889,2.21-4.862,10.166Z" transform="translate(-36.466 -137.98)" fill="#2f2e41"/>
    <path id="패스_179" data-name="패스 179" d="M115.239,126.977s-11.933,3.536-14.585-26.961l-.6-24.589,11.207,2.932-1.326,22.1,5.3,26.519Z" transform="translate(-69.699 -52.472)" fill="#2f2e41"/>
    <circle id="타원_47" data-name="타원 47" cx="7.956" cy="7.956" r="7.956" transform="translate(17.253 1.578)" fill="#ffb6b6"/>
    <path id="패스_180" data-name="패스 180" d="M56.592,17.268s-3.536-3.978-3.978-5.746-.442-6.63,0-7.072,5.3-4.862,7.072-4.42,5.272,2.652,8.4,2.652c.884,0,1.326,4.42,1.326,4.42l-3.536.442s-4.42-2.21-3.978,0S58.8,9.755,58.8,9.755l.442,1.768-1.326.442L57.034,10.2s.442,3.978,1.768,5.746-2.21,1.326-2.21,1.326Z" transform="translate(-36.466 0)" fill="#2f2e41"/>
    <path id="c-546" d="M40.109,236.164c1.213,1.962,3.209,2.927,4.457,2.154s1.277-2.988.063-4.951a5.773,5.773,0,0,0-1.915-1.941l-5.244-8.248-3.818,2.544,5.575,7.861a5.773,5.773,0,0,0,.881,2.581Z" transform="translate(-23.505 -155.258)" fill="#ffb6b6"/>
    <path id="패스_181" data-name="패스 181" d="M10.934,95.228H8.724S-.115,115.117.327,119.1a10.737,10.737,0,0,0,2.21,6.188c2.21,2.652,11.491,17.679,11.491,17.679l3.978-3.094L10.05,121.3l4.862-19.447-3.978-6.63Z" transform="translate(-0.31 -66.247)" fill="#2f2e41"/>
  </g>
  <path id="패스_182" data-name="패스 182" d="M130.265,490.432h0a.256.256,0,0,1-.256.256H.256A.256.256,0,0,1,0,490.432H0a.256.256,0,0,1,.256-.256H130.009A.256.256,0,0,1,130.265,490.432Z" transform="translate(0 -341.001)" fill="#e6e6e6"/>
  <path id="패스_183" data-name="패스 183" d="M248.248,103.3a3.775,3.775,0,0,1-2.755-1.187,26.313,26.313,0,0,1-2.119-33.5,3.767,3.767,0,0,1,2.767-1.537,3.832,3.832,0,0,1,3.022,1.128l13.364,13.5a3.84,3.84,0,0,1,.318,5.017L251.3,101.8a3.833,3.833,0,0,1-2.854,1.5q-.1,0-.194,0Z" transform="translate(-165.811 -46.66)"/>
  <path id="패스_184" data-name="패스 184" d="M304.151,89.561A26.493,26.493,0,0,1,292.4,86.847,4.943,4.943,0,0,1,290.65,79.4l9.624-12.562a5.815,5.815,0,0,0-.482-7.6l-9.852-9.951a6.376,6.376,0,0,1,1.524-10.1,26.782,26.782,0,1,1,12.687,50.37Zm.01-52.649c-4.286,0-3.26,4.065-7.009,6.087-1.539.829-7.822-.71-8.079,1.015a5.4,5.4,0,0,0,1.517,4.636l9.852,9.951A6.732,6.732,0,0,1,301,67.4l-9.624,12.562a4.03,4.03,0,0,0,1.426,6.07c3.551,1.739,7.37-4.379,11.35-4.379,7.167,0,13.832,4.135,18.767-1.065a25.672,25.672,0,0,0,7.065-19.2A25.942,25.942,0,0,0,304.7,36.918c-.181,0-.362-.006-.542-.006Z" transform="translate(-200.421 -25.044)" fill="#e6e6e6"/>
  <path id="패스_185" data-name="패스 185" d="M571.681,278.565a3.643,3.643,0,0,0-1.418-1.123,13.78,13.78,0,0,0-2.132-.7v-4.165a6.067,6.067,0,0,1,3.031,1.382l.845-1.8a5.591,5.591,0,0,0-1.649-1.019,8.106,8.106,0,0,0-2.093-.537V268.49h-1.958v2.132a5.361,5.361,0,0,0-2.139.718,4.252,4.252,0,0,0-1.45,1.421,3.57,3.57,0,0,0-.516,1.891,3.231,3.231,0,0,0,.594,2.023,3.762,3.762,0,0,0,1.478,1.172,13.666,13.666,0,0,0,2.168.718v3.991a6.48,6.48,0,0,1-3.607-1.439l-.845,1.8a6.375,6.375,0,0,0,1.929,1.094,8.858,8.858,0,0,0,2.388.5v2.093h1.958v-2.132a5.067,5.067,0,0,0,2.907-1.333,3.524,3.524,0,0,0,1.084-2.619A3.126,3.126,0,0,0,571.681,278.565Zm-5.238-2.264a3.76,3.76,0,0,1-1.3-.7,1.38,1.38,0,0,1-.462-1.084,1.745,1.745,0,0,1,.472-1.247,2.387,2.387,0,0,1,1.294-.672Zm2.917,5.518a2.219,2.219,0,0,1-1.229.641v-3.433a3.433,3.433,0,0,1,1.229.615,1.208,1.208,0,0,1,.423.96,1.764,1.764,0,0,1-.423,1.219Z" transform="translate(-454.597 -239.812)"/>
</svg>
