<svg xmlns="http://www.w3.org/2000/svg" width="183.19" height="150.662" viewBox="0 0 183.19 150.662">
  <g id="undraw_real_time_sync_re_nky7" transform="translate(0 -0.004)">
    <path id="패스_10" data-name="패스 10" d="M791.779,170.611c1.171-4.774.058-10.342-3.724-13.482a22.647,22.647,0,0,1-5.539,14.529c-1.357,1.552-3.027,3.137-3.093,5.2a5.062,5.062,0,0,0,1.447,3.463,15.036,15.036,0,0,0,3.025,2.36l.158.279C787.515,179.467,790.609,175.385,791.779,170.611Z" transform="translate(-642.693 -155.466)" fill="#f0f0f0"/>
    <path id="패스_11" data-name="패스 11" d="M797.438,156.928a19.357,19.357,0,0,1,.616,11.894,8.334,8.334,0,0,1-1.018,2.405,4.781,4.781,0,0,1-1.9,1.649,9.9,9.9,0,0,0-2.09,1.17,2.927,2.927,0,0,0-.985,2.182,7.605,7.605,0,0,0,.679,2.949,7.469,7.469,0,0,1,.754,3.278c-.011.139.205.149.216.01.164-2-1.192-3.683-1.407-5.62a2.965,2.965,0,0,1,.739-2.5,7.679,7.679,0,0,1,2.1-1.229,5.1,5.1,0,0,0,1.919-1.543,7.706,7.706,0,0,0,1.107-2.357,18.778,18.778,0,0,0,.751-5.821,19.7,19.7,0,0,0-1.288-6.566c-.05-.13-.241-.028-.192.1Z" transform="translate(-652.151 -155.194)" fill="#fff"/>
    <path id="패스_12" data-name="패스 12" d="M817.24,193.205a2.9,2.9,0,0,0,3.149-2.055c.039-.134-.167-.2-.206-.067a2.689,2.689,0,0,1-2.933,1.906C817.111,192.97,817.1,193.187,817.24,193.205Z" transform="translate(-670.924 -180.824)" fill="#fff"/>
    <path id="패스_13" data-name="패스 13" d="M801.589,208.332a5.6,5.6,0,0,1-1.187-3.9c.011-.139-.206-.149-.216-.01a5.822,5.822,0,0,0,1.244,4.059c.087.109.246-.037.16-.146Z" transform="translate(-658.221 -190.786)" fill="#fff"/>
    <path id="패스_14" data-name="패스 14" d="M813.288,172.671a1.644,1.644,0,0,1-1.427-.629c-.085-.11-.245.036-.16.146a1.842,1.842,0,0,0,1.578.7.112.112,0,0,0,.113-.1A.109.109,0,0,0,813.288,172.671Z" transform="translate(-666.834 -166.598)" fill="#fff"/>
    <path id="패스_15" data-name="패스 15" d="M748.735,169.416c.051.07.1.141.154.213a21.644,21.644,0,0,1,1.817,3.005c.042.08.083.163.122.244a22.823,22.823,0,0,1,2.215,8.106,22.16,22.16,0,0,1,.016,3.368,14.431,14.431,0,0,0,.041,4.671,3.786,3.786,0,0,0,.147.447l7.488,2.854.06,0,.294.128c.008-.058.016-.117.024-.175,0-.033.008-.067.013-.1s.005-.045.009-.065,0-.015,0-.021.005-.039.008-.058q.062-.5.117-1.006s0,0,0,0a32.588,32.588,0,0,0,0-7.7c-.01-.076-.019-.154-.033-.232a21.148,21.148,0,0,0-.749-3.369,18.7,18.7,0,0,0-.656-1.774,15.548,15.548,0,0,0-2.6-4.109,12.346,12.346,0,0,0-8.248-4.4C748.9,169.425,748.818,169.42,748.735,169.416Z" transform="translate(-619.726 -164.662)" fill="#f0f0f0"/>
    <path id="패스_16" data-name="패스 16" d="M748.5,169.187a19.357,19.357,0,0,1,7.653,9.125,8.337,8.337,0,0,1,.635,2.533,4.781,4.781,0,0,1-.525,2.461,9.891,9.891,0,0,0-.964,2.193,2.927,2.927,0,0,0,.527,2.335,7.606,7.606,0,0,0,2.318,1.946,7.468,7.468,0,0,1,2.576,2.164c.075.118.253,0,.179-.122-1.071-1.693-3.169-2.223-4.507-3.64a2.965,2.965,0,0,1-.916-2.443,7.676,7.676,0,0,1,.936-2.245,5.1,5.1,0,0,0,.6-2.387,7.708,7.708,0,0,0-.535-2.548,18.779,18.779,0,0,0-2.905-5.1,19.7,19.7,0,0,0-4.982-4.467c-.118-.074-.21.123-.092.2Z" transform="translate(-619.507 -164.332)" fill="#fff"/>
    <path id="패스_17" data-name="패스 17" d="M776.9,190.424a2.9,2.9,0,0,0,1.277-3.537c-.049-.13-.254-.06-.2.071a2.689,2.689,0,0,1-1.195,3.288C776.652,190.314,776.776,190.492,776.9,190.424Z" transform="translate(-640.674 -177.686)" fill="#fff"/>
    <path id="패스_18" data-name="패스 18" d="M770.017,217.317a5.6,5.6,0,0,1-3.3-2.4c-.075-.118-.254,0-.179.122a5.823,5.823,0,0,0,3.437,2.492C770.113,217.565,770.152,217.352,770.017,217.317Z" transform="translate(-633.039 -198.68)" fill="#fff"/>
    <path id="패스_19" data-name="패스 19" d="M757.866,180.744a1.644,1.644,0,0,1-1.518.357c-.135-.037-.174.176-.04.213a1.842,1.842,0,0,0,1.681-.392.112.112,0,0,0,.028-.151.109.109,0,0,0-.151-.028Z" transform="translate(-625.332 -173.126)" fill="#fff"/>
    <path id="패스_20" data-name="패스 20" d="M573.9,327.175a45.53,45.53,0,1,1,7.924-90.373.252.252,0,1,1-.092.494,45.031,45.031,0,1,0,37.2,44.349,44.914,44.914,0,0,0-11.746-30.329.252.252,0,0,1,.372-.339,45.531,45.531,0,0,1-33.653,76.2Z" transform="translate(-454.796 -214.583)" fill="#e4e4e4"/>
    <circle id="타원_13" data-name="타원 13" cx="9.008" cy="9.008" r="9.008" transform="translate(130.175 19.131)"/>
    <path id="패스_21" data-name="패스 21" d="M774,253.119a1,1,0,0,1-.8-.4l-2.458-3.277a1,1,0,0,1,1.6-1.2l1.608,2.144,4.13-6.194a1,1,0,1,1,1.667,1.112l-4.915,7.373a1,1,0,0,1-.806.446Z" transform="translate(-636.048 -220.291)" fill="#fff"/>
    <path id="패스_22" data-name="패스 22" d="M547.66,210.525,533.768,171.88l.352-.127-2.555-7.108-.352.127-4.265-11.865a3.586,3.586,0,0,0-4.588-2.162l-25.113,9.027a3.586,3.586,0,0,0-2.162,4.588l2.974,8.273-.557.214,1.9,4.93.446-.172.394,1.1-.474.183,1.9,4.93.363-.14,13.769,38.3a3.579,3.579,0,0,0,4.588,2.162l25.113-9.027A3.59,3.59,0,0,0,547.66,210.525Z" transform="translate(-429.723 -150.529)" fill="#3f3d56"/>
    <path id="패스_23" data-name="패스 23" d="M523.655,226.914a1.722,1.722,0,0,1-1.616-1.138l-20.93-58.227a1.718,1.718,0,0,1,1.036-2.2l5.343-1.921-.008.187a1.981,1.981,0,0,0,2.649,1.948l11.858-4.262a2.006,2.006,0,0,0,1.129-1.418,1.964,1.964,0,0,0-.468-1.719l-.125-.139,5.519-1.984a1.721,1.721,0,0,1,2.2,1.036l19.969,55.553a4.565,4.565,0,0,1-2.749,5.833l-23.223,8.348A1.721,1.721,0,0,1,523.655,226.914Z" transform="translate(-434.314 -154.576)" fill="#fff"/>
    <circle id="타원_14" data-name="타원 14" cx="6.792" cy="6.792" r="6.792" transform="translate(80.504 17.455)"/>
    <path id="패스_24" data-name="패스 24" d="M577.465,282.738l-23.52,8.454a.594.594,0,1,1-.4-1.118l23.52-8.455a.594.594,0,0,1,.4,1.118Z" transform="translate(-473.339 -248.615)" fill="#e6e6e6"/>
    <path id="패스_25" data-name="패스 25" d="M596.661,304.048l-7.737,2.781a.594.594,0,0,1-.4-1.118l7.737-2.781a.594.594,0,0,1,.4,1.118Z" transform="translate(-499.52 -264.564)" fill="#e6e6e6"/>
    <path id="패스_26" data-name="패스 26" d="M603.976,324.4l-7.736,2.781a.594.594,0,1,1-.4-1.118l7.736-2.781a.594.594,0,0,1,.4,1.118Z" transform="translate(-504.995 -279.796)" fill="#e6e6e6"/>
    <path id="패스_27" data-name="패스 27" d="M607.723,334.823l-7.737,2.781a.594.594,0,0,1-.4-1.118l7.737-2.781a.594.594,0,0,1,.4,1.118Z" transform="translate(-507.799 -287.598)" fill="#e6e6e6"/>
    <path id="패스_28" data-name="패스 28" d="M591.7,307.881l-16.414,5.9a.594.594,0,0,1-.4-1.118l16.414-5.9a.594.594,0,1,1,.4,1.118Z" transform="translate(-489.309 -267.433)" fill="#e6e6e6"/>
    <path id="패스_29" data-name="패스 29" d="M617.376,357.723l-2.809,1.01a1.01,1.01,0,1,1-.683-1.9l2.809-1.01a1.01,1.01,0,0,1,.683,1.9Z" transform="translate(-518.296 -304.132)"/>
    <circle id="타원_15" data-name="타원 15" cx="0.391" cy="0.391" r="0.391" transform="translate(76.553 8.261)" fill="#fff"/>
    <path id="패스_30" data-name="패스 30" d="M340.737,250.932c4.378-5.154,11.482-8.4,18.032-6.718A31.157,31.157,0,0,0,347.039,262.1c-.637,2.764-1.057,5.9-3.3,7.639a6.965,6.965,0,0,1-5.027,1.179,20.685,20.685,0,0,1-5.07-1.47l-.438.049C334.3,262.826,336.359,256.086,340.737,250.932Z" transform="translate(-308.72 -220.31)" fill="#f0f0f0"/>
    <path id="패스_31" data-name="패스 31" d="M358.853,245.212a26.631,26.631,0,0,0-13.756,8.9,11.469,11.469,0,0,0-1.86,3.074,6.578,6.578,0,0,0-.305,3.448,13.613,13.613,0,0,1,.38,3.273,4.027,4.027,0,0,1-1.639,2.857,10.464,10.464,0,0,1-3.836,1.62,10.274,10.274,0,0,0-4.262,1.8c-.146.125-.331-.109-.185-.233,2.094-1.793,5.067-1.641,7.4-2.962a4.079,4.079,0,0,0,2.193-2.841,10.561,10.561,0,0,0-.323-3.331,7.019,7.019,0,0,1,.173-3.383,10.6,10.6,0,0,1,1.735-3.134,25.837,25.837,0,0,1,5.884-5.531,27.1,27.1,0,0,1,8.359-3.858c.185-.049.226.246.042.3Z" transform="translate(-308.82 -221.166)" fill="#fff"/>
    <path id="패스_32" data-name="패스 32" d="M381.082,260.125a4,4,0,0,1-.248-5.168c.118-.152.359.024.241.176a3.7,3.7,0,0,0,.24,4.807c.132.139-.1.324-.233.185Z" transform="translate(-343.748 -228.642)" fill="#fff"/>
    <path id="패스_33" data-name="패스 33" d="M370.365,299.761a7.7,7.7,0,0,0,5.308-1.823c.146-.124.331.109.185.233a8.01,8.01,0,0,1-5.527,1.885c-.192-.009-.157-.3.034-.3Z" transform="translate(-336.413 -260.828)" fill="#fff"/>
    <path id="패스_34" data-name="패스 34" d="M411.017,254.675a2.262,2.262,0,0,0,1.852,1.085c.192.006.157.3-.034.3a2.534,2.534,0,0,1-2.051-1.2.154.154,0,0,1,.024-.209A.15.15,0,0,1,411.017,254.675Z" transform="translate(-366.763 -228.432)" fill="#fff"/>
    <path id="패스_35" data-name="패스 35" d="M367.527,310.056c-.12,0-.24,0-.361,0a29.791,29.791,0,0,0-4.815.4c-.123.018-.248.039-.371.061a31.4,31.4,0,0,0-10.822,4.066,30.5,30.5,0,0,0-3.767,2.7c-1.637,1.372-3.3,2.99-5.24,3.72a5.222,5.222,0,0,1-.617.2l-9.219-6.047c-.014-.024-.03-.046-.044-.071l-.379-.225.176-.167c.033-.032.069-.063.1-.1s.046-.042.065-.063l.021-.019c.019-.02.04-.037.058-.056q.509-.474,1.027-.942s0,0,0,0a44.839,44.839,0,0,1,8.588-6.214c.093-.05.188-.1.285-.15a29.094,29.094,0,0,1,4.36-1.882,25.727,25.727,0,0,1,2.507-.7,21.39,21.39,0,0,1,6.675-.417,16.986,16.986,0,0,1,11.553,5.649C367.386,309.882,367.456,309.968,367.527,310.056Z" transform="translate(-307.739 -265.43)" fill="#f0f0f0"/>
    <path id="패스_36" data-name="패스 36" d="M367.932,321.66a26.631,26.631,0,0,0-16.343-1.174,11.468,11.468,0,0,0-3.336,1.335,6.578,6.578,0,0,0-2.32,2.569,13.61,13.61,0,0,1-1.667,2.842,4.027,4.027,0,0,1-3.029,1.295,10.463,10.463,0,0,1-4.038-1.016,10.275,10.275,0,0,0-4.489-1.127c-.192.012-.2-.286-.008-.3,2.751-.171,5.034,1.741,7.692,2.09a4.079,4.079,0,0,0,3.462-.948,10.562,10.562,0,0,0,1.748-2.853,7.019,7.019,0,0,1,2.175-2.6,10.6,10.6,0,0,1,3.273-1.458,25.838,25.838,0,0,1,8.028-.873,27.1,27.1,0,0,1,9,1.952c.177.072.032.332-.144.261Z" transform="translate(-308.241 -276.93)" fill="#fff"/>
    <path id="패스_37" data-name="패스 37" d="M414.99,308.809a4,4,0,0,1,2.914-4.275c.185-.05.272.235.086.285a3.7,3.7,0,0,0-2.7,3.983c.021.191-.277.2-.3.008Z" transform="translate(-369.916 -265.786)" fill="#fff"/>
    <path id="패스_38" data-name="패스 38" d="M385.73,336.992a7.7,7.7,0,0,0,5.336,1.741c.192-.011.2.287.008.3a8.01,8.01,0,0,1-5.548-1.823c-.148-.122.058-.338.205-.216Z" transform="translate(-347.842 -290.058)" fill="#fff"/>
    <path id="패스_39" data-name="패스 39" d="M448.65,321.047a2.262,2.262,0,0,0,.826,1.981c.15.121-.057.336-.205.216a2.534,2.534,0,0,1-.918-2.189.154.154,0,0,1,.145-.153A.15.15,0,0,1,448.65,321.047Z" transform="translate(-394.896 -278.042)" fill="#fff"/>
    <path id="패스_40" data-name="패스 40" d="M848.789,629.273c4.774,1.171,10.342.058,13.482-3.724a22.647,22.647,0,0,1-14.529-5.539c-1.552-1.357-3.137-3.027-5.2-3.093a5.063,5.063,0,0,0-3.463,1.447,15.036,15.036,0,0,0-2.36,3.025l-.279.158C839.934,625.008,844.015,628.1,848.789,629.273Z" transform="translate(-685.371 -499.594)" fill="#f0f0f0"/>
    <path id="패스_41" data-name="패스 41" d="M862.562,634.931a19.358,19.358,0,0,1-11.894.616,8.337,8.337,0,0,1-2.405-1.018,4.78,4.78,0,0,1-1.649-1.9,9.9,9.9,0,0,0-1.171-2.09,2.927,2.927,0,0,0-2.182-.985,7.605,7.605,0,0,0-2.949.679,7.467,7.467,0,0,1-3.278.754c-.139-.011-.149.205-.01.216,2,.164,3.683-1.192,5.62-1.407a2.965,2.965,0,0,1,2.5.739,7.679,7.679,0,0,1,1.229,2.1,5.1,5.1,0,0,0,1.543,1.919,7.707,7.707,0,0,0,2.357,1.107,18.78,18.78,0,0,0,5.821.751,19.7,19.7,0,0,0,6.566-1.288c.13-.05.028-.241-.1-.192Z" transform="translate(-685.732 -509.051)" fill="#fff"/>
    <path id="패스_42" data-name="패스 42" d="M896.443,654.733a2.9,2.9,0,0,0,2.055,3.149c.134.039.2-.167.067-.206a2.689,2.689,0,0,1-1.906-2.933C896.677,654.6,896.461,654.6,896.443,654.733Z" transform="translate(-730.261 -527.824)" fill="#fff"/>
    <path id="패스_43" data-name="패스 43" d="M875.43,639.082a5.6,5.6,0,0,1,3.9-1.187c.139.011.149-.206.01-.216a5.822,5.822,0,0,0-4.059,1.244C875.175,639.009,875.322,639.168,875.43,639.082Z" transform="translate(-714.413 -515.121)" fill="#fff"/>
    <path id="패스_44" data-name="패스 44" d="M920.934,650.782a1.644,1.644,0,0,1,.629-1.427c.11-.085-.036-.245-.146-.16a1.842,1.842,0,0,0-.7,1.578.112.112,0,0,0,.1.113.109.109,0,0,0,.113-.1Z" transform="translate(-748.443 -523.735)" fill="#fff"/>
    <path id="패스_45" data-name="패스 45" d="M858.3,586.228c-.07.051-.141.1-.213.154a21.646,21.646,0,0,1-3.005,1.817c-.081.042-.163.083-.244.122a22.823,22.823,0,0,1-8.106,2.215,22.169,22.169,0,0,1-3.368.016,14.428,14.428,0,0,0-4.671.041,3.8,3.8,0,0,0-.447.147l-2.854,7.488c0,.02,0,.04,0,.06l-.128.294.175.024.1.013.065.009.021,0,.058.008q.5.062,1.006.117h0a32.594,32.594,0,0,0,7.7,0c.076-.01.154-.019.232-.033a21.148,21.148,0,0,0,3.369-.749,18.7,18.7,0,0,0,1.774-.656,15.545,15.545,0,0,0,4.109-2.6,12.346,12.346,0,0,0,4.4-8.248C858.3,586.391,858.3,586.311,858.3,586.228Z" transform="translate(-684.496 -476.626)" fill="#f0f0f0"/>
    <path id="패스_46" data-name="패스 46" d="M858.576,585.99a19.357,19.357,0,0,1-9.125,7.653,8.339,8.339,0,0,1-2.534.635,4.782,4.782,0,0,1-2.461-.525,9.9,9.9,0,0,0-2.193-.964,2.928,2.928,0,0,0-2.335.527,7.607,7.607,0,0,0-1.946,2.318,7.468,7.468,0,0,1-2.164,2.576c-.118.075,0,.253.122.179,1.693-1.071,2.223-3.169,3.64-4.507a2.964,2.964,0,0,1,2.443-.916,7.675,7.675,0,0,1,2.245.936,5.1,5.1,0,0,0,2.387.6,7.7,7.7,0,0,0,2.548-.535,18.781,18.781,0,0,0,5.1-2.905,19.7,19.7,0,0,0,4.467-4.982c.074-.118-.123-.21-.2-.092Z" transform="translate(-684.868 -476.407)" fill="#fff"/>
    <path id="패스_47" data-name="패스 47" d="M895.048,614.389a2.9,2.9,0,0,0,3.537,1.277c.13-.049.06-.254-.071-.2a2.689,2.689,0,0,1-3.288-1.195C895.158,614.145,894.98,614.269,895.048,614.389Z" transform="translate(-729.223 -497.574)" fill="#fff"/>
    <path id="패스_48" data-name="패스 48" d="M871,607.511a5.6,5.6,0,0,1,2.4-3.3c.118-.075-.005-.254-.122-.179a5.822,5.822,0,0,0-2.492,3.437C870.753,607.607,870.966,607.646,871,607.511Z" transform="translate(-711.074 -489.94)" fill="#fff"/>
    <path id="패스_49" data-name="패스 49" d="M913.57,595.36a1.644,1.644,0,0,1-.357-1.518c.037-.135-.177-.174-.213-.04a1.843,1.843,0,0,0,.392,1.681.112.112,0,0,0,.151.028A.109.109,0,0,0,913.57,595.36Z" transform="translate(-742.624 -482.232)" fill="#fff"/>
    <path id="패스_50" data-name="패스 50" d="M691.553,384.919l-7.28,12.25.277.146-2.465,4.674-.513-.272-1.62,2.724.4.231-2.641,4.573-.458-.264L653.5,448.958a4.6,4.6,0,0,1-6.294,1.6l-44.159-26.239a4.6,4.6,0,0,1-1.6-6.294L639.5,353.988a4.6,4.6,0,0,1,6.294-1.6l44.159,26.239A4.6,4.6,0,0,1,691.553,384.919Z" transform="translate(-509.006 -301.124)" fill="#3f3d56"/>
    <path id="패스_51" data-name="패스 51" d="M657.624,456.767,613.31,430.436a1.417,1.417,0,0,1-.494-1.94l38.3-64.465a1.417,1.417,0,0,1,1.94-.494l44.315,26.331a1.417,1.417,0,0,1,.494,1.94l-38.3,64.465a1.417,1.417,0,0,1-1.94.494Z" transform="translate(-517.849 -309.804)" fill="#fff"/>
    <circle id="타원_16" data-name="타원 16" cx="0.391" cy="0.391" r="0.391" transform="translate(157.589 65.099)" fill="#fff"/>
    <path id="패스_52" data-name="패스 52" d="M742.737,524.935l-36.992-21.98a1.023,1.023,0,1,1,1.045-1.759l36.992,21.98a1.023,1.023,0,0,1-1.045,1.759Z" transform="translate(-587.175 -412.876)" fill="#e6e6e6"/>
    <path id="패스_53" data-name="패스 53" d="M757.88,555.282l-12.168-7.23a1.023,1.023,0,1,1,1.045-1.759l12.168,7.23a1.023,1.023,0,0,1-1.045,1.759Z" transform="translate(-617.088 -446.629)" fill="#e6e6e6"/>
    <path id="패스_54" data-name="패스 54" d="M738.861,587.289l-12.168-7.23a1.023,1.023,0,1,1,1.045-1.759l12.168,7.23a1.023,1.023,0,1,1-1.045,1.759Z" transform="translate(-602.854 -470.585)" fill="#e6e6e6"/>
    <path id="패스_55" data-name="패스 55" d="M729.12,603.684l-12.168-7.23A1.023,1.023,0,1,1,718,594.7l12.168,7.23a1.023,1.023,0,0,1-1.045,1.759Z" transform="translate(-595.564 -482.855)" fill="#e6e6e6"/>
    <path id="패스_56" data-name="패스 56" d="M735.024,563.052l-25.816-15.339a1.023,1.023,0,1,1,1.045-1.759l25.816,15.339a1.023,1.023,0,0,1-1.045,1.759Z" transform="translate(-589.768 -446.375)" fill="#e6e6e6"/>
    <path id="패스_57" data-name="패스 57" d="M778.086,674.849l-4.418-2.625a1.739,1.739,0,0,1,1.777-2.99l4.418,2.625a1.739,1.739,0,1,1-1.777,2.99Z" transform="translate(-637.75 -538.568)"/>
    <circle id="타원_17" data-name="타원 17" cx="9.056" cy="9.056" r="9.056" transform="translate(139.523 75.547)"/>
    <path id="패스_58" data-name="패스 58" d="M236.3,416.069H358.847V345.12a2.007,2.007,0,0,0-2.005-2.005H238.3a2.007,2.007,0,0,0-2.005,2.005Z" transform="translate(-236.191 -294.667)" fill="#cacaca"/>
    <rect id="사각형_20" data-name="사각형 20" width="114.977" height="65.274" transform="translate(3.893 51.221)" fill="#fff"/>
    <path id="패스_59" data-name="패스 59" d="M235.874,625.5v8.755a2.764,2.764,0,0,0,2.764,2.764H283.87V654.3h-.6a.359.359,0,0,0-.359.359v1.2a.359.359,0,0,0,.359.359h28.079a.359.359,0,0,0,.359-.359v-1.2a.359.359,0,0,0-.359-.359h-.6V637.021H355.98a2.764,2.764,0,0,0,2.764-2.764V625.5Z" transform="translate(-235.874 -506.02)" fill="#3f3d56"/>
    <path id="패스_60" data-name="패스 60" d="M476.431,433.221H421.982a1.294,1.294,0,0,1,0-2.588h54.449a1.294,1.294,0,1,1,0,2.588Z" transform="translate(-374.198 -360.17)" fill="#e6e6e6"/>
    <path id="패스_61" data-name="패스 61" d="M512.52,456.447H494.61a1.294,1.294,0,0,1,0-2.589h17.91a1.294,1.294,0,1,1,0,2.589Z" transform="translate(-428.557 -377.553)" fill="#e6e6e6"/>
    <path id="패스_62" data-name="패스 62" d="M512.52,503.558H494.61a1.294,1.294,0,0,1,0-2.589h17.91a1.294,1.294,0,1,1,0,2.589Z" transform="translate(-428.557 -412.814)" fill="#e6e6e6"/>
    <path id="패스_63" data-name="패스 63" d="M512.52,527.688H494.61a1.294,1.294,0,1,1,0-2.588h17.91a1.294,1.294,0,1,1,0,2.588Z" transform="translate(-428.557 -430.874)" fill="#e6e6e6"/>
    <path id="패스_64" data-name="패스 64" d="M492.679,479.672h-38a1.294,1.294,0,1,1,0-2.588h38a1.294,1.294,0,0,1,0,2.588Z" transform="translate(-398.671 -394.937)" fill="#e6e6e6"/>
    <path id="패스_65" data-name="패스 65" d="M612.787,571.7h-6.5a2.2,2.2,0,0,1,0-4.4h6.5a2.2,2.2,0,0,1,0,4.4Z" transform="translate(-511.461 -462.457)"/>
    <circle id="타원_18" data-name="타원 18" cx="11.32" cy="11.32" r="11.32" transform="translate(19.343 70.629)"/>
    <path id="패스_66" data-name="패스 66" d="M399,747.689H236.174a.3.3,0,0,1,0-.6H399a.3.3,0,0,1,0,.6Z" transform="translate(-235.874 -597.023)" fill="#cacaca"/>
    <circle id="타원_19" data-name="타원 19" cx="0.427" cy="0.427" r="0.427" transform="translate(60.901 48.981)" fill="#fff"/>
  </g>
</svg>
