<svg xmlns="http://www.w3.org/2000/svg" width="357.524" height="386.148" viewBox="0 0 357.524 386.148">
  <g id="그룹_34" data-name="그룹 34" transform="translate(-476.238 -1707.924)">
    <g id="undraw_access_denied_re_awnf_1_" data-name="undraw_access_denied_re_awnf (1)" transform="translate(541.121 1707.924)">
      <path id="Path_968" data-name="Path 968" d="M699.749,185.476h-2.207V127.353c0-18.579-15.685-33.64-35.034-33.64H534.26c-19.349,0-35.035,15.061-35.035,33.64V446.221c0,18.579,15.685,33.64,35.034,33.64H662.506c19.349,0,35.034-15.061,35.034-33.64V226.849h2.207Z" transform="translate(-407.108 -93.713)" fill="#3f3d56"/>
      <path id="Path_969" data-name="Path 969" d="M695.812,130.04V453.413c0,14.082-11.888,25.5-26.558,25.51H538.37c-14.68,0-26.577-11.422-26.579-25.514V130.04c0-14.091,11.9-25.511,26.578-25.51h15.876a11.721,11.721,0,0,0,1.217,11.336,12.783,12.783,0,0,0,10.471,5.366H640.55a12.784,12.784,0,0,0,10.471-5.365,11.721,11.721,0,0,0,1.217-11.336h17.006c14.665,0,26.559,11.415,26.567,25.5Z" transform="translate(-412.564 -98.653)" fill="#fff"/>
      <path id="Path_39" data-name="Path 39" d="M688.784,467.55h-116.3a2.114,2.114,0,0,1-2.154-2.068v-27.7a2.115,2.115,0,0,1,2.154-2.068h116.3a2.115,2.115,0,0,1,2.154,2.068v27.7a2.115,2.115,0,0,1-2.154,2.068Zm-116.3-31.01a1.268,1.268,0,0,0-1.292,1.241v27.7a1.268,1.268,0,0,0,1.292,1.241h116.3a1.269,1.269,0,0,0,1.293-1.241v-27.7a1.269,1.269,0,0,0-1.293-1.241Z" transform="translate(-437.978 -249.897)" fill="#e6e6e6"/>
      <path id="Path_40" data-name="Path 40" d="M636.542,454.074a1.449,1.449,0,1,0,0,2.9h71.072a1.449,1.449,0,1,0,.116-2.894H636.542Z" transform="translate(-466.071 -258.281)" fill="#e6e6e6"/>
      <path id="Path_41" data-name="Path 41" d="M636.542,470.058a1.449,1.449,0,1,0,0,2.9h71.072a1.449,1.449,0,1,0,.116-2.894H636.542Z" transform="translate(-466.071 -265.581)" fill="#e6e6e6"/>
      <path id="Path_42" data-name="Path 42" d="M688.784,552.53h-116.3a2.114,2.114,0,0,1-2.154-2.068v-27.7a2.115,2.115,0,0,1,2.154-2.068h116.3a2.115,2.115,0,0,1,2.154,2.068v27.7a2.115,2.115,0,0,1-2.154,2.067Zm-116.3-31.01a1.269,1.269,0,0,0-1.292,1.241v27.7a1.269,1.269,0,0,0,1.292,1.241h116.3a1.269,1.269,0,0,0,1.293-1.241v-27.7a1.269,1.269,0,0,0-1.293-1.241Z" transform="translate(-437.978 -288.705)" fill="#e6e6e6"/>
      <path id="Path_43" data-name="Path 43" d="M636.542,539.33a1.449,1.449,0,1,0,0,2.9h71.072a1.448,1.448,0,1,0,.049-2.895H636.542Z" transform="translate(-466.071 -297.215)" fill="#e6e6e6"/>
      <path id="Path_44" data-name="Path 44" d="M636.542,555.318a1.449,1.449,0,1,0,0,2.9h71.072a1.449,1.449,0,1,0,.049-2.9H636.542Z" transform="translate(-466.071 -304.517)" fill="#e6e6e6"/>
      <path id="Path_39-2" data-name="Path 39-2" d="M688.784,637.788h-116.3a2.114,2.114,0,0,1-2.154-2.068v-27.7a2.115,2.115,0,0,1,2.154-2.068h116.3a2.115,2.115,0,0,1,2.154,2.068v27.7a2.115,2.115,0,0,1-2.154,2.068Zm-116.3-31.01a1.269,1.269,0,0,0-1.292,1.241v27.7a1.269,1.269,0,0,0,1.292,1.241h116.3a1.269,1.269,0,0,0,1.293-1.241v-27.7a1.269,1.269,0,0,0-1.293-1.241Z" transform="translate(-437.978 -327.64)" fill="#e6e6e6"/>
      <path id="Path_40-2" data-name="Path 40-2" d="M636.542,624.591a1.449,1.449,0,1,0,0,2.9h71.072a1.449,1.449,0,1,0,.116-2.894H636.542Z" transform="translate(-466.071 -336.152)" fill="#e6e6e6"/>
      <path id="Path_41-2" data-name="Path 41-2" d="M636.542,640.578a1.449,1.449,0,1,0,0,2.9h71.072a1.449,1.449,0,1,0,.116-2.894H636.542Z" transform="translate(-466.071 -343.453)" fill="#e6e6e6"/>
      <g id="Group_59" data-name="Group 59" transform="translate(139.968 192.88)">
        <ellipse id="Ellipse_5" data-name="Ellipse 5" cx="9.046" cy="8.686" rx="9.046" ry="8.686" fill="#5b8def"/>
        <path id="Path_40-3" data-name="Path 40-3" d="M591.979,461.712c-.1,0-.188.648-.188,1.448s.084,1.448.188,1.448h8.894c.1.013.19-.624.192-1.423a3.109,3.109,0,0,0-.186-1.471h-8.9Z" transform="translate(-587.265 -454.649)" fill="#e6e6e6"/>
      </g>
      <g id="Group_60" data-name="Group 60" transform="translate(139.968 239.222)">
        <ellipse id="Ellipse_5-2" data-name="Ellipse 5-2" cx="9.046" cy="8.686" rx="9.046" ry="8.686" fill="#5b8def"/>
        <path id="Path_40-4" data-name="Path 40-4" d="M591.979,547.005c-.1,0-.188.648-.188,1.447s.084,1.448.188,1.448h8.894c.1.013.19-.624.192-1.423a3.109,3.109,0,0,0-.186-1.471h-8.9Z" transform="translate(-587.265 -539.942)" fill="#e6e6e6"/>
      </g>
      <g id="Group_61" data-name="Group 61" transform="translate(139.968 285.544)">
        <ellipse id="Ellipse_5-3" data-name="Ellipse 5-3" cx="9.046" cy="8.686" rx="9.046" ry="8.686" fill="#5b8def"/>
        <path id="Path_40-5" data-name="Path 40-5" d="M591.979,632.263c-.1,0-.188.648-.188,1.448s.084,1.448.188,1.448h8.894c.1.013.19-.625.192-1.424a3.108,3.108,0,0,0-.186-1.471h-8.9Z" transform="translate(-587.265 -625.2)" fill="#e6e6e6"/>
      </g>
      <path id="Path_39-2-2" data-name="Path 39" d="M688.784,467.55h-116.3a2.114,2.114,0,0,1-2.154-2.068v-27.7a2.115,2.115,0,0,1,2.154-2.068h116.3a2.115,2.115,0,0,1,2.154,2.068v27.7a2.115,2.115,0,0,1-2.154,2.068Zm-116.3-31.01a1.268,1.268,0,0,0-1.292,1.241v27.7a1.268,1.268,0,0,0,1.292,1.241h116.3a1.269,1.269,0,0,0,1.293-1.241v-27.7a1.269,1.269,0,0,0-1.293-1.241Z" transform="translate(-437.979 -296.896)" fill="#e6e6e6"/>
      <path id="Path_40-2-2" data-name="Path 40" d="M636.542,454.074a1.449,1.449,0,1,0,0,2.9h71.072a1.449,1.449,0,1,0,.116-2.894H636.542Z" transform="translate(-466.07 -305.281)" fill="#e6e6e6"/>
      <path id="Path_41-2-2" data-name="Path 41" d="M636.542,470.058a1.449,1.449,0,1,0,0,2.9h71.072a1.449,1.449,0,1,0,.116-2.894H636.542Z" transform="translate(-466.07 -312.58)" fill="#e6e6e6"/>
      <g id="Group_59-2" data-name="Group 59" transform="translate(139.969 145.881)">
        <ellipse id="Ellipse_5-2-2" data-name="Ellipse 5" cx="9.046" cy="8.686" rx="9.046" ry="8.686" fill="#5b8def"/>
        <path id="Path_40-3-2" data-name="Path 40-3" d="M591.979,461.712c-.1,0-.188.648-.188,1.448s.084,1.448.188,1.448h8.894c.1.013.19-.624.192-1.423a3.109,3.109,0,0,0-.186-1.471h-8.9Z" transform="translate(-587.265 -454.649)" fill="#e6e6e6"/>
      </g>
      <path id="Path_39-3" data-name="Path 39" d="M688.784,467.55h-116.3a2.114,2.114,0,0,1-2.154-2.068v-27.7a2.115,2.115,0,0,1,2.154-2.068h116.3a2.115,2.115,0,0,1,2.154,2.068v27.7a2.115,2.115,0,0,1-2.154,2.068Zm-116.3-31.01a1.268,1.268,0,0,0-1.292,1.241v27.7a1.268,1.268,0,0,0,1.292,1.241h116.3a1.269,1.269,0,0,0,1.293-1.241v-27.7a1.269,1.269,0,0,0-1.293-1.241Z" transform="translate(-437.979 -343.896)" fill="#e6e6e6"/>
      <path id="Path_40-3-3" data-name="Path 40" d="M636.542,454.074a1.449,1.449,0,1,0,0,2.9h71.072a1.449,1.449,0,1,0,.116-2.894H636.542Z" transform="translate(-466.07 -352.281)" fill="#e6e6e6"/>
      <path id="Path_41-3" data-name="Path 41" d="M636.542,470.058a1.449,1.449,0,1,0,0,2.9h71.072a1.449,1.449,0,1,0,.116-2.894H636.542Z" transform="translate(-466.07 -359.58)" fill="#e6e6e6"/>
      <g id="Group_59-3" data-name="Group 59" transform="translate(139.969 98.881)">
        <ellipse id="Ellipse_5-3-2" data-name="Ellipse 5" cx="9.046" cy="8.686" rx="9.046" ry="8.686" fill="#5b8def"/>
        <path id="Path_40-3-4" data-name="Path 40-3" d="M591.979,461.712c-.1,0-.188.648-.188,1.448s.084,1.448.188,1.448h8.894c.1.013.19-.624.192-1.423a3.109,3.109,0,0,0-.186-1.471h-8.9Z" transform="translate(-587.265 -454.649)" fill="#e6e6e6"/>
      </g>
    </g>
    <g id="undraw_updated_resume_re_7r9j" transform="translate(476.238 1817.866)">
      <g id="그룹_31" data-name="그룹 31" transform="translate(19.608 0)">
        <rect id="사각형_131" data-name="사각형 131" width="45.886" height="43.513" transform="translate(20.386 38.117) rotate(-6.717)" fill="#2f2e41"/>
        <circle id="타원_56" data-name="타원 56" cx="22.373" cy="22.373" r="22.373" transform="translate(20.292 12.913)" fill="#ffb6b6"/>
        <path id="패스_392" data-name="패스 392" d="M68.776.586h0C54.834,4.456,56.132,9.653,51.908,12.928,44.465,18.7,42.946,33.007,48.26,41.7c1.42,2.324,4.2,5.4,3.468,9.151a9.488,9.488,0,0,1-3.373,5.177c-3.649,2.893-1.419-.3-2.958,1.942-1.7,2.474,1.715,5.285.325,9.521-1.233,3.756-4.674,3.856-4.852,6.148-.308,3.946,9.348,10.67,18.581,8.964C67.671,81.088,73,73.36,74.284,66.521c.86-4.581.56-12.251-3.422-15.529a19.49,19.49,0,0,1-3.606-3.558c-1.218-1.586-2.821-3.673-2.219-5.315.641-1.749,3.113-1.16,4.437-2.912,1.795-2.377-1.062-5.7-1.11-9.429-.083-6.314,7.871-14.856,17.376-14.792,10.783.072,16.042,11.169,16.594,12.384,1.144,2.519,1.426,5.053,1.989,10.122.808,7.274,1.315,11.832-.414,16.778-2.486,7.112-6.748,6.878-7.347,12.018-.934,8.014,8.7,14.818,9.8,15.575,8.151,5.607,19.539,6.24,21.076,3.094,1.385-2.835-6.54-6.057-7.258-14.281-.623-7.126,4.869-9.968,3.048-14.7-2-5.207-9.181-3.12-12.989-8.826-3.554-5.326,1.4-9.1-.835-20.614a35.836,35.836,0,0,0-7.443-15.852C99.6,7.842,97.191,4.95,93.18,3.753,88.689,2.412,76.151-1.462,68.776.586h0Z" transform="translate(-40.862 0)" fill="#2f2e41"/>
        <path id="패스_393" data-name="패스 393" d="M84.051,29.685c1.149,4.8,8.736,6.321,11.925,6.561A17.663,17.663,0,0,0,106.1,34.258c1.555-.9,2.077-1.609,3.743-2.034,2.257-.575,3.515.161,7.256.739,4.161.643,6.241.964,7.164-.047,1.508-1.653-.343-6.26-2.682-9.243C117.254,18.155,110.4,17.1,107.2,16.6c-3.652-.564-11.062-1.709-17.193,2.822-.82.606-7.129,5.387-5.961,10.261h0Z" transform="translate(-63.251 -8.346)" fill="#2f2e41"/>
      </g>
      <path id="패스_401" data-name="패스 401" d="M97,444.437a147.538,147.538,0,0,1-71.97-.7c-1.3-4.812-2.776-10.141-4.449-16.034-15.011-52.92,15.4-90.44,15.4-90.44l7.5-5.92,67.537,9.08c7.86,38.319,2.744,66.753-14.02,104.012h0Z" transform="translate(-8.54 -172.345)" fill="#2f2e41"/>
      <path id="패스_402" data-name="패스 402" d="M102.347,129.57l-31.594-3.159L47.847,146.158l7.109,71.088L51.8,230.673l75.037,3.159-3.949-18.956,5.529-69.508Z" transform="translate(-24.887 -65.751)" fill="#5b8def"/>
      <rect id="사각형_132" data-name="사각형 132" width="50.551" height="78.986" transform="translate(37.177 100.943)" fill="#fff"/>
      <path id="패스_403" data-name="패스 403" d="M151.728,230.511H137.6a.693.693,0,1,1,0-1.386h14.125a.693.693,0,1,1,0,1.386Z" transform="translate(-71.212 -119.177)" fill="#5b8def"/>
      <path id="패스_404" data-name="패스 404" d="M151.728,241.616H137.6a.693.693,0,1,1,0-1.386h14.125a.693.693,0,0,1,0,1.386Z" transform="translate(-71.212 -124.953)" fill="#5b8def"/>
      <path id="패스_405" data-name="패스 405" d="M151.728,252.721H137.6a.693.693,0,1,1,0-1.386h14.125a.693.693,0,1,1,0,1.386Z" transform="translate(-71.212 -130.729)" fill="#5b8def"/>
      <path id="패스_406" data-name="패스 406" d="M127.411,289.437H93.065a1.685,1.685,0,1,1,0-3.37h34.347a1.685,1.685,0,1,1,0,3.37Z" transform="translate(-47.53 -148.794)" fill="#e6e6e6"/>
      <path id="b-2282" d="M70.891,329.785c6.834,2.142,13.479.352,14.841-4s-3.073-9.61-9.91-11.752a17.924,17.924,0,0,0-8.439-.667l-29.07-8.709-18.449,13.2,43.714,7.659a17.924,17.924,0,0,0,7.313,4.269Z" transform="translate(-10.332 -158.465)" fill="#ffb6b6"/>
      <path id="패스_407" data-name="패스 407" d="M25.937,164.27a31.549,31.549,0,0,0-13.618,18.913L.215,234.628s-2.27,7.565,7.944,11.348,22.7-12.483,22.7-12.483l-5.7-5.7,11-48.013L25.937,164.27h0Z" transform="translate(0 -85.443)" fill="#5b8def"/>
      <path id="c-2283" d="M94.664,320.592c-7.1.9-13.329-2.03-13.9-6.551s4.719-8.918,11.826-9.821a17.923,17.923,0,0,1,8.424.831l30.15-3.448,15.833,16.245-44.38-.168a17.925,17.925,0,0,1-7.951,2.913Z" transform="translate(-41.984 -156.875)" fill="#ffb6b6"/>
      <path id="패스_408" data-name="패스 408" d="M196.308,164.164a31.55,31.55,0,0,1,10.07,21.018l2.845,52.773s.9,7.847-9.82,9.77-20.14-16.289-20.14-16.289l6.617-4.606-2.359-49.2,12.788-13.465h0Z" transform="translate(-93.242 -85.388)" fill="#5b8def"/>
      <rect id="사각형_133" data-name="사각형 133" width="18.167" height="22.116" transform="translate(42.706 106.472)" fill="#5b8def"/>
      <path id="패스_409" data-name="패스 409" d="M93.864,253.714l-1.248,5.466-.032.142H89.03c.427-1.8.956-4.028,1.2-5.095a4.747,4.747,0,0,1,1.627-2.551,2.757,2.757,0,0,1,.45-.332l1.556,2.37h0Z" transform="translate(-46.308 -130.733)" fill="#e6e6e6"/>
      <path id="패스_410" data-name="패스 410" d="M120.049,259.313h-3.46l-.284-5.932,1.9-2,.055-.055a4.787,4.787,0,0,1,1.532,3.207C119.843,255.538,119.954,257.552,120.049,259.313Z" transform="translate(-60.495 -130.725)" fill="#e6e6e6"/>
      <g id="그룹_33" data-name="그룹 33" transform="translate(46.125 109.141)">
        <rect id="사각형_134" data-name="사각형 134" width="6.222" height="5.9" transform="translate(2.764 5.169) rotate(-6.717)" fill="#2f2e41"/>
        <circle id="타원_57" data-name="타원 57" cx="3.034" cy="3.034" r="3.034" transform="translate(2.751 1.751)" fill="#ffb6b6"/>
        <path id="패스_414" data-name="패스 414" d="M99.906,227.522h0c-1.891.525-1.714,1.23-2.287,1.674a3.248,3.248,0,0,0-.495,3.9c.193.315.569.732.47,1.241a1.286,1.286,0,0,1-.457.7c-.495.392-.192-.041-.4.263-.23.335.233.717.044,1.291-.167.509-.634.523-.658.834-.042.535,1.268,1.447,2.52,1.215a2.706,2.706,0,0,0,2.011-2.181,2.409,2.409,0,0,0-.464-2.106,2.643,2.643,0,0,1-.489-.482c-.165-.215-.383-.5-.3-.721s.422-.157.6-.395c.243-.322-.144-.773-.151-1.278a2.39,2.39,0,0,1,2.356-2.006,2.756,2.756,0,0,1,2.25,1.679,4.423,4.423,0,0,1,.27,1.372,4.926,4.926,0,0,1-.056,2.275c-.337.964-.915.933-1,1.63-.127,1.087,1.18,2.009,1.329,2.112,1.105.76,2.649.846,2.858.42.188-.384-.887-.821-.984-1.936-.084-.966.66-1.352.413-1.993-.272-.706-1.245-.423-1.761-1.2-.482-.722.189-1.233-.113-2.8a4.859,4.859,0,0,0-1.009-2.149,2.506,2.506,0,0,0-1.191-.94,7.392,7.392,0,0,0-3.309-.429h0Z" transform="translate(-96.121 -227.443)" fill="#2f2e41"/>
        <path id="패스_415" data-name="패스 415" d="M101.978,231.467c.156.651,1.185.857,1.617.89a2.4,2.4,0,0,0,1.372-.27,1.754,1.754,0,0,1,.508-.276c.306-.078.477.022.984.1.564.087.846.131.971-.006.2-.224-.046-.849-.364-1.253a2.933,2.933,0,0,0-1.949-.959,3.029,3.029,0,0,0-2.331.383c-.111.082-.967.73-.808,1.391Z" transform="translate(-99.157 -228.574)" fill="#2f2e41"/>
      </g>
      <path id="패스_416" data-name="패스 416" d="M107.2,248.474l-.624,7.851H95.681l-.008-.142-.758-7.5-.008-.087,2.306-1.983.711-.616.482-.411,1.24.127,3.57.355h.008l1.2.727,1.793,1.09.853.513Z" transform="translate(-49.364 -127.737)" fill="#e6e6e6"/>
    </g>
  </g>
</svg>
