<svg xmlns="http://www.w3.org/2000/svg" width="20" height="20" viewBox="0 0 20 20">
  <g id="ic_sentiment_satisfied_24px" transform="translate(-2 -2)">
    <circle id="타원_27" data-name="타원 27" cx="1.5" cy="1.5" r="1.5" transform="translate(14 8)" fill="#01f141"/>
    <circle id="타원_28" data-name="타원 28" cx="1.5" cy="1.5" r="1.5" transform="translate(7 8)" fill="#01f141"/>
    <path id="패스_106" data-name="패스 106" d="M11.99,2A10,10,0,1,0,22,12,10,10,0,0,0,11.99,2ZM12,20a8,8,0,1,1,8-8A8,8,0,0,1,12,20Zm0-4a4,4,0,0,1-3.45-2H6.88a5.495,5.495,0,0,0,10.24,0H15.45A4,4,0,0,1,12,16Z" fill="#01f141"/>
  </g>
</svg>
