<svg xmlns="http://www.w3.org/2000/svg" width="404.066" height="356.846" viewBox="0 0 404.066 356.846">
  <g id="undraw_online_stats_0g94" transform="translate(-71.013)">
    <path id="패스_361" data-name="패스 361" d="M491.315,368.986H120.406c-7.932,0-14.386-6.831-14.386-15.229V306.5H505.7v47.257c0,8.4-6.453,15.229-14.386,15.229Z" transform="translate(-30.621 -75.755)" fill="#e6e6e6"/>
    <rect id="사각형_128" data-name="사각형 128" width="94.586" height="71.52" transform="translate(228.657 285.326)" fill="#e6e6e6"/>
    <rect id="사각형_129" data-name="사각형 129" width="105.965" height="9.034" transform="translate(222.968 347.812)" fill="#e6e6e6"/>
    <path id="패스_362" data-name="패스 362" d="M505.345,250.7H106.02V10.451C106.02,4.688,110.449,0,115.892,0H495.473c5.444,0,9.872,4.688,9.872,10.451V250.7Z" transform="translate(-30.621)" fill="#3f3d56"/>
    <ellipse id="타원_49" data-name="타원 49" cx="2.845" cy="3.011" rx="2.845" ry="3.011" transform="translate(273.106 2.635)" fill="#fff"/>
    <rect id="사각형_130" data-name="사각형 130" width="380.479" height="226.605" transform="translate(84.644 10.916)" fill="#fff"/>
    <ellipse id="타원_50" data-name="타원 50" cx="32.44" cy="34.34" rx="32.44" ry="34.34" transform="translate(388.154 113.439)" fill="#5b8def"/>
    <g id="그룹_28" data-name="그룹 28" transform="translate(71.013 118.248)">
      <path id="패스_364" data-name="패스 364" d="M129.288,189.129l-4.1,15.186,16.4,1.085-1.024-17.9Z" transform="translate(-107.171 -164.59)" fill="#ffb6b6"/>
      <g id="그룹_27" data-name="그룹 27">
        <g id="그룹_25" data-name="그룹 25" transform="translate(29.118 36.356)">
          <path id="uuid-a6c07e27-609a-42c1-9803-308006772003-1113" d="M218.32,266.835c3.891,1.406,7.73.421,8.575-2.2s-1.624-5.885-5.516-7.291a9.755,9.755,0,0,0-4.833-.535l-16.556-5.737-2.378,8.282,16.574,4.777a10.217,10.217,0,0,0,4.135,2.706Z" transform="translate(-157.206 -216.658)" fill="#ffb6b6"/>
          <path id="패스_365" data-name="패스 365" d="M146.971,205.361s-10.263,13.07-4.326,18.478S175.1,249.266,175.1,249.266l10.337,1.7,2.644-10.577-23.341-18.309Z" transform="translate(-140.797 -205.361)" fill="#5b8def"/>
        </g>
        <path id="패스_366" data-name="패스 366" d="M187.716,389.364l5.7,22.376,9.059-1.776-2.013-23.086Z" transform="translate(-125.23 -213.869)" fill="#ffb6b6"/>
        <path id="패스_367" data-name="패스 367" d="M195.17,416.378l-3.355.71-2.684,9.589s4.362,1.776,4.362,5.328,1.678,6.038,8.388,5.683,7.381,0,7.381-2.841-5.033-17.758-5.033-17.758.336-6.038-3.691-5.683-5.368,4.972-5.368,4.972Z" transform="translate(-125.639 -219.927)" fill="#2f2e41"/>
        <path id="패스_368" data-name="패스 368" d="M144.589,389.718l.389,23.172,9.195.611,3.354-22.91Z" transform="translate(-112.774 -214.57)" fill="#ffb6b6"/>
        <path id="패스_369" data-name="패스 369" d="M144.086,417.971l-3.418-.175-4.808,8.61s3.822,2.846,3.006,6.291.239,6.289,6.829,7.672,7.159,1.9,7.813-.855-.8-18.521-.8-18.521,1.713-5.77-2.274-6.462-6.35,3.44-6.35,3.44Z" transform="translate(-110.253 -220.684)" fill="#2f2e41"/>
        <path id="패스_370" data-name="패스 370" d="M140.522,205.253,122.4,203.832l-4.026,5.327s-2.013,35.872-.671,39.423.336,23.8.336,23.8L163.716,269l-10.109-25.749.336-14.917-9.059-18.113-4.362-4.972Z" transform="translate(-104.877 -168.627)" fill="#5b8def"/>
        <path id="패스_371" data-name="패스 371" d="M119.051,284.976s-7.381,11.365-4.7,17.4,20.89,41.1,20.89,41.1L132.9,376.15l16.1-1.421,2.684-35.161L140.523,310.9l2.013-3.2,16.775,21.665,6.039,37.648,16.1-2.131-8.723-55.051-10.195-21.218-43.487-3.643Z" transform="translate(-103.871 -188.682)" fill="#2f2e41"/>
        <ellipse id="타원_51" data-name="타원 51" cx="6.22" cy="6.585" rx="6.22" ry="6.585" transform="translate(7.382 1.707)" fill="#2f2e41"/>
        <ellipse id="타원_52" data-name="타원 52" cx="13.546" cy="14.34" rx="13.546" ry="14.34" transform="translate(14.421 4.022)" fill="#ffb6b6"/>
        <path id="패스_372" data-name="패스 372" d="M128.363,191.152c-1.44.807-5.491-2.157-6.94-6.128-.932-2.555-3.2-2.13-4.646-5.317-.843-1.857,1.674-3.673,1.259-5.278a10.293,10.293,0,0,1,.311-5.83c1.037-2.752,2.566-2.688,3.8-5.891.742-1.929.266-2.154.89-3.141,1.8-2.847,7.026-2.956,10.711-1.609,1.275.466,4.347-2.031,6.84-.222,2.938,2.131,4.892,8.274,4.442,9.4-.273.684-1.794-.013-4.957.513-2.929.487.937,2.8-2.359,3.593-3.9.934-5.071.082-6.151,1.387a5.585,5.585,0,0,0-.311,5.83c.517.823,1.184,1.113,1.1,1.685-.152,1.045-1.029.477-1.317,1.586-.335,1.29,2.441,2.981,2.2,3.371-.049.079-.256.164-2.967-.942-1.082-.442-1.5-.823-1.621-.682-.2.228-1.17,2.518-.064,3.492,1.721,1.516.528,2.118,1.313,3.3.809,1.225-.616.366-1.531.879Z" transform="translate(-104.691 -157.069)" fill="#2f2e41"/>
        <g id="그룹_26" data-name="그룹 26" transform="translate(0 41.243)">
          <path id="uuid-cdcc4a7b-c7e9-4136-bdd1-e7c84b73eb6c-1114" d="M132.925,304.352c2.162,3.7,5.719,5.522,7.944,4.065s2.276-5.638.113-9.341a10.622,10.622,0,0,0-3.412-3.662l-9.347-15.562-6.805,4.8,9.937,14.832A11.323,11.323,0,0,0,132.925,304.352Z" transform="translate(-106.081 -228.659)" fill="#ffb6b6"/>
          <path id="패스_373" data-name="패스 373" d="M114.361,211.852s-15.769,3.2-14.427,11.365,9.813,41.458,9.813,41.458l6.962,8.265,8.388-6.393-7.046-29.834-3.691-24.862Z" transform="translate(-99.853 -211.852)" fill="#5b8def"/>
        </g>
      </g>
    </g>
    <g id="그룹_29" data-name="그룹 29" transform="translate(380.763 131.211)">
      <path id="패스_374" data-name="패스 374" d="M624.48,216.292c-.62-1.107-3.3.078-3.8-.926s2-2.526,3.425-6.01c.257-.628,1.875-4.587.677-5.809-2.271-2.316-12.662,7.24-16.3,4.113-.8-.686-1.356-2.056-3.771-4.281-.961-.885-1.542-1.284-2.1-1.136-.8.211-.861,1.341-1.717,3.564-1.283,3.333-2.042,3.132-2.79,5.792-.555,1.974-.428,3.122-1.081,3.346-.924.316-1.775-1.778-2.946-1.59-1.2.191-1.918,2.63-2.146,4.455-.429,3.426.76,5.686,1.419,8.063.716,2.583,1.141,6.511-.512,12.073l-16.362,48.8c3.612-10.014,14.071-37.464,18.466-47.665,1.269-2.945,2.67-5.932,5.546-7.11,2.769-1.135,6.573-.457,11.421-1.694.566-.144,2.138-.568,2.335-1.546.164-.809-.761-1.26-.619-2.018.191-1.016,2.008-1.029,4.242-2.2a13.306,13.306,0,0,0,3.4-2.655c.254-.255,4.036-4.091,3.21-5.564Z" transform="translate(-547.264 -181.19)" fill="#e6e6e6"/>
      <path id="패스_375" data-name="패스 375" d="M548.244,253.771c-.692,0-.917,1.739-1.525,1.7s-.594-1.768-1.8-3.514c-.217-.315-1.586-2.3-2.5-2.028-1.729.512-.3,8.668-2.8,9.655a26.35,26.35,0,0,0-3.073.724c-.687.244-1.04.431-1.134.766-.132.475.373.834,1.157,1.92,1.175,1.628.863,1.965,1.88,3.12.755.858,1.324,1.123,1.239,1.527-.12.571-1.336.409-1.587,1.072s.666,1.755,1.446,2.4c1.465,1.211,2.856,1.246,4.148,1.589a10.826,10.826,0,0,1,5.45,3.75l17.905,22.581c-3.6-4.766-13.31-18.12-16.771-23.347-1-1.509-1.98-3.1-1.7-4.933.273-1.766,1.684-3.547,2.51-6.423.1-.336.354-1.274-.043-1.66-.328-.318-.8.032-1.114-.261-.416-.392.1-1.34.2-2.839a8.414,8.414,0,0,0-.25-2.533c-.045-.206-.732-3.277-1.654-3.274h0Z" transform="translate(-535.4 -192.979)" fill="#e6e6e6"/>
      <path id="패스_376" data-name="패스 376" d="M572.706,253.77l-.417-3.941.19-.3a7.572,7.572,0,0,0,1.336-4.011c0-.2-.008-.407-.017-.615a6.494,6.494,0,0,1,.422-3.035c.282-.664,1.075-2.2,2.266-2.011a1.323,1.323,0,0,1,.748.386l.084-.141a4.249,4.249,0,0,1,.948-1.1,4.942,4.942,0,0,0,.794-.851c.155-.2.275-.382.377-.533a1.748,1.748,0,0,1,1.421-.988c.758.038,1.156.7,1.419,1.142a9.746,9.746,0,0,1,.824,1.724,3.054,3.054,0,0,0,.139.339c.244.381,2.232.025,2.98-.1,1.682-.3,3.136-.554,3.736.569.43.8.111,1.865-.977,3.24a6.234,6.234,0,0,1-1.019,1.008,1.31,1.31,0,0,1,.6.828h0c.226.955-.549,1.912-2.3,2.848a5.981,5.981,0,0,1-1.845.7,6.856,6.856,0,0,1-1.034.1,1.353,1.353,0,0,1-.152.584,1.8,1.8,0,0,1-1.917.816,14.267,14.267,0,0,1-2.713-.462,6.244,6.244,0,0,0-1.713-.27c-.847.072-1.5.79-2.265,1.72l-1.912,2.365h0Z" transform="translate(-546.054 -189.697)" fill="#e6e6e6"/>
      <path id="패스_377" data-name="패스 377" d="M568.383,223.41l-3.495,1.426-.321-.119a6.529,6.529,0,0,0-4-.351c-.186.051-.37.112-.557.173a5.525,5.525,0,0,1-2.88.337c-.678-.121-2.284-.542-2.413-1.811a1.5,1.5,0,0,1,.163-.864l-.15-.051a4.026,4.026,0,0,1-1.249-.691,4.738,4.738,0,0,0-.979-.6c-.225-.107-.419-.185-.582-.25a1.786,1.786,0,0,1-1.263-1.2,2.029,2.029,0,0,1,.683-1.743,9.151,9.151,0,0,1,1.366-1.281,2.868,2.868,0,0,0,.274-.229c.286-.347-.543-2.291-.852-3.025-.7-1.646-1.3-3.071-.428-3.97.625-.644,1.676-.586,3.209.178a6.044,6.044,0,0,1,1.18.788,1.312,1.312,0,0,1,.6-.823h0c.815-.474,1.887.077,3.187,1.637a6.581,6.581,0,0,1,1.1,1.713,7.974,7.974,0,0,1,.351,1.035,1.16,1.16,0,0,1,.572.007c.626.164,1.049.748,1.232,1.756a16.814,16.814,0,0,1,.266,2.9,7.356,7.356,0,0,0,.188,1.822c.281.849,1.1,1.335,2.146,1.883l2.646,1.357h0Z" transform="translate(-539.797 -182.798)" fill="#e6e6e6"/>
      <path id="패스_378" data-name="패스 378" d="M572.706,207.186l-.417-3.94.19-.3a7.572,7.572,0,0,0,1.336-4.011c0-.2-.008-.407-.017-.615a6.494,6.494,0,0,1,.422-3.035c.282-.664,1.075-2.2,2.266-2.011a1.324,1.324,0,0,1,.748.386l.084-.141a4.249,4.249,0,0,1,.948-1.1,4.941,4.941,0,0,0,.794-.851c.155-.2.275-.382.377-.533a1.748,1.748,0,0,1,1.421-.988c.758.038,1.156.7,1.419,1.142a9.748,9.748,0,0,1,.824,1.724,3.057,3.057,0,0,0,.139.339c.244.381,2.232.025,2.98-.1,1.682-.3,3.136-.554,3.736.569.43.8.111,1.865-.977,3.24a6.236,6.236,0,0,1-1.019,1.008,1.31,1.31,0,0,1,.6.828h0c.226.955-.549,1.912-2.3,2.848a5.98,5.98,0,0,1-1.845.7,6.86,6.86,0,0,1-1.034.1,1.353,1.353,0,0,1-.152.584,1.8,1.8,0,0,1-1.917.816,14.266,14.266,0,0,1-2.713-.462,6.243,6.243,0,0,0-1.713-.27c-.847.072-1.5.79-2.265,1.72l-1.912,2.365h0Z" transform="translate(-546.054 -178.183)" fill="#e6e6e6"/>
      <path id="패스_379" data-name="패스 379" d="M573.919,283.83l-.78-.518-.189-.953.189.953-.909.11c-.014-.089-.064-.295-.138-.616a145.013,145.013,0,0,1-2.683-15.568,167.863,167.863,0,0,1-1.216-18.015c-.084-6.07.187-10.665.4-14.358.164-2.786.364-5.438.56-8.022A158.765,158.765,0,0,0,569.8,206.2a20.036,20.036,0,0,0-2.1-8.535,17.9,17.9,0,0,0-4.4-5.461l1.147-1.526a19.85,19.85,0,0,1,4.865,6.051,21.941,21.941,0,0,1,2.327,9.369,160.305,160.305,0,0,1-.652,20.9c-.194,2.574-.394,5.215-.557,7.989-.216,3.659-.484,8.214-.4,14.205a165.787,165.787,0,0,0,1.2,17.794,142.773,142.773,0,0,0,2.648,15.355c.214.927.259,1.121.039,1.488h0Z" transform="translate(-543.459 -178.34)" fill="#e6e6e6"/>
      <path id="패스_380" data-name="패스 380" d="M555.693,191.251c-.076,0-.152,0-.229-.008-1.567-.089-3.019-1.083-4.315-2.951a14.054,14.054,0,0,1-1.539-3.882,25.534,25.534,0,0,1-.847-4.024,4.165,4.165,0,0,1,.1-2.513,2.875,2.875,0,0,1,1.3-1.254,1.16,1.16,0,0,1,.072-.575c.314-.812,1.148-.706,1.6-.655a4.274,4.274,0,0,0,.821.053,2.229,2.229,0,0,0,1.137-.405,4.96,4.96,0,0,1,1.539-.641,5.2,5.2,0,0,1,2.9.244c1.991.7,2.972,2.34,4.108,4.237a15.316,15.316,0,0,1,1.517,3.665,4.6,4.6,0,0,1,.207,2.432c-.226.93-.761,1.463-2.119,2.639a24.859,24.859,0,0,1-2.741,2.222c-1.423.87-2.316,1.416-3.5,1.416Z" transform="translate(-539.225 -174.288)" fill="#e6e6e6"/>
    </g>
    <g id="그룹_30" data-name="그룹 30" transform="translate(161.076 64.368)">
      <path id="패스_381" data-name="패스 381" d="M381.452,223.422H237.036c-5.814,0-10.543-5.007-10.543-11.161V96.661c0-6.154,4.73-11.161,10.543-11.161H381.452c5.814,0,10.543,5.007,10.543,11.161v115.6c0,6.154-4.73,11.161-10.543,11.161Z" transform="translate(-226.493 -85.5)" fill="#fff"/>
      <path id="패스_382" data-name="패스 382" d="M381.452,223.422H237.036c-5.814,0-10.543-5.007-10.543-11.161V96.661c0-6.154,4.73-11.161,10.543-11.161H381.452c5.814,0,10.543,5.007,10.543,11.161v115.6c0,6.154-4.73,11.161-10.543,11.161ZM237.036,87.364a9.061,9.061,0,0,0-8.783,9.3v115.6a9.061,9.061,0,0,0,8.783,9.3H381.452a9.061,9.061,0,0,0,8.783-9.3V96.661a9.061,9.061,0,0,0-8.783-9.3H237.036Z" transform="translate(-226.493 -85.5)" fill="#3f3d56"/>
      <ellipse id="타원_53" data-name="타원 53" cx="2.641" cy="2.796" rx="2.641" ry="2.796" transform="translate(136.452 8.387)" fill="#3f3d56"/>
      <ellipse id="타원_54" data-name="타원 54" cx="2.641" cy="2.796" rx="2.641" ry="2.796" transform="translate(143.494 8.387)" fill="#3f3d56"/>
      <ellipse id="타원_55" data-name="타원 55" cx="2.641" cy="2.796" rx="2.641" ry="2.796" transform="translate(150.536 8.387)" fill="#3f3d56"/>
      <path id="패스_383" data-name="패스 383" d="M247,160.39a1.362,1.362,0,0,0-1.32,1.4,1.4,1.4,0,0,0,.386.98,1.256,1.256,0,0,0,.934.418H383.451a1.362,1.362,0,0,0,1.32-1.4,1.4,1.4,0,0,0-.386-.98,1.256,1.256,0,0,0-.934-.418Z" transform="translate(-232.034 -104.01)" fill="#e6e6e6"/>
      <path id="패스_384" data-name="패스 384" d="M358.623,159.771V163.5h-111.8a1.676,1.676,0,0,1-1.241-.55,1.876,1.876,0,0,1-.519-1.314,1.82,1.82,0,0,1,1.761-1.864h111.8Z" transform="translate(-231.855 -103.857)" fill="#5b8def"/>
      <path id="패스_385" data-name="패스 385" d="M427.728,148.039H410.122a3.734,3.734,0,0,1,0-7.455h17.607a3.734,3.734,0,0,1,0,7.455Z" transform="translate(-278.512 -99.114)" fill="#e6e6e6"/>
      <path id="패스_386" data-name="패스 386" d="M265.569,122.044H247.963a3.734,3.734,0,0,1,0-7.455h17.607a3.734,3.734,0,0,1,0,7.455Z" transform="translate(-231.677 -92.689)" fill="#e6e6e6"/>
      <path id="패스_387" data-name="패스 387" d="M247,216.094a1.362,1.362,0,0,0-1.32,1.4,1.4,1.4,0,0,0,.386.98,1.256,1.256,0,0,0,.934.418H383.451a1.362,1.362,0,0,0,1.32-1.4,1.4,1.4,0,0,0-.386-.98,1.256,1.256,0,0,0-.934-.418Z" transform="translate(-232.034 -117.777)" fill="#e6e6e6"/>
      <path id="패스_388" data-name="패스 388" d="M290.838,215.475V219.2H246.821a1.676,1.676,0,0,1-1.241-.55,1.876,1.876,0,0,1-.519-1.314,1.82,1.82,0,0,1,1.761-1.864h44.017Z" transform="translate(-231.856 -117.624)" fill="#5b8def"/>
      <path id="패스_389" data-name="패스 389" d="M427.728,203.743H410.122a3.734,3.734,0,0,1,0-7.455h17.607a3.734,3.734,0,0,1,0,7.455Z" transform="translate(-278.512 -112.882)" fill="#e6e6e6"/>
    </g>
  </g>
</svg>
