<svg xmlns="http://www.w3.org/2000/svg" xmlns:xlink="http://www.w3.org/1999/xlink" version="1.1" id="Layer_1" x="0" y="0" width="300" height="70" viewBox="0 0 300 70" xml:space="preserve" enable-background="new 0 0 300 70">
  <path d="M53.15 41.84l-2.31 0.41 0.61-4.69 -0.61-0.92 0.61-5.31 5.93 2.45L53.15 41.84M62.59 55.92h-7.73l7.34-11.73 2.21-7.65 4.62 1.63C68.62 44.08 66.71 50.1 62.59 55.92zM59.88 43.78l-2.92 2.55 -5.83 9.59h-3.82l3.82-6.84 3.02-2.56 4.32-12.35 4.62 1.94L59.88 43.78zM49.93 19.9L34.56 10.82l-5.63-1.02v4.19l4.32 4.08 -6.03-0.51c0 0 0.2 0.31 5.23 5.72l22.91 3.88 4.02 2.65 -10.45 0.51 -4.32 16.02L30.44 55.92h-9.24l3.12-6.23 -0.51-0.2 -8.34 6.43h-2.01l8.54-12.14c0.4-3.47 0.2-1.94 0.7-8.16l-1.31-1.84 -3.42 13.47 -7.13 8.67H9.04l4.22-6.02 5.93-18.47 -1.51 0.72 -2.61 7.35 -1.81 1.02c0 0-4.22 10.41-6.43 15.51C3.62 51.33 0 45 0 33.98 0 17.45 13.96 0 34.96 0c20.2 0 30.95 16.32 32.75 24.8L49.93 19.9zM45.21 55.92h-4.82l8.94-11.32 0.91 1.73L45.21 55.92zM34.76 70c-8.54 0-18.99-3.06-26.52-12.45h52.95C55.06 65.61 44.51 70 34.76 70zM34.96 2.25c-19.69 0-32.55 16.43-32.55 31.73 0 8.77 2.11 13.16 4.42 17.35 2.91-7.96 8.74-23.77 8.74-23.77s2.71-1.43 2.71-1.23l3.92-10.1 2.51-1.32 3.12-6.74 6.83 1.12 13.86 7.86 15.57 4.39C60.08 11.12 48.73 2.25 34.96 2.25z" fill="#095ba6"/>
  <path d="M287.8 57.55v-1.53h0.3c0.65 0 1.36-0.16 1.8-0.51 0.4-0.36 0.66-0.72 0.66-2.55v-25.1c0-0.72 0-2.3-0.76-3.06 -0.45-0.46-1.3-0.67-1.85-0.67h-0.9v-1.53l9.64-0.77v31.13c0 1.68 0.25 2.19 0.65 2.55 0.45 0.35 1.31 0.51 2.26 0.51H300v1.53H287.8M257.31 29.9c-2.11 0-3.82-1.73-3.82-3.88s1.71-3.83 3.82-3.83 3.82 1.69 3.82 3.83S259.42 29.9 257.31 29.9zM278.55 57.55l-0.1-3.88c-0.4 1.99-3.41 4.59-6.78 4.59 -5.27 0-6.93-3.77-6.93-6.17 0-5.66 5.58-7.55 13.26-9.08v-4.03c0-2.75-1.15-4.38-4.72-4.38 -2.41 0-4.47 1.48-4.77 2.35v0.1c0.31-0.46 0.96-0.61 1.46-0.61 1.76 0 2.96 1.02 2.96 2.81 0 1.38-1.4 2.91-3.36 2.91 -1.61 0-3.52-1.07-3.52-3.57 0-3.37 3.87-5.66 8.84-5.66 4.42 0 9.24 1.27 9.24 8.26v11.73c0 1.74 0.25 2.3 0.65 2.61 0.45 0.35 1.06 0.51 1.71 0.51h0.51v1.53H278.55zM251.23 57.55v-1.53h0.75c0.71 0 1.51-0.06 1.96-0.72 0.45-0.66 0.45-2.04 0.45-3.62V38.88c0-1.02 0.1-2.45-0.76-3.16 -0.5-0.46-1.45-0.51-2.36-0.51h-0.5v-1.58h9.8v18.06c0 1.58-0.05 2.96 0.45 3.62 0.45 0.66 1.2 0.72 1.91 0.72h0.95v1.53H251.23zM249.92 55.26c-1 2.15-2.91 3.01-5.78 3.01 -5.07 0-5.92-3.72-5.92-6.68V35.21h-4.22v-1.58h0.4c5.48 0 8.39-7.4 8.39-11.02h1.56v11.02h4.72v1.58h-4.61v17.14c0 1.64 0.2 3.21 1.96 3.21 0.75 0 1.25-0.36 1.6-0.91 0.96-1.38 0.91-4.14 0.91-5.97h1.85C250.77 51.48 250.58 53.83 249.92 55.26zM225.86 57.55V39.75c0-3.52-1.66-3.78-3.01-3.78 -0.95 0-2.06 0.56-2.81 1.79 -0.66 1.12-1.01 3.16-1.01 5.15v8.83c0 2.04-0.1 3.06 0.35 3.57 0.4 0.46 0.96 0.72 2.26 0.72 0 0 0.3 0 0.7 0v1.53h-12.81v-1.53h0.75c1.1 0 1.81-0.26 2.21-0.72 0.45-0.51 0.35-1.53 0.35-3.57V39.44c0-1.58 0.05-2.91-0.4-3.57 -0.5-0.66-1.26-0.71-1.96-0.71h-0.95v-1.53h8.94l0.1 3.73h0.05c0.86-2.25 3.02-4.44 6.63-4.44 5.43 0 6.73 3.01 6.73 8.01v10.87c0 1.99-0.05 2.86 0.4 3.52 0.46 0.66 1.31 0.72 1.96 0.72h0.95v1.53H225.86zM193.46 44.8c0 0-0.15 2.5 0.35 5.41 0.5 2.91 1.71 5.97 5.07 5.97 4.67 0 6.88-4.19 6.88-6.79h1.96c0 3.42-3.27 8.88-9.7 8.88 -7.53 0-11.25-5.4-11.25-12.7 0-7.55 4.87-12.65 11.05-12.65 7.33 0 10.2 5.41 10.2 11.89H193.46zM176.84 57.55l-0.1-3.72c-0.45 1.58-2.71 4.44-6.58 4.44 -7.43 0-9.39-6.89-9.39-12.7 0-5.77 3.42-12.65 10.2-12.65 3.37 0 4.72 1.38 5.23 2.4v-7.44c0-1.33 0-2.3-0.76-3.06 -0.45-0.46-1.15-0.67-2.31-0.67 0 0-0.15 0-0.46 0v-1.53l9.65-0.77v31.13c0 1.68 0.25 2.19 0.66 2.55 0.45 0.35 1.3 0.51 2.21 0.51h0.66v1.53H176.84zM150.72 57.55l-0.1-3.72c0 0-0.05 0.15-0.05 0 -0.6 1.94-3.17 4.44-6.58 4.44 -5.68 0-6.93-3.36-6.93-7.8v-10.31c0-3-0.1-4.13-0.3-4.43 -0.15-0.25-0.4-0.56-1.71-0.56 0 0 0 0-0.35 0v-1.53h8.54v17.5c0 3.82 2.06 3.93 3.06 3.93 1.71 0 3.06-1.53 3.57-3.57 0.3-1.17 0.3-2.5 0.3-3.82v-7.51c0-2.09 0.05-3.82-0.4-4.33 -0.41-0.46-0.95-0.66-2.52-0.66 0 0-0.15 0-0.5 0v-1.53h9.54v18.16c0 1.58 0.1 2.86 0.55 3.52 0.45 0.66 1.16 0.72 1.86 0.72 0 0 0.65 0 0.9 0 0 0.46 0 1.53 0 1.53H150.72zM130.42 38.93c-1.76 0-2.81-1.28-2.81-2.3 0-0.36 0-0.76 0.25-1.33h-0.05c-2.41 2.04-2.96 9.8-2.96 12.8v3.68c0 1.58 0 2.86 0.46 3.52 0.45 0.66 1.6 0.72 2.26 0.72 0 0 2.01 0 2.26 0 0 0.46 0 1.53 0 1.53h-15.87v-1.53c0.5 0 1.51 0 1.51 0 1.61 0 2.41-0.26 2.81-0.92 0.55-0.92 0.45-3.36 0.45-3.36v-9.34c0-3.06-0.1-5.35-0.45-6.17 -0.4-0.87-1-1.07-2.36-1.07h-0.55v-1.53h8.54l0.25 6.12h0.05c0.25-2.96 1.96-6.84 5.87-6.84 2.11 0 3.42 1.02 3.42 3.01C133.49 37.45 132.38 38.98 130.42 38.93zM101.14 42.4h-2.41v10.41c0 1.07 0.1 1.94 0.6 2.5 0.45 0.46 1.26 0.72 2.72 0.72h1.25v1.53H87.38v-1.53c0.7 0 1.41 0 1.41 0 1.2 0 2.21-0.21 2.71-0.62 0.5-0.46 0.75-1.23 0.75-2.6V27.65c0-1.63-0.25-2.75-1.06-3.16 -0.5-0.31-1.45-0.36-2.76-0.36h-1.05v-1.53h13.77c7.03 0 13.11 2.55 13.11 9.95C114.25 39.59 108.27 42.4 101.14 42.4zM278 44.54c-4.47 0.87-6.93 2.04-6.93 6.68 0 2.7 1.36 4.08 2.87 4.08 2.11 0 2.86-1.27 3.31-2.19 0.5-0.92 0.76-2.91 0.76-4.75V44.54zM197.79 34.24c-4.12 0-4.17 6.53-4.27 8.93h8.23C201.8 40.56 201.6 34.24 197.79 34.24zM176.19 42.91c0-2.96-0.4-8.01-4.17-8.01 -4.27 0-4.32 7.25-4.32 10.66 0 2.96 0.2 9.95 4.17 9.95 1.5 0 2.76-0.97 3.36-2.4 0.4-1.02 0.96-2.55 0.96-5.26V42.91zM101.14 24.14h-2.41v16.58h2.42c5.57 0 6.58-4.03 6.58-8.17C107.72 28.42 106.71 24.14 101.14 24.14z" fill="#095ba6"/>
</svg>
