
<svg xmlns="http://www.w3.org/2000/svg" width="1372.014mm" height="200mm" viewBox="0 0 1372.014 200" version="1.1" id="svg8">
  <defs id="defs2">
    <clipPath clipPathUnits="userSpaceOnUse" id="clipPath30">
      <path d="M 0,47.98 H 329.15 V 0 H 0 Z" id="path28"></path>
    </clipPath>
  </defs>
  
  
  <g id="layer1" transform="translate(451.15357,-51.868188)">
    <g id="g18" transform="matrix(4.1683601,0,0,-4.1683601,-451.15524,251.86819)">
      <g id="g20" transform="translate(28.8877,47.9805)">
        <path d="M 0,0 -9.466,-4.753 -18.921,0 -9.466,-17.987 Z" style="fill:#fdbb31;fill-opacity:1;fill-rule:nonzero;stroke:none" id="path22"></path>
      </g>
      <g id="g24">
        <g id="g26" clip-path="url(#clipPath30)">
          <g id="g32" transform="translate(32.1934,34.0791)">
            <path d="m 0,0 -0.145,0.125 6.752,2.838 v 9.489 L -5.123,7.454 c 0,0 -6.354,-12.036 -6.496,-12.311 4.974,-0.594 8.712,-4.768 8.712,-9.793 0,-5.442 -4.425,-9.875 -9.864,-9.875 -5.444,0 -9.867,4.433 -9.867,9.875 0,5.025 3.734,9.195 8.708,9.793 -0.144,0.275 -6.489,12.311 -6.489,12.311 l -11.714,4.998 V 2.963 L -25.39,0.125 -25.534,0 c -4.232,-3.701 -6.659,-9.039 -6.659,-14.65 0,-10.714 8.713,-19.43 19.422,-19.43 10.71,0 19.425,8.716 19.425,19.43 C 6.654,-9.044 4.229,-3.705 0,0" style="fill:#fdbb31;fill-opacity:1;fill-rule:nonzero;stroke:none" id="path34"></path>
          </g>
          <g id="g36" transform="translate(251.3047,30.7637)">
            <path d="m 0,0 c 3.994,-4.54 10.33,-6.763 10.33,-6.763 l 1.883,3.172 C 5.262,-0.556 3.18,5.192 3.18,7.243 v 2.67 C 3.146,10.297 2.996,10.633 2.729,10.92 2.454,11.207 2.113,11.349 1.697,11.349 H -3.182 V 7.243 c 0,-2.051 -2.08,-7.799 -9.032,-10.834 l 1.882,-3.172 c 0,0 6.34,2.223 10.332,6.763" style="fill:#0076c0;fill-opacity:1;fill-rule:nonzero;stroke:none" id="path38"></path>
          </g>
          <path d="m 272.467,32.489 h 3.006 V 22.75 h -3.006 z m 1.26,-14.158 c 1.212,-1.213 2.017,-2.643 2.064,-4.359 0.209,-7.606 -9.038,-7.508 -11.484,-7.508 -2.449,0 -11.63,0.664 -11.553,7.34 0.078,6.759 8.191,6.726 12.994,6.726 h 9.725 1.861 4.5 v 20.524 c -0.033,0.382 -0.184,0.716 -0.455,1.003 -0.27,0.288 -0.613,0.432 -1.027,0.432 h -4.879 v -7.223 h -3.006 v 5.788 c -0.033,0.382 -0.184,0.716 -0.455,1.003 -0.271,0.288 -0.614,0.432 -1.028,0.432 h -4.879 V 22.75 h -4.818 c -7.867,0 -14.784,-1.717 -14.908,-8.987 -0.129,-7.356 9.152,-10.018 18.125,-10.018 8.975,0 17.84,2.33 17.84,10.445 0,1.52 -0.483,2.855 -1.227,4.141 z" style="fill:#0076c0;fill-opacity:1;fill-rule:nonzero;stroke:none" id="path40"></path>
          <path d="m 313.941,35.296 h 8.34 v -3.444 h -8.34 z m -6.369,-7.42 h -11.006 c -0.352,0 -0.625,0.086 -0.816,0.264 -0.191,0.172 -0.288,0.435 -0.288,0.789 v 10.456 h 12.11 z m 20.354,-9.545 h -7.39 c 1.21,-1.213 2.015,-2.643 2.064,-4.359 0.208,-7.606 -9.038,-7.508 -11.487,-7.508 -2.447,0 -11.626,0.664 -11.549,7.34 0.081,6.759 8.19,6.726 12.991,6.726 h 9.726 1.862 4.5 v 20.524 c -0.034,0.382 -0.185,0.716 -0.456,1.003 -0.273,0.288 -0.615,0.432 -1.027,0.432 h -4.879 v -4.418 h -8.34 v 2.559 c 0,0.383 -0.15,0.717 -0.436,1.007 -0.288,0.285 -0.638,0.442 -1.051,0.476 H 289.1 V 28.066 c 0.033,-0.829 0.318,-1.515 0.862,-2.055 0.543,-0.544 1.228,-0.83 2.059,-0.864 h 21.92 v 3.931 h 0.898 3.039 3.015 1.388 V 22.75 h -14.185 c -7.864,0 -14.783,-1.717 -14.907,-8.987 -0.127,-7.356 9.155,-10.018 18.124,-10.018 8.973,0 17.837,2.33 17.837,10.445 0,1.52 -0.482,2.855 -1.224,4.141" style="fill:#0076c0;fill-opacity:1;fill-rule:nonzero;stroke:none" id="path42"></path>
          <g id="g44" transform="translate(188.5713,23.4316)">
            <path d="m 0,0 h -16.804 v 5.198 h 15.993 c 0.28,0 0.49,0.217 0.529,0.535 0.023,0.161 0.125,1.009 -0.01,1.705 -0.053,0.288 -0.255,0.461 -0.533,0.461 h -30.304 c -0.85,0 -1.552,0.675 -1.552,1.488 v 7.4 c 0,0.828 -0.697,1.488 -1.551,1.488 H -38.99 V 7.993 c 0,-1.533 1.315,-2.795 2.942,-2.795 H -23.12 V 0 h -18.545 l 1.793,-2.715 h 5.528 c -2.432,-1.659 -3.884,-3.977 -3.884,-6.964 0,-7.12 8.203,-10.363 18.307,-10.363 10.109,0 18.312,3.243 18.312,10.363 0,1.896 -0.576,3.516 -1.622,4.862 h -7.625 c 1.853,-1.179 2.968,-2.898 2.968,-5.182 0,-4.999 -5.383,-7.28 -12.033,-7.28 -6.65,0 -12.03,2.281 -12.03,7.28 0,4.998 5.305,7.271 12.03,7.271 l -0.088,0.013 H 0.007 c 0.267,0 0.48,0.219 0.517,0.55 0.02,0.158 0.13,0.994 -0.005,1.693 C 0.458,-0.181 0.268,0 0,0" style="fill:#0076c0;fill-opacity:1;fill-rule:nonzero;stroke:none" id="path46"></path>
          </g>
          <g id="g48" transform="translate(227.7617,28.8721)">
            <path d="m 0,0 h -7.512 c 0.168,0.594 0.257,1.228 0.257,1.861 0,0.583 -0.079,1.157 -0.219,1.729 H 0 Z m 0,-21.271 h -22.857 c -0.483,0 -0.872,0.373 -0.872,0.847 v 4.75 H 0 Z M 4.908,13.53 H 0 V 6.361 h -15.305 c 0.331,-0.367 0.621,-0.772 0.862,-1.22 0.543,-0.965 0.871,-2.091 0.871,-3.28 0,-3.682 -2.657,-6.658 -6.564,-6.658 -3.919,0 -6.561,2.976 -6.561,6.658 0,3.639 2.81,6.612 6.478,6.652 h 14.127 c 0.272,0 0.487,0.223 0.526,0.548 0.021,0.162 0.134,1.036 -0.006,1.749 -0.063,0.295 -0.259,0.468 -0.533,0.468 h -10.787 v 1.489 c 0,0.831 -0.709,1.51 -1.596,1.51 h -4.893 v -2.999 h -12.281 c 0.254,-0.358 1.76,-2.661 1.832,-2.765 h 4.633 c -2.373,-1.698 -3.834,-4.052 -3.834,-6.652 0,-5.172 5.191,-9.341 12.895,-9.341 5.182,0 8.983,1.884 11.202,4.71 H 0 v -10.132 h -23.729 v 2.824 c 0,0.853 -0.71,1.523 -1.596,1.523 H -30.2 v -12.621 c 0,-1.572 1.362,-2.865 3.02,-2.865 H 6.509 v 36.048 c 0,0.849 -0.726,1.523 -1.601,1.523" style="fill:#0076c0;fill-opacity:1;fill-rule:nonzero;stroke:none" id="path50"></path>
          </g>
          <g id="g52" transform="translate(138.042,41.46)">
            <path d="M 0,0 H -5.671 V -14.635 H -28.849 V 0 h -5.67 c -1.336,0 -2.435,-1.288 -2.435,-2.884 v -30.943 c 0,-1.588 1.091,-2.89 2.435,-2.89 h 5.67 v 15.72 h 23.178 v -15.72 H 0 c 1.348,0 2.438,1.302 2.438,2.89 V -2.884 C 2.438,-1.288 1.356,0 0,0" style="fill:#0076c0;fill-opacity:1;fill-rule:nonzero;stroke:none" id="path54"></path>
          </g>
          <g id="g56" transform="translate(91.6328,41.46)">
            <path d="M 0,0 H -5.674 V -28.115 L -22.719,-5.656 C -25.552,-2.378 -27.5,0 -32.027,0 h -5.777 v -33.827 c 0,-1.588 1.085,-2.89 2.447,-2.89 h 5.664 v 28.248 l 17.153,-22.305 c 2.901,-3.359 5.477,-5.943 9.678,-5.943 H 2.437 V -2.884 C 2.437,-1.288 1.348,0 0,0" style="fill:#0076c0;fill-opacity:1;fill-rule:nonzero;stroke:none" id="path58"></path>
          </g>
        </g>
      </g>
    </g>
  </g>
</svg>
