<svg xmlns="http://www.w3.org/2000/svg" width="69.238" height="56.471" viewBox="0 0 69.238 56.471">
  <g id="그룹_368" data-name="그룹 368" transform="translate(19730.355 17748.004)">
    <path id="빼기_10" data-name="빼기 10" d="M22.04,44.08a22.189,22.189,0,0,1-4.442-.448,21.915,21.915,0,0,1-7.881-3.316,22.132,22.132,0,0,1-5.953-5.953A21.944,21.944,0,0,1,.447,26.482a22.273,22.273,0,0,1,0-8.883A21.945,21.945,0,0,1,3.764,9.717a22.106,22.106,0,0,1,9.7-7.986A21.91,21.91,0,0,1,17.6.448a22.228,22.228,0,0,1,8.883,0,21.9,21.9,0,0,1,7.881,3.316c.428.289.852.6,1.26.919L32.7,12.372a14.319,14.319,0,1,0,2.871,14.262L44.336,3.366l.723-1.883,0,0h0A30.518,30.518,0,0,1,49.88.97h.151a21.76,21.76,0,0,1,2.944.217c.759.107,1.263.216,1.268.217l15,38.787h0a18.152,18.152,0,0,1-3.016,1.69,38.266,38.266,0,0,1-4.1,1.45l-2.08-5.409L55.975,27.343H43.589l-.6,1.563c-.188.575-.4,1.152-.641,1.712A22.011,22.011,0,0,1,22.04,44.08ZM49.777,11.221,45.7,21.831h8.151L51.8,16.487Z" transform="translate(-19730.355 -17748.004)" fill="#5b8def"/>
    <g id="그룹_52" data-name="그룹 52" transform="translate(-19694.281 -17707.104)">
      <g id="그룹_51" data-name="그룹 51" transform="translate(0 0)">
        <path id="빼기_7" data-name="빼기 7" d="M2.193,5.263A2.013,2.013,0,0,1,.642,4.492,2.9,2.9,0,0,1,0,2.632,2.9,2.9,0,0,1,.642.771,2.013,2.013,0,0,1,2.193,0,2.013,2.013,0,0,1,3.744.771a2.9,2.9,0,0,1,.642,1.861,2.9,2.9,0,0,1-.642,1.861A2.013,2.013,0,0,1,2.193,5.263Zm0-3.18a.578.578,0,0,0-.548.6.578.578,0,0,0,.548.6.578.578,0,0,0,.548-.6A.578.578,0,0,0,2.193,2.083Z" transform="translate(5.702 3.838)" fill="#5b8def"/>
        <path id="빼기_8" data-name="빼기 8" d="M2.193,5.263A2.013,2.013,0,0,1,.642,4.492,2.9,2.9,0,0,1,0,2.632,2.9,2.9,0,0,1,.642.771,2.013,2.013,0,0,1,2.193,0,2.013,2.013,0,0,1,3.744.771a2.9,2.9,0,0,1,.642,1.861,2.9,2.9,0,0,1-.642,1.861A2.013,2.013,0,0,1,2.193,5.263Zm0-3.18a.578.578,0,0,0-.548.6.578.578,0,0,0,.548.6.578.578,0,0,0,.548-.6A.578.578,0,0,0,2.193,2.083Z" transform="translate(14.583 3.838)" fill="#5b8def"/>
        <rect id="사각형_162" data-name="사각형 162" width="4.496" height="2.632" transform="translate(10.088 9.101)" fill="#5b8def"/>
        <path id="빼기_9" data-name="빼기 9" d="M16.787,15.57H7.809L7.8,15.565A6.294,6.294,0,0,1,5.941,15.2a6.636,6.636,0,0,1-1.652-.872,7.583,7.583,0,0,1-2.414-2.966A4.1,4.1,0,0,1,0,7.84,4.378,4.378,0,0,1,.5,5.8,3.821,3.821,0,0,1,1.806,4.358a7.6,7.6,0,0,1,2.472-3.11,6.627,6.627,0,0,1,1.717-.9A6.291,6.291,0,0,1,7.93,0h8.752A6.432,6.432,0,0,1,20.52,1.341a7.351,7.351,0,0,1,1.461,1.487,8,8,0,0,1,1.035,1.9,4,4,0,0,1,.966,1.361,4.456,4.456,0,0,1-.019,3.552,3.974,3.974,0,0,1-1.014,1.377,7.645,7.645,0,0,1-2.455,3.234,6.442,6.442,0,0,1-3.7,1.319l-.005,0ZM7.018,2.741A3.175,3.175,0,0,0,4.459,4.235,6.263,6.263,0,0,0,3.4,7.84a6.263,6.263,0,0,0,1.06,3.605,3.175,3.175,0,0,0,2.559,1.493h10.7l0-.006a3.273,3.273,0,0,0,2.442-1.569,6.321,6.321,0,0,0,1-3.524,6.273,6.273,0,0,0-1.051-3.593,3.19,3.19,0,0,0-2.54-1.506Z" fill="#5b8def"/>
      </g>
    </g>
  </g>
</svg>
