<svg xmlns="http://www.w3.org/2000/svg" width="65.222" height="53.196" viewBox="0 0 65.222 53.196">
  <g id="그룹_375" data-name="그룹 375" transform="translate(19730.355 17748.004)">
    <path id="빼기_10" data-name="빼기 10" d="M20.761,41.523a20.9,20.9,0,0,1-4.184-.422,20.644,20.644,0,0,1-7.424-3.124,20.848,20.848,0,0,1-5.608-5.608A20.671,20.671,0,0,1,.421,24.945a20.981,20.981,0,0,1,0-8.368A20.672,20.672,0,0,1,3.546,9.154,20.824,20.824,0,0,1,12.68,1.631a20.639,20.639,0,0,1,3.9-1.209,20.939,20.939,0,0,1,8.368,0,20.626,20.626,0,0,1,7.424,3.123c.4.273.8.564,1.187.865l-2.751,7.243a13.488,13.488,0,1,0,2.7,13.434L41.764,3.171,42.445,1.4l0,0h0A28.748,28.748,0,0,1,46.987.914h.142a20.5,20.5,0,0,1,2.773.2c.715.1,1.19.2,1.194.2L65.222,37.859h0a17.1,17.1,0,0,1-2.841,1.592,36.047,36.047,0,0,1-3.861,1.365l-1.959-5.1-3.832-9.966H41.06l-.565,1.473c-.177.542-.381,1.085-.6,1.613a20.734,20.734,0,0,1-19.129,12.68ZM46.889,10.57l-3.836,9.994h7.679L48.8,15.53Z" transform="translate(-19730.355 -17748.004)" fill="#b1b1b1"/>
    <g id="그룹_52" data-name="그룹 52" transform="translate(-19696.373 -17709.475)">
      <g id="그룹_51" data-name="그룹 51" transform="translate(0 0)">
        <path id="빼기_7" data-name="빼기 7" d="M2.066,4.958A1.9,1.9,0,0,1,.605,4.232,2.732,2.732,0,0,1,0,2.479,2.732,2.732,0,0,1,.605.726,1.9,1.9,0,0,1,2.066,0,1.9,1.9,0,0,1,3.526.726a2.732,2.732,0,0,1,.605,1.753,2.732,2.732,0,0,1-.605,1.753A1.9,1.9,0,0,1,2.066,4.958Zm0-3a.545.545,0,0,0-.516.568.545.545,0,0,0,.516.568.545.545,0,0,0,.516-.568A.545.545,0,0,0,2.066,1.962Z" transform="translate(5.371 3.615)" fill="#b1b1b1"/>
        <path id="빼기_8" data-name="빼기 8" d="M2.066,4.958A1.9,1.9,0,0,1,.605,4.232,2.732,2.732,0,0,1,0,2.479,2.732,2.732,0,0,1,.605.726,1.9,1.9,0,0,1,2.066,0,1.9,1.9,0,0,1,3.526.726a2.732,2.732,0,0,1,.605,1.753,2.732,2.732,0,0,1-.605,1.753A1.9,1.9,0,0,1,2.066,4.958Zm0-3a.545.545,0,0,0-.516.568.545.545,0,0,0,.516.568.545.545,0,0,0,.516-.568A.545.545,0,0,0,2.066,1.962Z" transform="translate(13.737 3.615)" fill="#b1b1b1"/>
        <rect id="사각형_162" data-name="사각형 162" width="4.235" height="2.479" transform="translate(9.503 8.573)" fill="#b1b1b1"/>
        <path id="빼기_9" data-name="빼기 9" d="M15.813,14.667H7.356l-.012-.005a5.929,5.929,0,0,1-1.748-.34A6.251,6.251,0,0,1,4.04,13.5a7.143,7.143,0,0,1-2.274-2.794A3.858,3.858,0,0,1,0,7.385,4.124,4.124,0,0,1,.47,5.461,3.6,3.6,0,0,1,1.7,4.1a7.157,7.157,0,0,1,2.328-2.93A6.243,6.243,0,0,1,5.647.328,5.926,5.926,0,0,1,7.47,0h8.244A6.059,6.059,0,0,1,19.33,1.263a6.924,6.924,0,0,1,1.377,1.4,7.532,7.532,0,0,1,.975,1.786,3.767,3.767,0,0,1,.91,1.282,4.2,4.2,0,0,1-.018,3.346,3.743,3.743,0,0,1-.955,1.3,7.2,7.2,0,0,1-2.312,3.046,6.069,6.069,0,0,1-3.488,1.243l0,0ZM6.61,2.582A2.991,2.991,0,0,0,4.2,3.989a5.9,5.9,0,0,0-1,3.4,5.9,5.9,0,0,0,1,3.4,2.991,2.991,0,0,0,2.41,1.407H16.685l0-.005a3.084,3.084,0,0,0,2.3-1.478,5.954,5.954,0,0,0,.945-3.32A5.909,5.909,0,0,0,18.945,4a3,3,0,0,0-2.393-1.419Z" fill="#b1b1b1"/>
      </g>
    </g>
  </g>
</svg>
