<svg xmlns="http://www.w3.org/2000/svg" width="116" height="87.99" viewBox="0 0 116 87.99">
  <path id="합치기_5" data-name="합치기 5" d="M41.6,87.933c-.741-.037-1.49-.094-2.228-.169s-1.469-.169-2.194-.28-1.446-.24-2.159-.387-1.422-.311-2.122-.491-1.4-.379-2.081-.593-1.367-.445-2.038-.691-1.336-.51-1.991-.787-1.306-.573-1.943-.881-1.271-.634-1.891-.972-1.236-.693-1.836-1.059-1.2-.751-1.779-1.144-1.158-.806-1.719-1.227-1.118-.86-1.657-1.307-1.075-.911-1.591-1.382S13.338,75.6,12.844,75.1s-.982-1.009-1.452-1.527-.934-1.057-1.379-1.6-.883-1.1-1.3-1.662-.831-1.143-1.223-1.724-.777-1.184-1.14-1.786-.72-1.222-1.056-1.842-.662-1.26-.968-1.9-.6-1.3-.878-1.949-.541-1.328-.785-2-.478-1.36-.689-2.044-.412-1.391-.591-2.088-.345-1.417-.49-2.129S.616,51.417.5,50.7s-.2-1.468-.278-2.2S.095,47,.057,46.259,0,44.748,0,44s.019-1.515.057-2.264.094-1.495.17-2.235S.394,38.022.5,37.3s.24-1.451.386-2.166S1.2,33.7,1.381,33s.378-1.4.591-2.088.444-1.372.689-2.044.508-1.342.785-2,.571-1.309.878-1.949.632-1.276.968-1.9.69-1.239,1.056-1.842.748-1.2,1.14-1.786.8-1.162,1.223-1.724.857-1.121,1.3-1.662.909-1.077,1.379-1.6.958-1.032,1.452-1.527,1.006-.985,1.523-1.457,1.052-.936,1.591-1.382,1.1-.887,1.657-1.307,1.139-.833,1.719-1.226,1.18-.779,1.779-1.145,1.219-.723,1.836-1.059,1.256-.664,1.891-.972,1.291-.6,1.943-.88,1.324-.543,1.991-.788,1.355-.479,2.038-.691,1.385-.413,2.081-.593,1.413-.346,2.122-.491S36.454.617,37.174.507,38.637.3,39.368.227,40.854.095,41.6.058,43.1,0,43.852,0s1.509.019,2.256.058,1.49.094,2.227.169,1.47.169,2.194.28,1.446.24,2.16.387,1.421.311,2.121.491,1.4.379,2.081.593,1.368.446,2.038.691,1.337.51,1.992.788,1.305.572,1.942.88,1.271.634,1.891.972S65.989,6,66.59,6.369s1.2.75,1.779,1.145,1.159.806,1.72,1.226l.1.078-.01,0a6.985,6.985,0,0,1,.531.5c.184.187.363.386.533.591a9.663,9.663,0,0,1,.592.794,7.9,7.9,0,0,1,1.014,2.116c.061.207.113.418.153.625a6.132,6.132,0,0,1,.092.659,5.89,5.89,0,0,1,.019.689,6.046,6.046,0,0,1-.065.719c0,.014,0,.027-.006.04s0,.029-.006.043v0c-.044.3-.083.553-.133.809a7.7,7.7,0,0,1-.2.8c-.091.3-.209.616-.36.977-.16.382-.362.825-.618,1.353a7.728,7.728,0,0,1-.507.87c-.193.29-.421.606-.681.937-.45.577-1,1.213-1.632,1.892-.619.662-1.2,1.237-1.572,1.6-.466.453-.825.781-1.006.939-.6.425-1.113.772-1.521,1.032a4.635,4.635,0,0,1-1.853.474,2.32,2.32,0,0,1-.277-.015,10.579,10.579,0,0,1-1.359-.25c-.374-.094-.757-.209-1.136-.341a11.006,11.006,0,0,1-1.067-.429v.008l-.09-.073c-.583-.47-1.2-.917-1.822-1.329s-1.284-.8-1.95-1.157S53.89,23,53.188,22.712s-1.44-.553-2.174-.777c-.37-.112-.747-.217-1.122-.311s-.762-.181-1.145-.257-.777-.145-1.166-.2-.789-.108-1.183-.147-.8-.069-1.2-.089-.813-.031-1.218-.031-.814.011-1.217.031-.8.05-1.2.089-.793.088-1.184.147-.78.126-1.165.2-.768.163-1.145.257-.753.2-1.123.311c-.733.223-1.465.484-2.174.777s-1.4.617-2.068.973-1.321.743-1.95,1.157-1.238.86-1.822,1.329-1.147.97-1.679,1.491S26.2,28.735,25.724,29.3s-.94,1.167-1.362,1.778-.823,1.255-1.185,1.9-.7,1.334-1,2.02c-.149.345-.292.7-.423,1.049s-.258.714-.373,1.073-.222.731-.319,1.1-.186.745-.264,1.118-.149.759-.209,1.138-.11.77-.15,1.156-.071.783-.091,1.174-.031.793-.031,1.189.011.795.031,1.188.05.785.091,1.174.091.774.15,1.156.13.762.209,1.138.167.75.264,1.118.2.734.319,1.1.24.72.373,1.073.274.7.423,1.049c.3.685.633,1.364,1,2.019s.76,1.291,1.185,1.9.88,1.209,1.362,1.778.994,1.12,1.527,1.641,1.1,1.021,1.679,1.49,1.2.917,1.822,1.329,1.285.8,1.95,1.157,1.366.683,2.068.973,1.44.553,2.174.777c.37.112.748.217,1.123.311s.762.181,1.145.257.776.146,1.165.2.789.108,1.184.147.8.069,1.2.089.813.031,1.217.031.814-.011,1.218-.031.8-.049,1.2-.089.793-.088,1.183-.147.781-.126,1.166-.2.767-.163,1.145-.257.753-.2,1.122-.311c.733-.223,1.465-.484,2.174-.777s1.4-.617,2.068-.973,1.322-.743,1.95-1.157c.444-.292.884-.6,1.309-.928v.02h0c.028-.018.281-.184.652-.389.229-.127.458-.244.681-.348a8.059,8.059,0,0,1,.8-.327c.262-.09.518-.167.758-.229.214-.055.424-.1.624-.134a6.592,6.592,0,0,1,.921-.092h.023a2.97,2.97,0,0,1,.632.1,7.789,7.789,0,0,1,.979.321,8.393,8.393,0,0,1,1.139.556,6.713,6.713,0,0,1,1.113.807,11.639,11.639,0,0,1,1.307,1.361c.351.435.661.887,1.052,1.461h0c.193.283.411.6.664.962.29.413.578.851.857,1.3.223.362.44.732.646,1.1.348.623.544,1.031.552,1.048a5.419,5.419,0,0,1,.332.6c.106.221.2.452.285.683a6.946,6.946,0,0,1,.25.872,7.823,7.823,0,0,1,.145.808c.022.205.023.4.026.726v.016c0,.124,0,.239,0,.331v0c0,.229.007.41,0,.609a6.273,6.273,0,0,1-.075.7,7.032,7.032,0,0,1-.527,1.273,12.788,12.788,0,0,1-.688,1.153c-.235.354-.454.65-.6.836s-.243.31-.254.323l.013,0c-.248.194-.5.387-.745.572-.562.42-1.14.833-1.72,1.227s-1.18.778-1.779,1.144-1.219.723-1.836,1.059-1.256.665-1.891.972-1.291.6-1.942.881-1.325.542-1.992.787-1.355.479-2.038.691-1.385.414-2.081.593-1.413.346-2.121.491-1.44.276-2.16.387-1.463.205-2.194.28-1.486.132-2.227.169-1.506.058-2.256.058S42.342,87.971,41.6,87.933Zm60.822-31.118a11.948,11.948,0,0,1-1.224-.2,11.731,11.731,0,0,1-1.181-.319,11.983,11.983,0,0,1-1.132-.436c-.365-.163-.728-.347-1.077-.546s-.688-.417-1.016-.65-.645-.482-.949-.746-.6-.545-.875-.837-.545-.6-.8-.921-.49-.655-.709-1-.429-.7-.617-1.069-.365-.749-.519-1.133-.3-.789-.414-1.192-.222-.825-.3-1.243-.146-.856-.187-1.287-.064-.884-.064-1.326.022-.888.064-1.326.1-.865.187-1.288.183-.836.3-1.243.258-.8.414-1.191.329-.767.519-1.134.4-.725.617-1.069.459-.679.709-1,.518-.628.8-.921.572-.574.875-.837.623-.515.949-.746.67-.452,1.016-.65.712-.383,1.077-.546a11.983,11.983,0,0,1,1.132-.436,11.785,11.785,0,0,1,7.329,0,12.033,12.033,0,0,1,3.226,1.632c.326.231.645.482.949.746s.6.544.876.837.545.6.795.921.49.655.71,1,.428.7.617,1.069.364.749.519,1.134.3.788.414,1.191.223.825.3,1.243.145.857.186,1.288.064.883.064,1.326-.022.888-.064,1.326-.1.864-.186,1.287-.184.836-.3,1.243-.258.8-.414,1.192-.329.766-.519,1.133-.4.724-.617,1.069-.459.679-.71,1-.518.628-.795.921-.572.574-.876.837-.623.515-.949.746a11.951,11.951,0,0,1-3.226,1.632,11.667,11.667,0,0,1-1.181.319,11.866,11.866,0,0,1-3.743.2ZM97.19,43.857a6.531,6.531,0,1,0,13.02,0,6.531,6.531,0,1,0-13.02,0ZM61.25,56.013c-.437-.572-2.069-4.379-2.085-4.417,0,0-.2-.445-.382-.445H58.39c-1.105,0-4.041-.007-6.225-.007-1.532,0-2.356,0-2.448.008-.31.019-.632.44-.634.445-.2.428-1.9,4.153-2.083,4.417l-.043.063a1.3,1.3,0,0,1-1.154.661c-.184.018-.354.026-.522.026a3.829,3.829,0,0,1-1.953-.508c-.715-.41-1.588-1.063-1.677-1.85a3.069,3.069,0,0,1,.319-1.689c.1-.215,2.555-5.288,4.931-10.193,2.144-4.427,4.169-8.608,4.3-8.887l.086-.183a4.29,4.29,0,0,1,.829-1.334,2.572,2.572,0,0,1,1.989-.9,2.763,2.763,0,0,1,2.085.9,4.167,4.167,0,0,1,.761,1.168c.063.127.123.247.181.348.168.3,5.041,10.487,7.658,15.962l.015.032c.859,1.8,1.426,2.983,1.477,3.085a2.813,2.813,0,0,1,.219,1.5,2.747,2.747,0,0,1-1.615,2.078,4.361,4.361,0,0,1-1.963.584A1.986,1.986,0,0,1,61.25,56.013Zm-8.4-12.051a1.482,1.482,0,1,0,1.326-.82A1.471,1.471,0,0,0,52.85,43.962Zm18.438,12.5a2.117,2.117,0,0,1-1.2-.368,2.154,2.154,0,0,1-.317-.263,2.215,2.215,0,0,1-.261-.319,2.161,2.161,0,0,1-.365-1.205V33.385a2.161,2.161,0,0,1,.365-1.205,2.215,2.215,0,0,1,.261-.319,2.154,2.154,0,0,1,.317-.263,2.117,2.117,0,0,1,1.2-.368h11.2a2.152,2.152,0,0,1,.65.118,4.612,4.612,0,0,1,.772.341,8.461,8.461,0,0,1,1.7,1.256,10.116,10.116,0,0,1,.82.87,9.493,9.493,0,0,1,.731,1,8.239,8.239,0,0,1,.588,1.11,6.778,6.778,0,0,1,.392,1.194,7.272,7.272,0,0,1,.148,2.283,7.8,7.8,0,0,1-.393,1.824c-.08.234-.173.467-.274.691-.081.179-.167.354-.257.518a4.684,4.684,0,0,1-.267.437c.006.009.158.21.366.552.126.206.249.423.365.644.146.277.282.563.405.85a10.619,10.619,0,0,1,.677,2.2,8.849,8.849,0,0,1,.149,1.286c.01.226.01.454,0,.677s-.03.466-.059.694a7.053,7.053,0,0,1-.933,2.624,9.442,9.442,0,0,1-.783,1.136,10.394,10.394,0,0,1-.9.986,10.547,10.547,0,0,1-.943.81,8.434,8.434,0,0,1-.917.61,3.335,3.335,0,0,1-1.47.518Zm3.976-19.3a.206.206,0,0,0-.149.062.209.209,0,0,0-.061.148V50.252a.211.211,0,0,0,.21.211h5.89a.911.911,0,0,0,.16-.028,2.435,2.435,0,0,0,.326-.1,2.514,2.514,0,0,0,.413-.211,2.219,2.219,0,0,0,.422-.349,2.367,2.367,0,0,0,.58-1.829,2.946,2.946,0,0,0-.35-1.292,2.176,2.176,0,0,0-.647-.715,2.286,2.286,0,0,0-.336-.193,2.257,2.257,0,0,0-.289-.112,1.582,1.582,0,0,0-.279-.064H78.971a1,1,0,0,1-.523-.136.915.915,0,0,1-.3-.3,1.2,1.2,0,0,1-.131-.3.918.918,0,0,1-.03-.133V41.757a1.022,1.022,0,0,1,.029-.152,1.43,1.43,0,0,1,.13-.335,1,1,0,0,1,.3-.338.927.927,0,0,1,.527-.159c.172,0,.352,0,.55,0,.244,0,.473,0,.687,0h.066l.495,0c.129,0,.223,0,.3,0h.013a1.234,1.234,0,0,0,.779-.237,1.8,1.8,0,0,0,.456-1.48,2.141,2.141,0,0,0-.535-1.576,1.139,1.139,0,0,0-.222-.159,1.21,1.21,0,0,0-.229-.1,1.628,1.628,0,0,0-.425-.067c-.146-.005-.712-.008-1.682-.008C77.569,37.148,75.287,37.157,75.264,37.157Z" fill="#fff"/>
</svg>
