<svg xmlns="http://www.w3.org/2000/svg" width="1391" height="1047.08" viewBox="0 0 1391 1047.08">
  <path id="합치기_1" data-name="합치기 1" d="M498.782,1046.4c-8.883-.448-17.868-1.129-26.7-2.021-8.765-.886-17.619-2.007-26.317-3.33-8.632-1.313-17.344-2.862-25.895-4.6-8.488-1.73-17.047-3.7-25.44-5.846-8.342-2.137-16.738-4.511-24.953-7.055-8.169-2.53-16.39-5.3-24.433-8.23-7.987-2.911-16.021-6.065-23.879-9.374-7.814-3.29-15.65-6.817-23.293-10.484-7.61-3.651-15.239-7.541-22.673-11.561-7.409-4.008-14.818-8.248-22.021-12.606s-14.367-8.932-21.334-13.618-13.892-9.59-20.617-14.6-13.4-10.23-19.864-15.542-12.884-10.849-19.08-16.456-12.338-11.437-18.263-17.335-11.778-12.012-17.41-18.183-11.2-12.565-16.528-19-10.589-13.091-15.611-19.777-9.962-13.6-14.66-20.526c-4.712-6.943-9.313-14.09-13.677-21.242-4.378-7.173-8.638-14.549-12.662-21.924-4.037-7.4-7.944-14.995-11.613-22.574-3.685-7.614-7.227-15.416-10.53-23.191-3.317-7.807-6.485-15.806-9.416-23.774-2.944-8-5.725-16.189-8.267-24.326-2.558-8.188-4.942-16.547-7.087-24.844-2.157-8.348-4.133-16.87-5.872-25.33-1.75-8.515-3.306-17.189-4.624-25.781-1.328-8.658-2.453-17.474-3.344-26.2-.9-8.794-1.58-17.739-2.03-26.587C.23,541.562,0,532.5,0,523.54S.23,505.518.684,496.6c.451-8.847,1.134-17.793,2.03-26.588.891-8.727,2.016-17.543,3.344-26.2,1.319-8.591,2.875-17.266,4.624-25.781,1.739-8.457,3.714-16.979,5.872-25.33,2.145-8.3,4.529-16.658,7.087-24.844,2.542-8.138,5.323-16.322,8.267-24.326,2.93-7.967,6.1-15.966,9.416-23.774,3.3-7.771,6.844-15.574,10.53-23.191,3.672-7.586,7.579-15.181,11.613-22.574,4.023-7.374,8.284-14.75,12.662-21.924,4.367-7.155,8.968-14.3,13.677-21.242,4.7-6.925,9.631-13.83,14.66-20.526s10.273-13.337,15.611-19.777,10.893-12.824,16.528-19,11.488-12.286,17.41-18.183,12.065-11.726,18.263-17.335,12.614-11.143,19.08-16.455,13.149-10.543,19.864-15.542,13.662-9.919,20.617-14.6,14.147-9.269,21.334-13.618c7.206-4.36,14.615-8.6,22.021-12.605,7.43-4.019,15.058-7.909,22.673-11.562,7.638-3.664,15.475-7.192,23.293-10.484,7.846-3.3,15.88-6.458,23.879-9.374,8.036-2.929,16.257-5.7,24.433-8.23,8.214-2.544,16.609-4.918,24.953-7.055,8.384-2.148,16.943-4.115,25.44-5.846,8.546-1.741,17.258-3.29,25.895-4.6,8.7-1.323,17.55-2.444,26.317-3.329,8.833-.894,17.818-1.574,26.7-2.022C507.742.23,516.846,0,525.842,0s18.1.23,27.059.681c8.884.448,17.869,1.129,26.7,2.022,8.766.886,17.62,2.006,26.316,3.329,8.633,1.313,17.345,2.862,25.895,4.6,8.484,1.728,17.043,3.694,25.441,5.846,8.342,2.137,16.737,4.511,24.953,7.055,8.179,2.533,16.4,5.3,24.433,8.23,8,2.917,16.034,6.07,23.88,9.374,7.817,3.292,15.655,6.819,23.293,10.484,7.608,3.65,15.236,7.54,22.673,11.562,7.4,4,14.813,8.245,22.021,12.605,7.178,4.343,14.357,8.925,21.334,13.618,6.957,4.68,13.893,9.591,20.616,14.6.427.318.835.623,1.247.932l-.121-.025.005,0a83.089,83.089,0,0,1,6.367,5.9c2.193,2.226,4.341,4.591,6.381,7.033a114.053,114.053,0,0,1,7.1,9.441A93.377,93.377,0,0,1,873.6,152.475c.74,2.466,1.36,4.969,1.843,7.438a73.715,73.715,0,0,1,1.1,7.837,70.872,70.872,0,0,1-.554,16.755q-.038.246-.075.489c-.026.172-.052.342-.078.512l0,.019c-.537,3.531-1,6.58-1.6,9.635a89.35,89.35,0,0,1-2.381,9.486c-1.092,3.515-2.5,7.32-4.317,11.631-1.916,4.553-4.339,9.816-7.409,16.091a91.166,91.166,0,0,1-6.077,10.356c-2.307,3.453-5.054,7.208-8.167,11.158-5.4,6.861-11.989,14.432-19.574,22.5-7.416,7.891-14.342,14.716-18.848,19.051-5.594,5.384-9.9,9.3-12.066,11.162-7.217,5.055-13.352,9.19-18.235,12.289-8.378,3.748-15.858,5.648-22.232,5.648a29.6,29.6,0,0,1-3.314-.182,127.315,127.315,0,0,1-16.305-2.985c-4.489-1.115-9.069-2.479-13.613-4.055a134.839,134.839,0,0,1-12.8-5.108v.093c-.33-.266-.691-.557-1.074-.862-6.99-5.589-14.338-10.913-21.839-15.824-7.538-4.934-15.407-9.566-23.39-13.768-8.039-4.231-16.382-8.125-24.8-11.575-8.5-3.481-17.266-6.592-26.064-9.243-4.433-1.336-8.961-2.582-13.462-3.7-4.525-1.129-9.143-2.161-13.726-3.07-4.611-.913-9.311-1.727-13.97-2.416-4.689-.695-9.466-1.283-14.2-1.749-4.759-.468-9.606-.825-14.407-1.061-4.83-.238-9.742-.358-14.6-.358s-9.769.121-14.6.358c-4.8.236-9.648.593-14.407,1.061-4.732.466-9.508,1.054-14.2,1.749-4.659.689-9.36,1.5-13.971,2.416-4.584.909-9.2,1.942-13.725,3.07-4.5,1.121-9.031,2.368-13.462,3.7-8.8,2.652-17.569,5.762-26.064,9.243-8.415,3.449-16.759,7.343-24.8,11.575-7.983,4.2-15.853,8.834-23.39,13.768-7.5,4.912-14.853,10.237-21.84,15.824-6.971,5.575-13.749,11.543-20.146,17.741s-12.559,12.767-18.311,19.52c-5.769,6.772-11.263,13.892-16.331,21.16-5.092,7.3-9.873,14.928-14.21,22.664-4.365,7.785-8.384,15.87-11.946,24.027-1.794,4.11-3.5,8.31-5.08,12.482-1.587,4.2-3.088,8.5-4.46,12.772-1.381,4.3-2.667,8.69-3.823,13.044-1.165,4.388-2.23,8.862-3.167,13.3-.944,4.469-1.783,9.023-2.495,13.537-.716,4.541-1.324,9.169-1.8,13.756-.483,4.618-.852,9.314-1.1,13.959-.245,4.683-.369,9.442-.369,14.145s.124,9.463.369,14.145c.243,4.644.611,9.341,1.1,13.959.481,4.586,1.088,9.214,1.8,13.756.712,4.513,1.551,9.068,2.495,13.535.938,4.443,2,8.917,3.167,13.3,1.156,4.352,2.442,8.74,3.823,13.044,1.372,4.276,2.874,8.573,4.46,12.772,1.577,4.173,3.286,8.374,5.08,12.482,3.559,8.156,7.579,16.24,11.946,24.028,4.337,7.735,9.118,15.36,14.21,22.663,5.067,7.267,10.561,14.386,16.331,21.162,5.754,6.755,11.914,13.322,18.311,19.519s13.172,12.164,20.146,17.741c6.989,5.589,14.337,10.912,21.84,15.824,7.54,4.936,15.41,9.568,23.39,13.768,8.037,4.23,16.381,8.124,24.8,11.575,8.5,3.482,17.267,6.592,26.064,9.243,4.434,1.336,8.964,2.582,13.462,3.7,4.526,1.129,9.144,2.161,13.725,3.07,4.611.914,9.311,1.727,13.971,2.417,4.691.694,9.468,1.282,14.2,1.748,4.766.469,9.613.826,14.407,1.061,4.838.238,9.749.358,14.6.358s9.761-.121,14.6-.358c4.794-.235,9.642-.592,14.407-1.061,4.729-.465,9.506-1.054,14.2-1.748,4.658-.69,9.359-1.5,13.97-2.417,4.584-.909,9.2-1.941,13.726-3.07,4.5-1.123,9.034-2.369,13.462-3.7,8.8-2.651,17.568-5.761,26.064-9.243,8.417-3.45,16.76-7.344,24.8-11.575,7.984-4.2,15.854-8.835,23.39-13.768,5.315-3.479,10.6-7.2,15.7-11.051l0,.239.007-.005c.331-.218,3.365-2.2,7.806-4.634,2.75-1.511,5.5-2.905,8.177-4.144a98.437,98.437,0,0,1,9.613-3.887c3.144-1.069,6.2-1.986,9.091-2.726,2.563-.657,5.079-1.2,7.476-1.6a79.115,79.115,0,0,1,11.04-1.084c.084,0,.176,0,.274,0a35.919,35.919,0,0,1,7.586,1.23,93.913,93.913,0,0,1,11.736,3.824,102,102,0,0,1,13.658,6.616,81.152,81.152,0,0,1,13.35,9.608,139.435,139.435,0,0,1,15.672,16.2c4.207,5.17,7.916,10.557,12.614,17.376l0,0,0,0c2.313,3.358,4.936,7.165,7.966,11.449,3.473,4.91,6.929,10.124,10.273,15.5,2.676,4.3,5.285,8.709,7.757,13.108,4.167,7.415,6.514,12.258,6.612,12.461a65.061,65.061,0,0,1,3.978,7.193,86.245,86.245,0,0,1,3.421,8.125,80.7,80.7,0,0,1,3,10.378,92.744,92.744,0,0,1,1.74,9.617c.259,2.446.281,4.782.318,8.651l0,.192c.014,1.475.04,2.842.06,3.94v.015c.05,2.73.09,4.885-.015,7.258a74.047,74.047,0,0,1-.89,8.355A83.006,83.006,0,0,1,867.68,908.8a151.426,151.426,0,0,1-8.239,13.72c-2.819,4.209-5.44,7.737-7.144,9.955-1.762,2.3-2.92,3.688-3.047,3.839v0l.156-.052c-2.97,2.312-5.979,4.6-8.944,6.81-6.73,5.01-13.666,9.922-20.616,14.6-6.975,4.692-14.153,9.273-21.334,13.618-7.213,4.363-14.621,8.6-22.021,12.606-7.434,4.02-15.062,7.91-22.673,11.561-7.643,3.666-15.479,7.194-23.293,10.484-7.844,3.3-15.88,6.458-23.88,9.374-8.037,2.93-16.258,5.7-24.433,8.23-8.215,2.544-16.61,4.918-24.953,7.055-8.391,2.149-16.95,4.116-25.441,5.846-8.549,1.742-17.261,3.29-25.895,4.6-8.695,1.323-17.549,2.443-26.316,3.33-8.833.893-17.818,1.573-26.7,2.021-8.957.452-18.061.681-27.059.681S507.74,1046.85,498.782,1046.4ZM1228.12,676.093a141.987,141.987,0,0,1-42.411-11.329c-4.383-1.936-8.729-4.122-12.917-6.5-4.159-2.359-8.257-4.959-12.184-7.729-3.908-2.757-7.735-5.746-11.376-8.883s-7.162-6.48-10.493-9.958-6.54-7.166-9.538-10.958-5.866-7.8-8.507-11.879c-2.652-4.1-5.143-8.38-7.4-12.722-2.275-4.372-4.369-8.911-6.223-13.488-1.871-4.62-3.543-9.39-4.969-14.177-1.442-4.84-2.667-9.815-3.641-14.787-.987-5.036-1.741-10.191-2.239-15.321-.506-5.2-.763-10.513-.763-15.776s.257-10.572.763-15.777c.5-5.13,1.252-10.284,2.239-15.321.975-4.972,2.2-9.947,3.641-14.787,1.426-4.787,3.1-9.557,4.969-14.177,1.854-4.577,3.947-9.116,6.223-13.488,2.259-4.342,4.749-8.622,7.4-12.722,2.641-4.081,5.5-8.077,8.507-11.879s6.206-7.479,9.538-10.957,6.862-6.829,10.493-9.958,7.468-6.126,11.376-8.883c3.927-2.769,8.025-5.37,12.184-7.729,4.188-2.375,8.534-4.561,12.917-6.5a142.3,142.3,0,0,1,115.039,0c4.383,1.936,8.729,4.122,12.917,6.5,4.158,2.359,8.257,4.959,12.184,7.729,3.907,2.757,7.734,5.746,11.375,8.883s7.163,6.48,10.494,9.958,6.54,7.166,9.537,10.957,5.867,7.8,8.507,11.879c2.653,4.1,5.144,8.381,7.4,12.722,2.274,4.372,4.368,8.911,6.223,13.488,1.871,4.62,3.543,9.39,4.969,14.177,1.442,4.84,2.667,9.815,3.641,14.787.986,5.036,1.741,10.192,2.239,15.321.506,5.2.763,10.513.763,15.777s-.257,10.571-.763,15.776c-.5,5.129-1.253,10.284-2.239,15.321-.975,4.972-2.2,9.947-3.641,14.787-1.426,4.787-3.1,9.557-4.969,14.177-1.855,4.578-3.948,9.116-6.223,13.488-2.259,4.342-4.749,8.622-7.4,12.722-2.64,4.081-5.5,8.077-8.507,11.879s-6.206,7.479-9.537,10.958-6.862,6.829-10.494,9.958-7.468,6.126-11.375,8.883c-3.927,2.77-8.026,5.37-12.184,7.729-4.188,2.375-8.534,4.561-12.917,6.5a142.729,142.729,0,0,1-72.628,11.329Zm-62.681-154.2c0,46.269,35.021,83.911,78.068,83.911s78.068-37.642,78.068-83.911-35.021-83.911-78.068-83.911S1165.44,475.621,1165.44,521.89ZM741.706,673.337a27.527,27.527,0,0,1-7.235-6.784c-2.734-3.558-9.387-17.661-14.486-28.866-5.537-12.165-10.468-23.586-10.517-23.7-.023-.052-2.359-5.286-4.575-5.286h-.049l-6.072-.01h-.15c-5.224-.01-13.29-.024-22.654-.039-20.674-.031-37.7-.048-50.618-.048-18.26,0-28.078.032-29.182.1-3.713.218-7.568,5.235-7.607,5.286-.227.492-22.719,49.283-24.982,52.566-.17.247-.337.494-.512.756l0,.006a16.95,16.95,0,0,1-4.29,4.792c-2.346,1.667-5.472,2.668-9.555,3.06-2.16.208-4.26.313-6.242.313a48.554,48.554,0,0,1-11.688-1.351,45.287,45.287,0,0,1-11.748-4.706,61.368,61.368,0,0,1-13.421-9.88c-3.976-4.037-6.225-8.121-6.684-12.136a32.508,32.508,0,0,1,.7-11.481,45.758,45.758,0,0,1,3.128-8.621c1.2-2.6,31.355-64.384,60.519-124.139l.059-.123c24.979-51.182,48.574-99.526,50.118-102.782.344-.725.68-1.442,1.005-2.134,2.851-6.077,5.313-11.324,9.954-15.913a40.324,40.324,0,0,1,9.285-7.268,30.022,30.022,0,0,1,14.566-3.431,32.953,32.953,0,0,1,14.96,3.293,40.19,40.19,0,0,1,10.051,7.406c4.218,4.08,6.939,9.526,9.126,13.9.754,1.511,1.468,2.938,2.159,4.144,2.057,3.587,63.736,131.619,93.379,193.147l.015.031c9.488,19.695,15.756,32.706,16.325,33.865a29.528,29.528,0,0,1,2.182,6.73,32.919,32.919,0,0,1,.453,11.11,28.629,28.629,0,0,1-5.049,12.831,39.534,39.534,0,0,1-14.317,11.893,69.877,69.877,0,0,1-13.127,5.378,38.586,38.586,0,0,1-10.413,1.571A23.822,23.822,0,0,1,741.706,673.337ZM640.7,509.285l-12.5,24.878a10,10,0,0,0,8.935,14.49h25a10,10,0,0,0,8.935-14.49l-12.5-24.878a10,10,0,0,0-17.87,0ZM854.842,671.872a25.541,25.541,0,0,1-14.341-4.38,25.723,25.723,0,0,1-9.293-11.284,25.485,25.485,0,0,1-2.016-9.983V397.278a25.519,25.519,0,0,1,4.381-14.34,25.735,25.735,0,0,1,11.285-9.293,25.5,25.5,0,0,1,9.985-2.015H989.132a25.926,25.926,0,0,1,7.791,1.412,55.6,55.6,0,0,1,9.256,4.055,101.192,101.192,0,0,1,20.363,14.955,118.977,118.977,0,0,1,9.837,10.357,111.556,111.556,0,0,1,8.76,11.915,96.41,96.41,0,0,1,7.048,13.2,80.349,80.349,0,0,1,4.7,14.217,86.559,86.559,0,0,1,1.772,27.165,92.4,92.4,0,0,1-4.718,21.711c-.966,2.793-2.07,5.561-3.282,8.228-.969,2.133-2.01,4.208-3.092,6.165a55.834,55.834,0,0,1-3.2,5.212l0,0c.076.1,1.884,2.492,4.395,6.562,1.509,2.449,2.984,5.028,4.381,7.668,1.746,3.3,3.377,6.7,4.847,10.114a125.779,125.779,0,0,1,8.123,26.134,105.691,105.691,0,0,1,1.792,15.3c.113,2.7.114,5.405,0,8.055-.115,2.769-.355,5.549-.715,8.263a83.391,83.391,0,0,1-11.186,31.223,111.938,111.938,0,0,1-9.386,13.522,126.454,126.454,0,0,1-22.09,21.377,101.476,101.476,0,0,1-10.994,7.258c-7.031,3.974-13.287,6.164-17.617,6.164Zm47.677-229.711a2.512,2.512,0,0,0-2.51,2.508V598a2.513,2.513,0,0,0,2.51,2.509h70.637a11.341,11.341,0,0,0,1.925-.334,28.606,28.606,0,0,0,3.905-1.242,29.8,29.8,0,0,0,4.951-2.516A26.411,26.411,0,0,0,989,592.259c5.135-5.44,7.473-12.761,6.95-21.759a34.844,34.844,0,0,0-4.2-15.377,25.841,25.841,0,0,0-7.765-8.5,26.968,26.968,0,0,0-4.017-2.3,27.423,27.423,0,0,0-3.465-1.333,19.869,19.869,0,0,0-3.349-.766h-.028c-1.216,0-7.637.017-14.705.017-4.5,0-8.357-.005-11.462-.017a12.059,12.059,0,0,1-6.272-1.617,10.846,10.846,0,0,1-3.552-3.517,14.023,14.023,0,0,1-1.581-3.51,11.268,11.268,0,0,1-.36-1.595V496.905a13.734,13.734,0,0,1,.346-1.8,16.883,16.883,0,0,1,1.558-3.984,11.714,11.714,0,0,1,3.548-4.015,11.2,11.2,0,0,1,6.313-1.9c2.063-.033,4.223-.049,6.6-.049,2.922,0,5.666.023,8.226.048l.787.008c2.173.021,4.226.04,5.944.04,1.536,0,2.671-.015,3.573-.048l.155-.005c2.3-.084,6.164-.223,9.347-2.826,3.846-3.144,5.687-9.069,5.473-17.614-.219-8.779-2.379-15.089-6.418-18.753a13.774,13.774,0,0,0-2.669-1.9,14.833,14.833,0,0,0-2.754-1.148,19.826,19.826,0,0,0-5.087-.8c-1.757-.068-8.546-.1-20.179-.1C930.164,442.059,902.786,442.159,902.519,442.161Z" fill="#5b8def"/>
</svg>
