<svg xmlns="http://www.w3.org/2000/svg" width="206.971" height="164" viewBox="0 0 206.971 164">
  <g id="그룹_318" data-name="그룹 318" transform="translate(-573.513 -496.031)">
    <g id="undraw_vehicle_sale_a645_1_" data-name="undraw_vehicle_sale_a645 (1)" transform="translate(573.513 549.755)">
      <ellipse id="타원_207" data-name="타원 207" cx="103.486" cy="32.286" rx="103.486" ry="32.286" transform="translate(0 45.704)" fill="#5b8def" opacity="0.1"/>
      <g id="그룹_316" data-name="그룹 316" transform="translate(25.049)" opacity="0.8">
        <path id="패스_947" data-name="패스 947" d="M447.792,188.611c1.754,2.46,3.1,9.625,3.475,11.784l3.136-.064c-.162-1.855-3.81-9.4-4.825-11.47C449.014,188.773,448.412,188.687,447.792,188.611Z" transform="translate(-397.634 -182.036)" fill="#65617d"/>
        <rect id="사각형_708" data-name="사각형 708" width="1.957" height="1.389" transform="translate(10.982 6.931) rotate(-88.918)" fill="#dce0ed"/>
        <path id="패스_948" data-name="패스 948" d="M237.078,179.995l-.012.637a1.061,1.061,0,0,0,.3.046l1.087.011.013-.669Z" transform="translate(-226.059 -175.021)" opacity="0.1"/>
        <path id="패스_949" data-name="패스 949" d="M234.163,153.254l-1.311-.025a1.574,1.574,0,0,0-1.477.955,4.454,4.454,0,0,0,.071,3.951,1.084,1.084,0,0,0,.94.565l1.674.017Z" transform="translate(-221.074 -153.228)" fill="#dce0ed"/>
        <ellipse id="타원_208" data-name="타원 208" cx="2.732" cy="1.405" rx="2.732" ry="1.405" transform="translate(11.581 5.464) rotate(-88.918)" fill="#f0f0f4"/>
        <rect id="사각형_709" data-name="사각형 709" width="1.713" height="1.389" transform="translate(23.325 6.944) rotate(-88.918)" fill="#dce0ed"/>
        <path id="패스_950" data-name="패스 950" d="M303.5,181.374l-.01.545a1.061,1.061,0,0,0,.3.046l1.087.011.011-.576Z" transform="translate(-280.141 -176.144)" opacity="0.1"/>
        <path id="패스_951" data-name="패스 951" d="M300.576,154.633l-1.312-.025a1.574,1.574,0,0,0-1.477.955,4.454,4.454,0,0,0,.071,3.951,1.084,1.084,0,0,0,.94.565l1.674.017Z" transform="translate(-275.148 -154.351)" fill="#dce0ed"/>
        <ellipse id="타원_209" data-name="타원 209" cx="2.732" cy="1.405" rx="2.732" ry="1.405" transform="translate(23.92 5.72) rotate(-88.918)" fill="#f0f0f4"/>
        <path id="패스_952" data-name="패스 952" d="M310.138,160.082s.517.093.234.771a4.725,4.725,0,0,0-.33,1.03s-.523.26-.486-.631A1.331,1.331,0,0,1,310.138,160.082Z" transform="translate(-285.079 -158.807)" fill="#dce0ed"/>
        <ellipse id="타원_210" data-name="타원 210" cx="8.984" cy="8.197" rx="8.984" ry="8.197" transform="translate(68.596 50.133) rotate(-88.918)" fill="#636780"/>
        <path id="패스_953" data-name="패스 953" d="M552.412,329.9c4.283.369,7.607,4.337,7.516,9.11a8.994,8.994,0,0,1-5.468,8.309c-4.283-.369-7.607-4.337-7.516-9.11A8.994,8.994,0,0,1,552.412,329.9Z" transform="translate(-478.363 -297.075)" opacity="0.1"/>
        <ellipse id="타원_211" data-name="타원 211" cx="8.675" cy="6.653" rx="8.675" ry="6.653" transform="translate(6.373 29.01) rotate(-88.918)" fill="#636780"/>
        <path id="패스_954" data-name="패스 954" d="M235.5,218.816c2.739,1.109,4.69,4.473,4.616,8.412-.079,4.21-2.446,7.675-5.512,8.406-2.739-1.109-4.69-4.473-4.616-8.412C230.065,223.013,232.432,219.547,235.5,218.816Z" transform="translate(-220.293 -206.629)" opacity="0.1"/>
        <path id="패스_955" data-name="패스 955" d="M383.21,235.019l-.064-3.151s.643-1.347,1.263-1.458,2.041-.162,2.041-.162,1.026,4.543.259,5.887S383.21,235.019,383.21,235.019Z" transform="translate(-344.999 -215.937)" fill="#65617d"/>
        <path id="패스_956" data-name="패스 956" d="M383.21,235.019l-.064-3.151s.643-1.347,1.263-1.458,2.041-.162,2.041-.162,1.026,4.543.259,5.887S383.21,235.019,383.21,235.019Z" transform="translate(-344.999 -215.937)" opacity="0.1"/>
        <path id="패스_957" data-name="패스 957" d="M407.3,234.213s.465-4.358-1.933-4.482c-.309-.016-.617-.029-.924-.065-1.66-.192-6.188-.628-5.665.418,0,0,1.009,3.817.25,4.76Z" transform="translate(-357.694 -215.255)" fill="#65617d"/>
        <path id="패스_958" data-name="패스 958" d="M243.662,251.359l-3.22.032s-.444-5.937-.62-6.4-.227-2.691.381-3a15.489,15.489,0,0,1,2.63-.668l1.418,3.408.058,3.058Z" transform="translate(-228.207 -224.948)" fill="#65617d"/>
        <path id="패스_959" data-name="패스 959" d="M243.662,251.359l-3.22.032s-.444-5.937-.62-6.4-.227-2.691.381-3a15.489,15.489,0,0,1,2.63-.668l1.418,3.408.058,3.058Z" transform="translate(-228.207 -224.948)" opacity="0.1"/>
        <path id="패스_960" data-name="패스 960" d="M263.98,238.579l.027-.66a.381.381,0,0,0-.389-.4c-1.6.037-7.4.206-8.431.7,0,0,.955,8.286-.309,10.23l.292,6.629,14.235-.8Z" transform="translate(-240.561 -221.861)" fill="#65617d"/>
        <path id="패스_961" data-name="패스 961" d="M304.771,186.491c-.394-.046-.862-.1-1.387-.148l-.015.79,1.389.026Z" transform="translate(-280.044 -180.189)" opacity="0.1"/>
        <path id="패스_962" data-name="패스 962" d="M236.935,187.908l0,.1,1.389.026.011-.6A5.934,5.934,0,0,0,236.935,187.908Z" transform="translate(-225.95 -181.077)" opacity="0.1"/>
        <path id="패스_963" data-name="패스 963" d="M154.434,87.826l2.1.07,4.486-7.8.749-1.3-.493-3.344-.442.8Z" transform="translate(-150.79 -61.431)" fill="#dce0ed"/>
        <path id="패스_964" data-name="패스 964" d="M257.6,71.319l.84,1.313,2.65-3.444L262.3,67.61l-.692-.97-.556.649Z" transform="translate(-234.786 -54.257)" fill="#dce0ed"/>
        <path id="패스_965" data-name="패스 965" d="M319.115,220.518c0,.067-.01.135-.016.2l.051,1.694,1.213-1.578-.692-.97Z" transform="translate(-292.851 -207.486)" opacity="0.1"/>
        <path id="패스_966" data-name="패스 966" d="M188.878,76.249l.186,3.847.749-1.3-.493-3.344Z" transform="translate(-178.835 -61.431)" opacity="0.1"/>
        <path id="패스_967" data-name="패스 967" d="M249.945,194.766s1.183-7.722-2.569-8.951a.852.852,0,0,0-.148-.033c-.866-.121-8.943-1.207-13.168-.178,0,0-2.879.378-2.877,1.922l.909,18.884,2.068.039-.444-12.483s-.885-5.451.758-5.791,9.094-.816,11.7-.026c0,0,1.922-.4,1.524,4.321l.076,2.533Z" transform="translate(-221.27 -179.229)" fill="#dce0ed"/>
        <path id="패스_968" data-name="패스 968" d="M298.025,238.062a1.194,1.194,0,0,1,.506-1.056c.587-.429,2.388-1.344,2.388-1.344l.578.057,1.655,4.339-.288,9.142-3.2,3.807Z" transform="translate(-275.69 -220.346)" fill="#65617d"/>
        <path id="패스_969" data-name="패스 969" d="M298.025,238.062a1.194,1.194,0,0,1,.506-1.056c.587-.429,2.388-1.344,2.388-1.344l.578.057,1.655,4.339-.288,9.142-3.2,3.807Z" transform="translate(-275.69 -220.346)" opacity="0.1"/>
        <path id="패스_970" data-name="패스 970" d="M322.8,243.911l.115-9.385s.347-3.637-1.828-3.74c0,0-5.133-.06-7.376.622a.5.5,0,0,0-.294.714c.429.781,1.139,2.841,1.4,8.094l-.106,5.626Z" transform="translate(-288.174 -216.374)" fill="#65617d"/>
        <path id="패스_971" data-name="패스 971" d="M262.3,152.182l9.342-.041h.009l4.591-.02-.417-6.145-2.548.045-8.137,1.653-2.551,3.843Z" transform="translate(-238.616 -118.854)" fill="#65617d"/>
        <path id="패스_972" data-name="패스 972" d="M262.3,152.182l9.342-.041h.009l4.591-.02-.417-6.145-2.548.045-8.137,1.653-2.551,3.843Z" transform="translate(-238.616 -118.854)" opacity="0.1"/>
        <path id="패스_973" data-name="패스 973" d="M262.3,159.62l9.342-.041.231-4.109-6.732-.359-2.551,3.843Z" transform="translate(-238.616 -126.291)" fill="#65617d"/>
        <path id="패스_974" data-name="패스 974" d="M355.633,305.371l4.591-.02-.417-6.145a4.68,4.68,0,0,1-3.953,2.056Z" transform="translate(-322.597 -272.083)" fill="#fff" opacity="0.1"/>
        <path id="패스_975" data-name="패스 975" d="M177.826,349.455c.152,1.763,1.407,1.509,1.407,1.509l.234-.017,2.317-.167-.041-2.734a10.053,10.053,0,0,0-2.349.1C178.523,348.306,177.758,348.672,177.826,349.455Z" transform="translate(-177.822 -311.826)" fill="#dce0ed"/>
        <path id="패스_976" data-name="패스 976" d="M177.826,350.005c.152,1.763,1.407,1.509,1.407,1.509l.234-.017a2.364,2.364,0,0,0,.394-1.314,2.223,2.223,0,0,0-.467-1.489C178.523,348.857,177.758,349.222,177.826,350.005Z" transform="translate(-177.822 -312.377)" opacity="0.1"/>
        <path id="패스_977" data-name="패스 977" d="M351.612,240.379c-.054,2.855,1.616,5.2,3.73,5.243s3.871-2.243,3.925-5.1-1.616-5.2-3.73-5.243S351.667,237.524,351.612,240.379Zm1.444.367c.039-2.071,1.377-3.726,2.988-3.7s2.885,1.734,2.846,3.805-1.377,3.726-2.988,3.7S353.018,242.817,353.057,240.746Z" transform="translate(-319.323 -220.035)" fill="#636780"/>
        <path id="패스_978" data-name="패스 978" d="M317.359,112.616l-1.824,1.726-.618-1.586,2.622-1.463Z" transform="translate(-281.457 -90.614)" fill="#636780"/>
        <path id="패스_979" data-name="패스 979" d="M306.189,24.424l-1.562.16-.591.676.8,3.961,1.743,6.391L307.72,40l.81,2.666.482,3.517.5,2.421,1.613,1.675,3.417-3.882.573-1.3,1.366-2.66-3.367-1.653-3.72-.4-1.668-4.526L306.4,30.622Z" transform="translate(-272.597 -19.885)" fill="#5b8def"/>
        <path id="패스_980" data-name="패스 980" d="M364.683,118.97,366.4,136.11l-25.63-1.565,3.122-8.34,5-3.117-11.3-.028.027-4.693,4.587-.9,9.212-.567,6.92-.178,6.565,2.286" transform="translate(-299.915 -95.033)" fill="#65617d"/>
        <path id="패스_981" data-name="패스 981" d="M364.683,118.97,366.4,136.11l-25.63-1.565,3.122-8.34,5-3.117-11.3-.028.027-4.693,4.587-.9,9.212-.567,6.92-.178,6.565,2.286" transform="translate(-299.915 -95.033)" opacity="0.1"/>
        <path id="패스_982" data-name="패스 982" d="M336.058,338.186c-.08,4.249,1.258,8.144,5.184,7.795,4.943-.013,5.395-3.344,5.475-7.594s-2.246-7.457-5.19-7.513S336.138,333.936,336.058,338.186Z" transform="translate(-306.656 -297.868)" fill="#636780"/>
        <path id="패스_983" data-name="패스 983" d="M335.892,340.086c.062-3.29,1.542-5.9,3.574-6.887,2.574.54,4.5,3.549,4.431,7.426-.066,3.482-.381,6.348-3.214,7.276C337.061,347.963,335.814,344.19,335.892,340.086Z" transform="translate(-306.521 -299.761)" opacity="0.1"/>
        <path id="패스_984" data-name="패스 984" d="M171.889,148.23l1.474,1.754-2.7-.517-1.992-1.9-1.74-3.65-2.518-1.61-6.262.731-5.785.11-2.1-1.936,2.387-.279,2.412-.009,6.057-.023,7.208-.056,1.4,3.973,1.072,2.733Z" transform="translate(-147.396 -114.677)" fill="#5b8def"/>
        <path id="패스_985" data-name="패스 985" d="M193.151,214.015a37.869,37.869,0,0,0,4.152.882l11.135,2.248,19.2.64,2.289-1.872,1.179.233.048.009,15.754,3.105.258-.032,4.32-.533,22.565-2.783-.19-3.272-.113-1.931-.233-4.009-.2-1.054-2-.221-.935-.1L255.8,203.707l-1.906-.211-1.069-.118-10.407-1.617-15.224.083.027-4.693-5.669-18.634c-1.331.191-1.317,1.087-1.317,1.087l4.794,17.537-.14,10.712c-10.677.875-10.977-1.453-12.678-.7l-1.914-6.551-17.9-.246C191.664,201.2,193.151,214.015,193.151,214.015Z" transform="translate(-189.521 -173.817)" fill="#65617d"/>
        <path id="패스_986" data-name="패스 986" d="M358.223,168.536l-5.91,12.086-1.926.581-.425-1.984,2.258-6.72,2.266-3.879Z" transform="translate(-309.991 -137.222)" fill="#65617d"/>
        <path id="패스_987" data-name="패스 987" d="M358.223,168.536l-5.91,12.086-1.926.581-.425-1.984,2.258-6.72,2.266-3.879Z" transform="translate(-309.991 -137.222)" opacity="0.15"/>
        <ellipse id="타원_212" data-name="타원 212" cx="11.67" cy="10.288" rx="11.67" ry="10.288" transform="translate(41.168 56.285) rotate(-88.918)" fill="#636780"/>
        <path id="패스_988" data-name="패스 988" d="M407.2,335.156c5.376.476,9.544,5.627,9.427,11.827a11.713,11.713,0,0,1-6.87,10.8c-5.376-.476-9.544-5.627-9.427-11.827A11.713,11.713,0,0,1,407.2,335.156Z" transform="translate(-358.989 -301.354)" opacity="0.1"/>
        <path id="패스_989" data-name="패스 989" d="M606.436,287.4l.464,2.41,1.42,7.383,6.711-.522s.424-1.227-.616-1.71c0,0-.266-4.186-1.479-5.525a1.26,1.26,0,0,0-.48-.348Z" transform="translate(-526.803 -262.469)" fill="#65617d"/>
        <path id="패스_990" data-name="패스 990" d="M608.933,298.733l1.42,7.383,6.711-.522s.424-1.227-.616-1.71c0,0-.266-4.186-1.479-5.525Z" transform="translate(-528.836 -271.395)" fill="#fff" opacity="0.1"/>
        <path id="패스_991" data-name="패스 991" d="M407.559,264.973c-.891,1.434.955,14.84.955,14.84l16.5-2.406-.365-11.71c-.3-2.106-1.53-2.375-1.53-2.375-5.748-3.042-19.071-3.912-19.071-3.912a97.612,97.612,0,0,0-23.32,3.6A72.413,72.413,0,0,1,407.559,264.973Z" transform="translate(-343.033 -239.681)" fill="#65617d"/>
        <path id="패스_992" data-name="패스 992" d="M525.016,295.6l16.5-2.406-.365-11.71c-.3-2.106-1.53-2.375-1.53-2.375s-11.986-1.369-15.563,1.651C523.17,282.192,525.016,295.6,525.016,295.6Z" transform="translate(-459.535 -255.467)" opacity="0.1"/>
        <path id="패스_993" data-name="패스 993" d="M535.334,302.417l13.8-2.058-.3-9.99c-.25-1.8-1.279-2.026-1.279-2.026s-10.022-1.165-13.014,1.414C533.795,290.98,535.334,302.417,535.334,302.417Z" transform="translate(-468.099 -263.024)" fill="#65617d"/>
        <ellipse id="타원_213" data-name="타원 213" cx="3.427" cy="1.883" rx="3.427" ry="1.883" transform="translate(66.573 34.594) rotate(-88.918)" opacity="0.1"/>
        <ellipse id="타원_214" data-name="타원 214" cx="3.427" cy="1.883" rx="3.427" ry="1.883" transform="translate(66.575 34.501) rotate(-88.918)" fill="#dce0ed"/>
        <path id="패스_994" data-name="패스 994" d="M541.757,307.022s.769.138.349,1.149a7.043,7.043,0,0,0-.492,1.535s-.779.387-.723-.94A1.982,1.982,0,0,1,541.757,307.022Z" transform="translate(-473.433 -278.447)" fill="#f0f0f4"/>
        <ellipse id="타원_215" data-name="타원 215" cx="3.202" cy="1.76" rx="3.202" ry="1.76" transform="translate(76.82 33.204) rotate(-88.918)" opacity="0.1"/>
        <ellipse id="타원_216" data-name="타원 216" cx="3.202" cy="1.76" rx="3.202" ry="1.76" transform="translate(76.822 33.111) rotate(-88.918)" fill="#dce0ed"/>
        <path id="패스_995" data-name="패스 995" d="M596.223,300.738s.769.138.349,1.149a7.033,7.033,0,0,0-.492,1.535s-.779.387-.723-.94A1.982,1.982,0,0,1,596.223,300.738Z" transform="translate(-517.78 -273.331)" fill="#f0f0f4"/>
        <path id="패스_996" data-name="패스 996" d="M558.551,299.993c.1,1.268.54,10.663.54,10.663l1.051-.155.584-.085.778-.115.094-.014,3.066-.452-.416-9.965a1.248,1.248,0,0,0-1.238-1.2c-.031,0-.062,0-.094,0-.211.015-.44.032-.677.054-.1.009-.2.018-.3.029-.294.03-.6.067-.9.11-.152.023-.3.047-.45.073-.25.045-.492.1-.715.153-.152.039-.3.081-.429.128C558.89,299.415,558.525,299.665,558.551,299.993Z" transform="translate(-487.814 -271.651)" opacity="0.1"/>
        <path id="패스_997" data-name="패스 997" d="M582.559,298.674l.387,11.2.34-.024-.383-11.124A1.253,1.253,0,0,0,582.559,298.674Z" transform="translate(-507.362 -271.65)" fill="#65617d"/>
        <path id="패스_998" data-name="패스 998" d="M576.772,299.009l.347,11.307.525.01-.568-11.346C576.976,298.989,576.875,299,576.772,299.009Z" transform="translate(-502.651 -271.899)" fill="#65617d"/>
        <path id="패스_999" data-name="패스 999" d="M569.528,299.8l.669,11.352.34.006v-.016l-.559-11.416C569.826,299.753,569.676,299.777,569.528,299.8Z" transform="translate(-496.752 -272.51)" fill="#65617d"/>
        <path id="패스_1000" data-name="패스 1000" d="M563.372,301.076l.7,11.276v.021l.587-.051,0-.056-.852-11.319C563.649,300.987,563.5,301.029,563.372,301.076Z" transform="translate(-491.74 -273.501)" fill="#65617d"/>
        <path id="패스_1001" data-name="패스 1001" d="M576.355,322.274s1.245-5.836-1.342-6.186-11.118.114-10.909,2.527.418,6.076.418,6.076l1.767-.36s-1.215-5.535.849-5.7,7.122-.653,7.122-.653,1.37-.206.492,4.618Z" transform="translate(-492.333 -285.745)" opacity="0.1"/>
        <path id="패스_1002" data-name="패스 1002" d="M576.329,323.641s1.252-6.206-1.335-6.556-11.118.114-10.909,2.527.418,6.076.418,6.076l1.767-.36s-1.216-5.535.849-5.7,7.122-.653,7.122-.653,1.363.165.485,4.988Z" transform="translate(-492.317 -286.557)" fill="#dce0ed"/>
        <path id="패스_1003" data-name="패스 1003" d="M382.957,318.77l2.284.012a44.108,44.108,0,0,1,4.639-11.831c.935-.477,11.058-.224,11.058-.224,1.047.205,1.261,3.544,1.261,3.544s-.91.754-.055,1.265a8.559,8.559,0,0,0,3.117.246,24.643,24.643,0,0,0,5.042-.617c1.988-.58.435-1.752.435-1.752a6.134,6.134,0,0,1-.418-2.416,8.236,8.236,0,0,0-1.063-3.384c-.083-.143-.135-.221-.135-.221a1.069,1.069,0,0,0-.357-.233c-2.6-1.142-15.442-.344-15.442-.344l-4.782,1.423c-.133.05-.342.382-.6.912C386.378,308.345,382.957,318.77,382.957,318.77Z" transform="translate(-344.845 -274.802)" fill="#65617d"/>
        <path id="패스_1004" data-name="패스 1004" d="M382.957,318.77l2.284.012a44.108,44.108,0,0,1,4.639-11.831c.935-.477,11.058-.224,11.058-.224,1.047.205,1.261,3.544,1.261,3.544s-.91.754-.055,1.265a8.559,8.559,0,0,0,3.117.246,24.643,24.643,0,0,0,5.042-.617c1.988-.58.435-1.752.435-1.752a6.134,6.134,0,0,1-.418-2.416,8.236,8.236,0,0,0-1.063-3.384c-.083-.143-.135-.221-.135-.221a1.069,1.069,0,0,0-.357-.233c-2.6-1.142-15.442-.344-15.442-.344l-4.782,1.423c-.133.05-.342.382-.6.912C386.378,308.345,382.957,318.77,382.957,318.77Z" transform="translate(-344.845 -274.802)" opacity="0.1"/>
        <path id="패스_1005" data-name="패스 1005" d="M409.78,305.152c4.421-1.622,16.5-.489,16.5-.489,1.305-1.074,3.723-1.1,4.821-1.049-.083-.143-.135-.221-.135-.221a1.068,1.068,0,0,0-.357-.233c-2.6-1.142-15.442-.344-15.442-.344l-4.782,1.423C410.249,304.29,410.04,304.621,409.78,305.152Z" transform="translate(-366.684 -274.802)" fill="#65617d"/>
        <path id="패스_1006" data-name="패스 1006" d="M494.666,307.808c.26.962,1.329,4.812,1.329,4.812a16.258,16.258,0,0,1,.215,1.859,24.641,24.641,0,0,0,5.042-.617c1.988-.58.435-1.752.435-1.752a6.134,6.134,0,0,1-.418-2.416,8.2,8.2,0,0,0-1.2-3.6,1.069,1.069,0,0,0-.357-.233C497.991,306.227,494.47,307.08,494.666,307.808Z" transform="translate(-435.793 -277.497)" fill="#65617d"/>
        <path id="패스_1007" data-name="패스 1007" d="M494.666,307.808c.26.962,1.329,4.812,1.329,4.812a16.258,16.258,0,0,1,.215,1.859,24.641,24.641,0,0,0,5.042-.617c1.988-.58.435-1.752.435-1.752a6.134,6.134,0,0,1-.418-2.416,8.2,8.2,0,0,0-1.2-3.6,1.069,1.069,0,0,0-.357-.233C497.991,306.227,494.47,307.08,494.666,307.808Z" transform="translate(-435.793 -277.497)" fill="#fff" opacity="0.1"/>
        <path id="패스_1008" data-name="패스 1008" d="M350.217,174.942l5.669,18.634,23.64-3.421-3.123-11.2s-.484-2.557-1.708-2.765C374.7,176.192,355.8,172.546,350.217,174.942Zm2.631,2.921c-.763-2.516,10.468-1.261,10.468-1.261a26.929,26.929,0,0,1,5.029.215c.62.076,1.223.162,1.787.251,1.259.2,2.328.409,2.967.542.407.085.64.138.64.138,2.233.737,3.331,10.021,3.331,10.021.167.976-.987.746-.987.746h-.075l-1.052.021-3.136.064-15.291.309c-.9-.11-1.02-1.177-1.02-1.177-.472-.773-2.662-9.87-2.662-9.87Z" transform="translate(-318.187 -170.243)" fill="#65617d"/>
        <path id="패스_1009" data-name="패스 1009" d="M476.289,203.785h.075s1.154.23.987-.746c0,0-1.1-9.284-3.331-10.021,0,0-.233-.054-.64-.138C474.165,194.485,476.678,199.982,476.289,203.785Z" transform="translate(-418.468 -185.51)" fill="#65617d"/>
        <path id="패스_1010" data-name="패스 1010" d="M476.289,203.785h.075s1.154.23.987-.746c0,0-1.1-9.284-3.331-10.021,0,0-.233-.054-.64-.138C474.165,194.485,476.678,199.982,476.289,203.785Z" transform="translate(-418.468 -185.51)" opacity="0.1"/>
        <path id="패스_1011" data-name="패스 1011" d="M474.943,355.981a1.49,1.49,0,0,0,1.381.809l.472-.011,4.454-.108,1.605-.039,1.484-.1,19.625-2.8-.113-1.931-2.256.28-.933.116-13.851,1.715-1.823.226-.884.109-3.735-.1-4.043-.106a1.528,1.528,0,0,0-.6.1,1.453,1.453,0,0,0-.8.73A1.22,1.22,0,0,0,474.943,355.981Z" transform="translate(-419.628 -314.906)" opacity="0.1"/>
        <path id="패스_1012" data-name="패스 1012" d="M474.924,346.827a1.49,1.49,0,0,0,1.381.809l6.531-.158,1.484-.1,20.928-2.992,1.645-.235.9-.128a1.623,1.623,0,0,0,1.275-2.107c-.108-.805-3.119-1.6-4.107-1.59-.664.008-.776,1.029-.778,1.7,0,.328.024.571.024.571l-.979.121-19.14,2.37-7.779-.2a1.5,1.5,0,0,0-1.4.833A1.22,1.22,0,0,0,474.924,346.827Z" transform="translate(-419.612 -305.568)" fill="#dce0ed"/>
        <path id="패스_1013" data-name="패스 1013" d="M635.279,346.456a3.582,3.582,0,0,1-2.152,1.133A2.332,2.332,0,0,1,635.279,346.456Z" transform="translate(-548.535 -310.555)" opacity="0.1"/>
        <path id="패스_1014" data-name="패스 1014" d="M506.775,361.929s2.748-.01,2.72,1.472-1.761,1.7-1.761,1.7L483.1,369.356l-6.978-.008s-2.4-1.991.146-2.807l7.034.318,23.479-3.849S506.183,362.165,506.775,361.929Z" transform="translate(-419.869 -323.153)" opacity="0.1"/>
        <path id="패스_1015" data-name="패스 1015" d="M476.108,370.346l6.978.009,21.9-3.787,1.6-.277,1.127-.195s1.734-.215,1.762-1.7c.02-1.063-1.391-1.358-2.189-1.44-.313-.032-.532-.031-.532-.031-.591.235.011,1.08.011,1.08l-.855.14-22.624,3.709-7.034-.318C473.706,368.355,476.108,370.346,476.108,370.346Z" transform="translate(-419.854 -323.966)" fill="#dce0ed"/>
        <path id="패스_1016" data-name="패스 1016" d="M624.778,352.082l-1.438-.676-.74-.045-.056,6.236,2.293-.42.969-.6.512-2.584a7.027,7.027,0,0,0-.256-1.178C625.97,352.722,624.778,352.082,624.778,352.082Z" transform="translate(-539.918 -314.549)" fill="#dce0ed"/>
        <path id="패스_1017" data-name="패스 1017" d="M624.778,352.082l-1.438-.676-.74-.045-.056,6.236,2.293-.42.969-.6.512-2.584a7.027,7.027,0,0,0-.256-1.178C625.97,352.722,624.778,352.082,624.778,352.082Z" transform="translate(-539.918 -314.549)" opacity="0.1"/>
        <path id="패스_1018" data-name="패스 1018" d="M635.911,366.567l-.027.032,1.611-.279.019-.03a3.911,3.911,0,0,0,.7-3.331c-.313-.032-.532-.031-.532-.031-.591.235.011,1.08.011,1.08l-.855.14A3.905,3.905,0,0,1,635.911,366.567Z" transform="translate(-550.779 -323.966)" opacity="0.1"/>
        <path id="패스_1019" data-name="패스 1019" d="M623.84,349.517q.4.165.747.339a4.913,4.913,0,0,1,2.023,1.669l1.645-.235a5,5,0,0,0-2.369-2.2l-.345.071Z" transform="translate(-540.974 -312.702)" opacity="0.1"/>
        <path id="패스_1020" data-name="패스 1020" d="M624.891,349.076s4.473,1.875,1.8,5.963l-1.611.278s3.248-3.582-2.237-5.817Z" transform="translate(-540.163 -312.688)" fill="#dce0ed"/>
        <path id="패스_1021" data-name="패스 1021" d="M525.537,205.145l-1.666-.093.151,6.7,2.695-.443,1.152-.534.55-1.317.4-1.32-.872-1.221-1.006-.7Z" transform="translate(-451.589 -166.954)" fill="#dce0ed"/>
        <path id="패스_1022" data-name="패스 1022" d="M525.537,205.145l-1.666-.093.151,6.7,2.695-.443,1.152-.534.55-1.317.4-1.32-.872-1.221-1.006-.7Z" transform="translate(-451.589 -166.954)" opacity="0.1"/>
        <ellipse id="타원_217" data-name="타원 217" cx="1.358" cy="0.803" rx="1.358" ry="0.803" transform="translate(73.239 42.995) rotate(-88.918)" fill="#dce0ed"/>
        <path id="패스_1023" data-name="패스 1023" d="M610.72,382.976a.435.435,0,0,1,.207.613,3.06,3.06,0,0,0-.4.89c.031.2-.406.027-.463-.02s-.857-.016-.893-.561a.942.942,0,0,1,.444-.825l-.163-1.2,1.1-.072-.032,1.088Z" transform="translate(-529.033 -339.335)" fill="#636780"/>
        <path id="패스_1024" data-name="패스 1024" d="M610.72,382.976a.435.435,0,0,1,.207.613,3.06,3.06,0,0,0-.4.89c.031.2-.406.027-.463-.02s-.857-.016-.893-.561a.942.942,0,0,1,.444-.825l-.163-1.2,1.1-.072-.032,1.088Z" transform="translate(-529.033 -339.335)" opacity="0.1"/>
        <path id="패스_1025" data-name="패스 1025" d="M614.688,387.96s-.394,1.266-.233,1.316S614.688,387.96,614.688,387.96Z" transform="translate(-533.301 -344.348)" opacity="0.1"/>
        <path id="패스_1026" data-name="패스 1026" d="M612.475,386.3s-.394,1.266-.233,1.316S612.475,386.3,612.475,386.3Z" transform="translate(-531.499 -342.994)" opacity="0.1"/>
        <path id="패스_1027" data-name="패스 1027" d="M590.173,361.083l.545,3.84s.766-.09,1.189-.173a.847.847,0,0,0,.267-.077c.022-.021.067-.018.127-.005h0c.2.046.568.223.642.081a.127.127,0,0,1,.021-.03h0c.074-.077.213-.017.349.006a.3.3,0,0,0,.216-.025c.115-.074.344.053.532.1.119.028.222.025.271-.082a.251.251,0,0,1,.187-.128h0c.179-.041.427-.006.571-.034.057-.01.1-.031.11-.069.029-.083.189-.12.36-.149.207-.036.43-.06.448-.144.005-.028.026-.039.056-.04a1.863,1.863,0,0,1,.336.09h0c.092.025.169.027.193-.039s.132-.062.253-.03c.1.026.205.066.288.087s.128.022.138-.013c.033-.123.429.163.526-.083a3.3,3.3,0,0,0-.2-4.018s-.443.022-.782.077a1.221,1.221,0,0,0-.328.086l0,0a1.9,1.9,0,0,1-.6.057.778.778,0,0,0-.333.072.218.218,0,0,0-.094.1c-.054.117-.173.138-.3.129-.175-.014-.368-.084-.44-.05l-.006,0c-.131.053-.614-.01-.7.069l-.007.007c-.036.051-.225-.007-.418-.037h0a.471.471,0,0,0-.385.053.42.42,0,0,1-.3.083,1.736,1.736,0,0,0-.393.008.156.156,0,0,0-.079.048c-.081.1-.268.079-.436.084a.443.443,0,0,0-.247.057.22.22,0,0,1-.09.035,2.651,2.651,0,0,1-.744-.051Z" transform="translate(-513.562 -321.699)" fill="#636780"/>
        <path id="패스_1028" data-name="패스 1028" d="M624.541,364.507c.1.026.205.066.288.087a3.048,3.048,0,0,0-.32-4.037,1.221,1.221,0,0,0-.328.086A3.739,3.739,0,0,1,624.541,364.507Z" transform="translate(-541.252 -322.036)" opacity="0.1"/>
        <path id="패스_1029" data-name="패스 1029" d="M619.668,365.12a1.867,1.867,0,0,1,.336.09h0a3.05,3.05,0,0,0-.515-3.874.777.777,0,0,0-.333.072A3.623,3.623,0,0,1,619.668,365.12Z" transform="translate(-537.161 -322.669)" opacity="0.1"/>
        <path id="패스_1030" data-name="패스 1030" d="M615,366.571c.057-.01.1-.031.11-.069.029-.083.189-.12.36-.149a3.006,3.006,0,0,0-.4-3.67c-.175-.013-.368-.084-.44-.05l-.007,0A3.744,3.744,0,0,1,615,366.571Z" transform="translate(-533.464 -323.718)" opacity="0.1"/>
        <path id="패스_1031" data-name="패스 1031" d="M609.047,367.041c.119.028.222.025.271-.082a.251.251,0,0,1,.187-.128h0a3.049,3.049,0,0,0-.506-3.9l-.007.007c-.036.051-.225-.007-.418-.037A3.732,3.732,0,0,1,609.047,367.041Z" transform="translate(-528.545 -323.945)" opacity="0.1"/>
        <path id="패스_1032" data-name="패스 1032" d="M603.212,367.528c.074-.077.213-.017.349.006a3.042,3.042,0,0,0-.412-3.931,1.734,1.734,0,0,0-.393.008A3.7,3.7,0,0,1,603.212,367.528Z" transform="translate(-523.807 -324.51)" opacity="0.1"/>
        <path id="패스_1033" data-name="패스 1033" d="M598.424,368.2a.847.847,0,0,0,.267-.077c.022-.021.067-.018.127-.005h0a3,3,0,0,0-.306-3.735.443.443,0,0,0-.247.057.219.219,0,0,1-.09.035A3.79,3.79,0,0,1,598.424,368.2Z" transform="translate(-520.078 -325.153)" opacity="0.1"/>
        <ellipse id="타원_218" data-name="타원 218" cx="7.41" cy="5.032" rx="7.41" ry="5.032" transform="translate(43.198 52.618) rotate(-88.918)" fill="#636780"/>
        <ellipse id="타원_219" data-name="타원 219" cx="6.005" cy="3.658" rx="6.005" ry="3.658" transform="translate(44.766 51.35) rotate(-88.918)" opacity="0.1"/>
        <ellipse id="타원_220" data-name="타원 220" cx="6.005" cy="3.658" rx="6.005" ry="3.658" transform="translate(44.769 51.165) rotate(-88.918)" fill="#f0f0f4"/>
        <ellipse id="타원_221" data-name="타원 221" cx="0.741" cy="0.432" rx="0.741" ry="0.432" transform="translate(47.506 41.922) rotate(-88.918)" fill="#636780"/>
        <ellipse id="타원_222" data-name="타원 222" cx="0.741" cy="0.432" rx="0.741" ry="0.432" transform="translate(45.655 48.372) rotate(-88.918)" fill="#636780"/>
        <ellipse id="타원_223" data-name="타원 223" cx="0.741" cy="0.432" rx="0.741" ry="0.432" transform="translate(50.375 45.373) rotate(-88.918)" fill="#636780"/>
        <ellipse id="타원_224" data-name="타원 224" cx="0.741" cy="0.432" rx="0.741" ry="0.432" transform="translate(49.028 49.671) rotate(-88.918)" fill="#636780"/>
        <path id="패스_1034" data-name="패스 1034" d="M216.44,319.558s-3.793,9.562-3.62,10.168c0,0-1.545.9-1.911.659s.039-4.492.039-4.492l.765-3.737.829-2.208Z" transform="translate(-204.637 -288.654)" fill="#65617d"/>
        <path id="패스_1035" data-name="패스 1035" d="M216.44,319.558s-3.793,9.562-3.62,10.168c0,0-1.545.9-1.911.659s.039-4.492.039-4.492l.765-3.737.829-2.208Z" transform="translate(-204.637 -288.654)" opacity="0.15"/>
        <ellipse id="타원_225" data-name="타원 225" cx="0.741" cy="0.432" rx="0.741" ry="0.432" transform="translate(45.114 44.347) rotate(-88.918)" fill="#636780"/>
        <ellipse id="타원_226" data-name="타원 226" cx="1.76" cy="1.266" rx="1.76" ry="1.266" transform="translate(46.573 47.185) rotate(-88.918)" fill="#636780"/>
        <path id="패스_1036" data-name="패스 1036" d="M218.342,346.393c-.105,5.575,1.651,10.684,6.8,10.226,6.485-.017,7.077-4.387,7.182-9.962s-2.947-9.782-6.808-9.855S218.447,340.819,218.342,346.393Z" transform="translate(-210.81 -302.694)" fill="#636780"/>
        <path id="패스_1037" data-name="패스 1037" d="M218.124,348.885c.082-4.316,2.023-7.741,4.688-9.034,3.377.708,5.909,4.656,5.813,9.742-.086,4.568-.5,8.328-4.216,9.545C219.657,359.219,218.022,354.269,218.124,348.885Z" transform="translate(-210.632 -305.177)" opacity="0.1"/>
        <path id="패스_1038" data-name="패스 1038" d="M203.9,320.355s.911.8,1.431.259c0,0,1.439-9.977,3.014-9.994l5.418.056a2.017,2.017,0,0,1,.9,1.5l3.315,10.037,19.2.64,1.524-3.044-15.882-.254,0-.007c-.08-.309-2.554-9.834-4.316-11.047l0,0a.774.774,0,0,0-.194-.1s-6.6-1-8.792-.444c0,0-2.278.466-2.847,1.151l0,.005c-.076.076-.953,1.028-1.272,3.815Z" transform="translate(-199.053 -279.068)" opacity="0.1"/>
        <path id="패스_1039" data-name="패스 1039" d="M203.879,321.352s.911.8,1.431.259c0,0,1.439-9.977,3.014-9.994l5.418.056a2.017,2.017,0,0,1,.9,1.5l3.315,10.037,19.195.64,1.524-3.044-15.882-.254,0-.007c-.08-.309-2.554-9.834-4.316-11.047l0,0a.774.774,0,0,0-.194-.1s-6.6-1-8.792-.444c0,0-2.278.466-2.847,1.15l0,.005c-.076.076-.953,1.028-1.272,3.815Z" transform="translate(-199.038 -279.88)" fill="#65617d"/>
        <path id="패스_1040" data-name="패스 1040" d="M203.879,321.352s.911.8,1.431.259c0,0,1.439-9.977,3.014-9.994l5.418.056a2.017,2.017,0,0,1,.9,1.5l3.315,10.037,19.195.64,1.524-3.044-15.882-.254,0-.007c-.08-.309-2.554-9.834-4.316-11.047l0,0a.774.774,0,0,0-.194-.1s-6.6-1-8.792-.444c0,0-2.278.466-2.847,1.15l0,.005c-.076.076-.953,1.028-1.272,3.815Z" transform="translate(-199.038 -279.88)" opacity="0.1"/>
        <path id="패스_1041" data-name="패스 1041" d="M268.139,313.772c.446.888,4.224,11.8,4.224,11.8l2.722-1.894,0-.007c-.08-.309-2.557-9.844-4.318-11.049C269.6,312.8,267.835,313.169,268.139,313.772Z" transform="translate(-251.33 -283.005)" fill="#65617d"/>
        <path id="패스_1042" data-name="패스 1042" d="M212.483,292.187l2.041,7.172,11.35-.11-.113,1.063s-8.914,1.129-12.678-.7l-1.914-6.552-17.9-.246,3.426-.738Z" transform="translate(-190.396 -266.276)" fill="#65617d"/>
        <path id="패스_1043" data-name="패스 1043" d="M212.483,292.187l2.041,7.172,11.35-.11-.113,1.063s-8.914,1.129-12.678-.7l-1.914-6.552-17.9-.246,3.426-.738Z" transform="translate(-190.396 -266.276)" fill="#fff" opacity="0.1"/>
        <path id="패스_1044" data-name="패스 1044" d="M570.461,358.349s6.023,3.171,1.462,5.956l-1.209.255s4.474-3.1-2.846-6.26Z" transform="translate(-495.401 -320.199)" opacity="0.1"/>
        <path id="패스_1045" data-name="패스 1045" d="M569.464,358.33s6.023,3.171,1.462,5.956l-1.209.255s4.474-3.1-2.846-6.26Z" transform="translate(-494.589 -320.183)" fill="#dce0ed"/>
        <ellipse id="타원_227" data-name="타원 227" cx="5.789" cy="3.381" rx="5.789" ry="3.381" transform="translate(8.334 50.292) rotate(-88.918)" fill="#636780"/>
        <ellipse id="타원_228" data-name="타원 228" cx="4.691" cy="2.458" rx="4.691" ry="2.458" transform="translate(9.389 49.339) rotate(-88.918)" opacity="0.1"/>
        <ellipse id="타원_229" data-name="타원 229" cx="4.691" cy="2.458" rx="4.691" ry="2.458" transform="translate(9.392 49.154) rotate(-88.918)" fill="#f0f0f4"/>
        <ellipse id="타원_230" data-name="타원 230" cx="0.579" cy="0.29" rx="0.579" ry="0.29" transform="translate(11.25 41.928) rotate(-88.918)" fill="#636780"/>
        <ellipse id="타원_231" data-name="타원 231" cx="0.579" cy="0.29" rx="0.579" ry="0.29" transform="translate(9.993 46.97) rotate(-88.918)" fill="#636780"/>
        <ellipse id="타원_232" data-name="타원 232" cx="0.579" cy="0.29" rx="0.579" ry="0.29" transform="translate(13.17 44.617) rotate(-88.918)" fill="#636780"/>
        <ellipse id="타원_233" data-name="타원 233" cx="0.579" cy="0.29" rx="0.579" ry="0.29" transform="translate(12.256 47.978) rotate(-88.918)" fill="#636780"/>
        <ellipse id="타원_234" data-name="타원 234" cx="0.579" cy="0.29" rx="0.579" ry="0.29" transform="translate(9.638 43.827) rotate(-88.918)" fill="#636780"/>
        <ellipse id="타원_235" data-name="타원 235" cx="1.375" cy="0.85" rx="1.375" ry="0.85" transform="translate(10.613 46.041) rotate(-88.918)" fill="#636780"/>
        <path id="패스_1046" data-name="패스 1046" d="M404.422,259.531a114.651,114.651,0,0,0-23.69,3.582Z" transform="translate(-343.033 -239.78)" opacity="0.1"/>
        <path id="패스_1047" data-name="패스 1047" d="M243.346,157.693s.556.1.252.831a5.092,5.092,0,0,0-.356,1.11s-.564.28-.523-.68A1.434,1.434,0,0,1,243.346,157.693Z" transform="translate(-230.66 -156.862)" fill="#dce0ed"/>
        <path id="패스_1048" data-name="패스 1048" d="M319.533,99.18l.819,3.261,2.823-2.473" transform="translate(-285.215 -80.752)" fill="none" stroke="#000" stroke-miterlimit="10" stroke-width="1"/>
        <rect id="사각형_710" data-name="사각형 710" width="8.467" height="8.321" transform="translate(30.849 20.838) rotate(9.739)" fill="#fff"/>
        <path id="패스_1049" data-name="패스 1049" d="M351.8,278.516l.157-.915a2.676,2.676,0,0,1-1.317-.636l.321-.569a2.837,2.837,0,0,0,1.34.631.966.966,0,0,0,1.23-.7c.085-.5-.215-.866-.838-1.253-.861-.521-1.257-1.017-1.122-1.805a1.46,1.46,0,0,1,1.566-1.232l.157-.915.458.079-.151.878a2.451,2.451,0,0,1,1.123.519l-.329.559a2,2,0,0,0-1.036-.495c-.7-.12-.928.269-.99.632-.081.471.111.746.842,1.207.867.54,1.361,1.11,1.222,1.916a1.6,1.6,0,0,1-1.695,1.294l-.162.942Z" transform="translate(-318.533 -249.215)" fill="#636780"/>
        <path id="패스_1050" data-name="패스 1050" d="M354.943,468.453a.279.279,0,1,0-.269-.279A.279.279,0,0,0,354.943,468.453Z" transform="translate(-321.816 -409.432)" fill="#65617d"/>
      </g>
      <ellipse id="타원_236" data-name="타원 236" cx="3.47" cy="0.587" rx="3.47" ry="0.587" transform="translate(119.878 83.324)" fill="#5b8def" opacity="0.1"/>
      <path id="패스_1051" data-name="패스 1051" d="M694.365,585.5a7.255,7.255,0,0,0,2.576-.486c.6-.425,3.045-.932,3.193-.251s2.975,3.388.74,3.406a18.927,18.927,0,0,1-5.788-.711C694.49,587.1,694.365,585.5,694.365,585.5Z" transform="translate(-573.347 -504.319)" fill="#a8a8a8"/>
      <path id="패스_1052" data-name="패스 1052" d="M700.913,592.612a18.926,18.926,0,0,1-5.788-.711c-.453-.276-.634-1.267-.695-1.724l-.066,0s.125,1.6.721,1.959a18.925,18.925,0,0,0,5.788.711c.645-.005.868-.235.856-.575C701.639,592.48,701.393,592.608,700.913,592.612Z" transform="translate(-573.347 -508.995)" opacity="0.2"/>
      <ellipse id="타원_237" data-name="타원 237" cx="2.67" cy="0.451" rx="2.67" ry="0.451" transform="translate(140.804 76.624)" fill="#5b8def" opacity="0.1"/>
      <path id="패스_1053" data-name="패스 1053" d="M805.583,553.177a5.583,5.583,0,0,0,1.982-.374c.459-.327,2.343-.717,2.457-.193s2.289,2.607.569,2.621a14.565,14.565,0,0,1-4.454-.547C805.68,554.406,805.583,553.177,805.583,553.177Z" transform="translate(-663.902 -478.199)" fill="#a8a8a8"/>
      <path id="패스_1054" data-name="패스 1054" d="M810.622,558.647a14.564,14.564,0,0,1-4.454-.547c-.349-.213-.488-.975-.534-1.327l-.051,0s.1,1.228.555,1.507a14.566,14.566,0,0,0,4.454.547c.5,0,.668-.181.658-.442C811.181,558.545,810.992,558.644,810.622,558.647Z" transform="translate(-663.902 -481.797)" opacity="0.2"/>
      <ellipse id="타원_238" data-name="타원 238" cx="6.374" cy="1.078" rx="6.374" ry="1.078" transform="translate(124.985 104.535)" fill="#5b8def" opacity="0.1"/>
      <path id="패스_1055" data-name="패스 1055" d="M726.986,686.107s3.636-.112,4.732-.892,5.593-1.712,5.865-.461,5.464,6.224,1.359,6.257-9.538-.639-10.632-1.306S726.986,686.107,726.986,686.107Z" transform="translate(-599.907 -585.502)" fill="#a8a8a8"/>
      <path id="패스_1056" data-name="패스 1056" d="M739.016,699.164c-4.105.033-9.538-.639-10.632-1.306-.833-.507-1.165-2.328-1.276-3.168l-.121,0s.23,2.933,1.324,3.6,6.527,1.339,10.632,1.306c1.185-.01,1.594-.431,1.572-1.056C740.35,698.922,739.9,699.157,739.016,699.164Z" transform="translate(-599.908 -594.091)" opacity="0.2"/>
      <path id="패스_1057" data-name="패스 1057" d="M966.818,444.767a16.6,16.6,0,0,1-33.132,1.424c-.024-.27-.042-.539-.05-.813v-.014q-.012-.3-.012-.6a16.6,16.6,0,0,1,33.195,0Z" transform="translate(-768.153 -377.087)" fill="#65617d"/>
      <path id="패스_1058" data-name="패스 1058" d="M966.818,444.767a16.6,16.6,0,0,1-33.132,1.424c-.024-.27-.042-.539-.05-.813v-.014q-.012-.3-.012-.6a16.6,16.6,0,0,1,33.195,0Z" transform="translate(-768.153 -377.087)" opacity="0.2"/>
      <circle id="타원_239" data-name="타원 239" cx="9.053" cy="9.053" r="9.053" transform="translate(173.013 58.627)" fill="#dce0ed"/>
      <circle id="타원_240" data-name="타원 240" cx="5.432" cy="5.432" r="5.432" transform="translate(176.635 62.248)" fill="#65617d"/>
      <path id="패스_1059" data-name="패스 1059" d="M489.906,444.767a16.6,16.6,0,0,1-33.132,1.424c-.024-.27-.042-.539-.05-.813v-.014q-.012-.3-.012-.6a16.6,16.6,0,1,1,33.195,0Z" transform="translate(-379.847 -377.087)" fill="#65617d"/>
      <path id="패스_1060" data-name="패스 1060" d="M489.906,444.767a16.6,16.6,0,0,1-33.132,1.424c-.024-.27-.042-.539-.05-.813v-.014q-.012-.3-.012-.6a16.6,16.6,0,1,1,33.195,0Z" transform="translate(-379.847 -377.087)" opacity="0.2"/>
      <circle id="타원_241" data-name="타원 241" cx="9.053" cy="9.053" r="9.053" transform="translate(84.408 58.627)" fill="#dce0ed"/>
      <circle id="타원_242" data-name="타원 242" cx="5.432" cy="5.432" r="5.432" transform="translate(88.029 62.248)" fill="#65617d"/>
      <path id="패스_1061" data-name="패스 1061" d="M594.5,351.984l-5.538-.241-5.056-9.39-17.818-1.445-8.668,11.316.482,3.13-1.2,2.889-56.583.482v-1.445h-.481l-.482-2.167h4.334l-3.13-3.371-11.076-9.39s-19.021.482-19.262,0,1.083-5.418,1.083-5.418l8.186-2.408,27.93-2.167c6.14-9.751,11.678-14.326,11.678-14.326h71.752l3.371,17.336v.041Z" transform="translate(-390.656 -287.413)" fill="#444053"/>
      <path id="패스_1062" data-name="패스 1062" d="M923.156,448.153s7.223-13.483,12.761-13.483H949.4s3.371,0,4.815,2.649l5.538,10.835H955.42s-3.612-10.113-7.7-10.353-11.076,0-11.076,0a4.665,4.665,0,0,0-3.852,2.889c-1.445,2.889-6.329,9.183-6.329,9.183S921.23,451.524,923.156,448.153Z" transform="translate(-759.284 -382.379)" fill="#33323d"/>
      <path id="패스_1063" data-name="패스 1063" d="M1073.9,342.351h-9.057l-.093,7.223,9.15-2.167Z" transform="translate(-866.929 -278.744)" fill="#33323d"/>
      <path id="패스_1064" data-name="패스 1064" d="M452,444.818a6.845,6.845,0,0,1,3.852-5.056l22.151-1.2s3.612.241,5.538,4.816l6.26,9.39v1.445h-6.983s-3.371-12.761-13-12.28H458.26s-2.649,0-3.612,4.334Z" transform="translate(-376.011 -385.545)" fill="#33323d"/>
      <path id="패스_1065" data-name="패스 1065" d="M731.926,314.2h73.918a2.649,2.649,0,0,0-2.649-2.649H734.575a2.648,2.648,0,0,0-2.649,2.649Z" transform="translate(-603.93 -282.138)" fill="#33323d"/>
      <path id="패스_1066" data-name="패스 1066" d="M721.487,345.291H701.032a1.383,1.383,0,0,1-1.264-1.945l3.237-7.283a6.356,6.356,0,0,1,5.808-3.775h12.428a1.74,1.74,0,0,1,1.74,1.74V343.8A1.5,1.5,0,0,1,721.487,345.291Z" transform="translate(-577.65 -299.02)" fill="#5b8def" opacity="0.3"/>
      <rect id="사각형_711" data-name="사각형 711" width="19.984" height="13.002" rx="5.539" transform="translate(150.629 33.269)" fill="#5b8def" opacity="0.3"/>
      <path id="패스_1067" data-name="패스 1067" d="M954.9,182.141v.041l-31.06.441-.809-17.817h28.5Z" transform="translate(-751.538 -134.184)" fill="#33323d"/>
      <rect id="사각형_712" data-name="사각형 712" width="22.874" height="13.002" rx="5.539" transform="translate(174.948 33.269)" fill="#5b8def" opacity="0.3"/>
      <rect id="사각형_713" data-name="사각형 713" width="7.705" height="1.445" rx="0.722" transform="translate(139.072 50.846)" fill="#33323d"/>
      <rect id="사각형_714" data-name="사각형 714" width="7.705" height="1.445" rx="0.722" transform="translate(161.224 50.846)" fill="#33323d"/>
      <rect id="사각형_715" data-name="사각형 715" width="8.916" height="8.762" transform="translate(176.826 31.831)" fill="#fff"/>
      <path id="패스_1068" data-name="패스 1068" d="M1009.893,334.7v-.977a2.818,2.818,0,0,1-1.48-.426l.232-.648a2.988,2.988,0,0,0,1.5.416c.687,0,1.151-.4,1.151-.948,0-.532-.377-.861-1.093-1.151-.987-.387-1.486-.832-1.486-1.674a1.537,1.537,0,0,1,1.406-1.558v-.977h.49v.938a2.581,2.581,0,0,1,1.258.339l-.242.638a2.1,2.1,0,0,0-1.164-.329c-.745,0-.915.445-.915.832,0,.5.248.755,1.089,1.1,1,.406,1.61.909,1.61,1.77a1.683,1.683,0,0,1-1.529,1.645V334.7Z" transform="translate(-829.048 -294.514)" fill="#636780"/>
      <path id="패스_1069" data-name="패스 1069" d="M374.8,475.847c-1.151,1.252-2,1.744-1.959.424.121-3.995-6.9-22.057-6.9-22.057l2.076-.157A53.845,53.845,0,0,1,374.8,475.847Z" transform="translate(-305.945 -398.164)" fill="none"/>
      <path id="패스_1070" data-name="패스 1070" d="M379.384,574.486a9.987,9.987,0,0,1-19.937.857c-.015-.162-.025-.324-.03-.489v-.008q-.007-.18-.007-.36a9.987,9.987,0,0,1,19.974,0Z" transform="translate(-300.624 -488.087)" fill="#65617d"/>
      <circle id="타원_243" data-name="타원 243" cx="5.448" cy="5.448" r="5.448" transform="translate(63.326 80.951)" fill="#dce0ed"/>
      <circle id="타원_244" data-name="타원 244" cx="3.269" cy="3.269" r="3.269" transform="translate(65.505 83.13)" fill="#65617d"/>
      <path id="패스_1071" data-name="패스 1071" d="M166.6,484l-24.049.484v-3.551c.215-2.853,3.141-3.854,5.812-4.168a16.679,16.679,0,0,1,6.214.466,42.644,42.644,0,0,0,9.954,1.638,1.527,1.527,0,0,1,1.477,1.242c.076.406.151.847.222,1.283.053.341.1.678.15.991C166.514,483.3,166.6,484,166.6,484Z" transform="translate(-124.057 -416.568)" fill="#65617d"/>
      <path id="패스_1072" data-name="패스 1072" d="M147.783,485.209H97.824A1.967,1.967,0,0,1,96,484.031a1.367,1.367,0,0,1,.712-1.81,5.66,5.66,0,0,0,2.46-3.009,29.907,29.907,0,0,0,1.258-7.883c.211-3.979,1.651-5.946,3.208-6.9h0a6.352,6.352,0,0,1,4.215-.769l20.256.162a3.893,3.893,0,0,1,.989.645c1.8,1.68-.827,3.874-.827,3.874a9.5,9.5,0,0,0-1.373,12.025h10.365A9.538,9.538,0,0,0,142.7,478.7a5.424,5.424,0,0,0,2.152-2.471c.16-.433.322-.866.516-1.284,2.719-5.9-.56-15.489-1.976-19.076-.351-.892-.587-1.413-.587-1.413l3.25-.246,2.056-.156h.021a53.845,53.845,0,0,1,6.78,21.79c.053.56.1,1.1.132,1.626a7.265,7.265,0,0,1-7.257,7.735Z" transform="translate(-86.051 -398.165)" fill="#5b8def"/>
      <path id="패스_1073" data-name="패스 1073" d="M166.382,503.141H142.553v-.991h23.679C166.285,502.491,166.336,502.827,166.382,503.141Z" transform="translate(-124.057 -437.322)" opacity="0.1"/>
      <path id="패스_1074" data-name="패스 1074" d="M163.133,506.182H137.864a.478.478,0,0,1-.191-.039,6.352,6.352,0,0,1,4.215-.769l20.256.162A3.9,3.9,0,0,1,163.133,506.182Z" transform="translate(-120.083 -439.879)" opacity="0.1"/>
      <rect id="사각형_716" data-name="사각형 716" width="35.312" height="0.991" rx="0.495" transform="translate(8.444 65.07)" fill="#dce0ed"/>
      <path id="패스_1075" data-name="패스 1075" d="M374.8,475.847c-1.151,1.252-2,1.744-1.959.424.121-3.995-6.9-22.057-6.9-22.057l2.076-.157A53.845,53.845,0,0,1,374.8,475.847Z" transform="translate(-305.945 -398.164)" opacity="0.1"/>
      <path id="패스_1076" data-name="패스 1076" d="M379.357,573.392c-1.192.286-2.667.576-4.485.843q-1.013.149-2.174.286c-1.856.22-4,.413-6.481.561q-1.053.064-2.187.115-2.125.1-4.548.148l-.03-.489v-.008c2.258-.912,5.81-3.344,6.382-9.679a9.992,9.992,0,0,1,13.524,8.225Z" transform="translate(-300.656 -488.088)" opacity="0.1"/>
      <path id="패스_1077" data-name="패스 1077" d="M349.318,539.726s11.464-1.242,7.518-18.711c0,0,5.665,5.193,9.188,8.079s9.8,6.865,9.8,6.865S372.077,539.464,349.318,539.726Z" transform="translate(-292.407 -452.682)" fill="#5b8def"/>
      <path id="패스_1078" data-name="패스 1078" d="M349.318,539.726s11.464-1.242,7.518-18.711c0,0,5.665,5.193,9.188,8.079s9.8,6.865,9.8,6.865S372.077,539.464,349.318,539.726Z" transform="translate(-292.407 -452.682)" fill="#fff" opacity="0.1"/>
      <circle id="타원_245" data-name="타원 245" cx="9.987" cy="9.987" r="9.987" transform="translate(16.296 76.412)" fill="#65617d"/>
      <circle id="타원_246" data-name="타원 246" cx="5.448" cy="5.448" r="5.448" transform="translate(20.836 80.951)" fill="#dce0ed"/>
      <circle id="타원_247" data-name="타원 247" cx="3.269" cy="3.269" r="3.269" transform="translate(23.015 83.13)" fill="#65617d"/>
      <path id="패스_1079" data-name="패스 1079" d="M144.472,550.933a11.442,11.442,0,1,0-22.88,0c0,.272.01.542.028.809h22.824C144.462,551.475,144.472,551.2,144.472,550.933Z" transform="translate(-106.99 -467.533)" opacity="0.1"/>
      <path id="패스_1080" data-name="패스 1080" d="M145.9,551.745a11.019,11.019,0,1,0-22.032,0c0,.262.01.522.027.779h21.979C145.9,552.266,145.9,552.007,145.9,551.745Z" transform="translate(-108.847 -468.546)" fill="#5b8def"/>
      <path id="패스_1081" data-name="패스 1081" d="M145.9,551.746c0,.18,0,.36-.013.538,0,.081-.008.161-.013.242H123.9c0-.081-.01-.161-.013-.242-.008-.178-.013-.357-.013-.538a11.018,11.018,0,1,1,22.032,0Z" transform="translate(-108.847 -468.548)" fill="#fff" opacity="0.1"/>
      <path id="패스_1082" data-name="패스 1082" d="M145.95,603.919c0,.081-.008.161-.013.242H123.958c0-.081-.01-.161-.013-.242Z" transform="translate(-108.906 -520.183)" opacity="0.1"/>
      <ellipse id="타원_248" data-name="타원 248" cx="1.45" cy="3.651" rx="1.45" ry="3.651" transform="matrix(0.911, -0.412, 0.412, 0.911, 62.559, 61.074)" opacity="0.1"/>
      <ellipse id="타원_249" data-name="타원 249" cx="1.45" cy="3.651" rx="1.45" ry="3.651" transform="matrix(0.911, -0.412, 0.412, 0.911, 62.68, 60.953)" fill="#dce0ed"/>
      <path id="패스_1083" data-name="패스 1083" d="M353.756,454.063v1.9h-3.692a6.366,6.366,0,0,1-1.027-.082c-.351-.892-.587-1.413-.587-1.413l3.25-.246Z" transform="translate(-291.701 -398.169)" opacity="0.1"/>
      <path id="패스_1084" data-name="패스 1084" d="M335.1,413.271h-3.692a5.659,5.659,0,0,1-5.871-5.419v-.5a5.659,5.659,0,0,1,5.871-5.419l3.692.335Z" transform="translate(-273.042 -355.722)" fill="#5b8def"/>
      <path id="패스_1085" data-name="패스 1085" d="M326.894,418.668s2.209,1.18.938,3.178c0,0-1.559,2.557-4.01,2.315l-.893-5.493A18.56,18.56,0,0,1,326.894,418.668Z" transform="translate(-270.921 -369.251)" fill="#5b8def"/>
      <path id="패스_1086" data-name="패스 1086" d="M326.045,418.592a2.349,2.349,0,0,1,1.794.947,1.935,1.935,0,0,1-.008,2.338s-1.559,2.557-4.01,2.315l-.893-5.493A27.311,27.311,0,0,1,326.045,418.592Z" transform="translate(-270.92 -369.282)" opacity="0.1"/>
      <path id="패스_1087" data-name="패스 1087" d="M333.358,250.506h0a2.966,2.966,0,0,1,2.966,2.966v5.073a2.966,2.966,0,0,1-2.966,2.966h0V250.506Z" transform="translate(-271.423 -203.963)" opacity="0.1"/>
      <path id="패스_1088" data-name="패스 1088" d="M334.009,250.506h0a2.966,2.966,0,0,1,2.966,2.966v5.073a2.966,2.966,0,0,1-2.966,2.966h0Z" transform="translate(-271.953 -203.963)" fill="#dce0ed"/>
      <ellipse id="타원_250" data-name="타원 250" cx="2.453" cy="2.984" rx="2.453" ry="2.984" transform="translate(49.3 49.289)" fill="#5b8def"/>
      <path id="패스_1089" data-name="패스 1089" d="M137.953,355.6l1.072,2.387,1.791-2.387" transform="translate(-112.323 -289.529)" fill="none" stroke="#000" stroke-miterlimit="10" stroke-width="1"/>
      <rect id="사각형_717" data-name="사각형 717" width="8.74" height="8.589" transform="translate(22.24 68.555)" fill="#fff"/>
      <path id="패스_1090" data-name="패스 1090" d="M177.548,532.157V531.2a2.762,2.762,0,0,1-1.451-.417l.228-.635a2.927,2.927,0,0,0,1.474.408c.673,0,1.129-.389,1.129-.929,0-.522-.37-.844-1.072-1.129-.967-.379-1.457-.816-1.457-1.641a1.507,1.507,0,0,1,1.378-1.527v-.958h.48v.92a2.529,2.529,0,0,1,1.233.332l-.237.626a2.06,2.06,0,0,0-1.141-.322c-.73,0-.9.436-.9.816,0,.493.243.74,1.068,1.081.977.4,1.578.891,1.578,1.735a1.65,1.65,0,0,1-1.5,1.612v.986Z" transform="translate(-151.369 -455.415)" fill="#636780"/>
      <rect id="사각형_718" data-name="사각형 718" width="0.745" height="20.102" transform="translate(9.679 45.991)" fill="#dce0ed"/>
      <path id="패스_1091" data-name="패스 1091" d="M52.475,400a39.245,39.245,0,0,0-5.76.557,13.757,13.757,0,0,1-3.716.186v5.2s3.158-.743,4.831-.186,5.2-.743,5.2-.743Z" transform="translate(-43 -354.151)" fill="#dce0ed"/>
    </g>
    <g id="그룹_317" data-name="그룹 317" transform="translate(655.769 496.031)" opacity="0.61">
      <circle id="타원_158" data-name="타원 158" cx="21.229" cy="21.229" r="21.229" transform="translate(0 0)" fill="#ccc"/>
      <g id="그룹_290" data-name="그룹 290" transform="translate(7.322 10.419)">
        <path id="패스_746" data-name="패스 746" d="M322.849,291.737h-2.792a10.818,10.818,0,0,0-19.006-5.079q-.02.022-.037.045a.9.9,0,0,0,1.427,1.1,9.014,9.014,0,0,1,15.783,3.933h-2.462a.451.451,0,0,0-.346.739l3.544,4.254a.441.441,0,0,0,.057.057.451.451,0,0,0,.635-.057l3.543-4.254a.451.451,0,0,0-.346-.739Z" transform="translate(-295.485 -282.729)" fill="#fff"/>
        <path id="패스_747" data-name="패스 747" d="M302.736,319.882a.9.9,0,0,0-1.264.163,9.016,9.016,0,0,1-15.784-3.933h2.462a.451.451,0,0,0,.346-.739l-3.543-4.254a.451.451,0,0,0-.692,0l-3.544,4.254a.451.451,0,0,0,.346.739h2.792a10.818,10.818,0,0,0,19.006,5.079l.037-.045a.9.9,0,0,0-.163-1.264h0Z" transform="translate(-280.613 -303.499)" fill="#fff"/>
      </g>
    </g>
  </g>
</svg>
