<svg xmlns="http://www.w3.org/2000/svg" width="125.647" height="164" viewBox="0 0 125.647 164">
  <g id="그룹_312" data-name="그룹 312" transform="translate(-1058.144 -514.48)">
    <g id="그룹_310" data-name="그룹 310" transform="translate(1058.144 514.48)">
      <g id="그룹_307" data-name="그룹 307" transform="translate(0 67.553)">
        <g id="undraw_order_ride_re_372k">
          <path id="패스_750" data-name="패스 750" d="M318.691,540.375a3.8,3.8,0,0,0-3.8,3.8v8.888a3.8,3.8,0,0,0,3.8,3.8h4.819a3.8,3.8,0,0,0,3.8-3.8v-8.888a3.8,3.8,0,0,0-3.8-3.8Z" transform="translate(-310.752 -460.711)" fill="#3f3d56"/>
          <path id="패스_751" data-name="패스 751" d="M549.442,556.659h-4.819a4.1,4.1,0,0,1-4.095-4.095v-8.888a4.1,4.1,0,0,1,4.095-4.1h4.819a4.1,4.1,0,0,1,4.095,4.095v8.888A4.1,4.1,0,0,1,549.442,556.659Z" transform="translate(-431.733 -460.212)" fill="#3f3d56"/>
          <path id="패스_752" data-name="패스 752" d="M423.548,523.735H322.809c-4.585,0-8.315-2.226-8.315-4.963V502.815l5-4.338H427.835l4.028,4.347v15.948C431.863,521.508,428.133,523.735,423.548,523.735Z" transform="translate(-310.503 -434.404)" fill="#ccc"/>
          <path id="패스_753" data-name="패스 753" d="M434.184,480.52H325.524l-1.1-13.772.7-1.409,4.084-8.175H429.765l5.523,9.284Z" transform="translate(-316.735 -415.236)" fill="#ccc"/>
          <path id="패스_754" data-name="패스 754" d="M391.718,246.29l-.659,10.348H371.614v-7.687l19.552-3.8Z" transform="translate(-273.315 -194.736)" fill="#fff"/>
          <path id="패스_755" data-name="패스 755" d="M203.922,249.051v7.687H184.769l-.656-10.052.559-1.378Z" transform="translate(-176.278 -194.83)" fill="#fff"/>
          <path id="패스_756" data-name="패스 756" d="M437.7,407.221h-101.5l10.825-28.729c.907-2.436,3.709-4.113,6.9-4.128l67.218-.51c3.342-.026,6.276,1.765,7.113,4.341Z" transform="translate(-324.135 -372.039)" fill="#ccc"/>
          <path id="패스_757" data-name="패스 757" d="M440.868,418.479l-88.74-.811a.8.8,0,0,1-.573-.229.451.451,0,0,1-.1-.492l8.507-20.452a.724.724,0,0,1,.683-.384H432.02a.724.724,0,0,1,.683.384l8.857,21.263a.452.452,0,0,1-.106.5A.805.805,0,0,1,440.868,418.479Z" transform="translate(-333.687 -386.013)" fill="#fff"/>
          <path id="패스_758" data-name="패스 758" d="M437.748,374.3H419.318c-.155,0-.3-.153-.368-.4a1.243,1.243,0,0,1,.029-.766l1.52-3.844c.077-.2.2-.313.338-.313h15.391c.134,0,.261.117.338.313l1.52,3.844a1.243,1.243,0,0,1,.029.766C438.045,374.144,437.9,374.3,437.748,374.3Z" transform="translate(-365.714 -368.975)" fill="#5b8def"/>
          <path id="패스_759" data-name="패스 759" d="M315.89,451.954H303.768V449.29a3.252,3.252,0,0,1,3.249-3.249h8.873Z" transform="translate(-303.768 -411.262)" fill="#ccc"/>
          <path id="패스_760" data-name="패스 760" d="M565.362,451.954H553.24v-5.913h8.873a3.252,3.252,0,0,1,3.249,3.249Z" transform="translate(-439.715 -411.262)" fill="#ccc"/>
        </g>
      </g>
      <g id="Group_41" data-name="Group 41" transform="translate(41.637 0)">
        <circle id="Ellipse_220" data-name="Ellipse 220" cx="21.187" cy="21.187" r="21.187" transform="translate(0 0)" fill="#ccc"/>
        <path id="Path_1106" data-name="Path 1106" d="M357.8,301.672h-6.653v-6.653a1.566,1.566,0,0,0-1.566-1.566h0a1.565,1.565,0,0,0-1.566,1.566v6.653H341.36a1.566,1.566,0,0,0-1.566,1.565h0a1.566,1.566,0,0,0,1.566,1.566h6.653v6.653a1.566,1.566,0,0,0,1.566,1.566h0a1.566,1.566,0,0,0,1.566-1.566V304.8H357.8a1.566,1.566,0,0,0,1.566-1.566h0a1.565,1.565,0,0,0-1.566-1.565Z" transform="translate(-328.5 -282.141)" fill="#fff"/>
      </g>
    </g>
  </g>
</svg>
