<svg xmlns="http://www.w3.org/2000/svg" width="312.432" height="312.432" viewBox="0 0 312.432 312.432">
  <g id="그룹_434" data-name="그룹 434" transform="translate(-606.458 -3998.838)">
    <path id="패스_1175" data-name="패스 1175" d="M668.006,233.42a156.285,156.285,0,0,0-156.15,151.417c-.044,1.584-.066,3.191-.066,4.8A156.216,156.216,0,1,0,668.006,233.42Zm0,307.968A151.911,151.911,0,0,1,516.253,389.636q0-3.113.134-6.159A151.748,151.748,0,1,1,668.006,541.388Z" transform="translate(94.668 3765.418)" fill="#3f3d56"/>
    <path id="패스_1176" data-name="패스 1176" d="M786.125,376.089a131.667,131.667,0,0,1-263.335,0c0-4.173.2-8.279.58-12.341a131.667,131.667,0,0,1,262.755,12.341Z" transform="translate(108.218 3778.966)" fill="#03c988"/>
    <path id="패스_1177" data-name="패스 1177" d="M645.386,355.19a31.349,31.349,0,0,0-12.206-9.663,118.6,118.6,0,0,0-18.345-6.025v-35.84a52.211,52.211,0,0,1,26.088,11.895l7.276-15.51a48.12,48.12,0,0,0-14.2-8.772,69.76,69.76,0,0,0-18-4.619V268.49H599.147v18.344a46.128,46.128,0,0,0-18.411,6.181,36.6,36.6,0,0,0-12.476,12.23,30.732,30.732,0,0,0-4.44,16.269,27.812,27.812,0,0,0,5.111,17.407,32.379,32.379,0,0,0,12.72,10.087,117.6,117.6,0,0,0,18.657,6.182v34.345a55.763,55.763,0,0,1-31.042-12.385l-7.275,15.532a54.86,54.86,0,0,0,16.6,9.418,76.236,76.236,0,0,0,20.554,4.285V424.4H616V406.049a43.6,43.6,0,0,0,25.017-11.471,30.328,30.328,0,0,0,9.328-22.54,26.9,26.9,0,0,0-4.954-16.849Zm-45.079-19.482a32.353,32.353,0,0,1-11.226-6.025,11.873,11.873,0,0,1-3.972-9.328,15.008,15.008,0,0,1,4.061-10.734,20.533,20.533,0,0,1,11.136-5.78Zm25.106,47.49a19.1,19.1,0,0,1-10.578,5.512V359.162a29.545,29.545,0,0,1,10.578,5.289,10.394,10.394,0,0,1,3.637,8.257,15.184,15.184,0,0,1-3.638,10.489Z" transform="translate(156.499 3808.616)" fill="#fff"/>
  </g>
</svg>
