<svg xmlns="http://www.w3.org/2000/svg" width="519.001" height="446.772" viewBox="0 0 519.001 446.772">
  <g id="undraw_add_tasks_re_s5yj" transform="translate(-148.616 103.684)">
    <path id="패스_1221" data-name="패스 1221" d="M619.621,692.7l-10.005-4.213-6.863-50.155h-91.4l-7.44,49.951-8.951,4.475a2.126,2.126,0,0,0,.951,4.027H618.8a2.125,2.125,0,0,0,.825-4.085Z" transform="translate(-175.166 -353.695)" fill="#d9d9d9"/>
    <path id="패스_1222" data-name="패스 1222" d="M704.283,614.958H255.308a8.9,8.9,0,0,1-8.875-8.9V542.751H713.159v63.311a8.9,8.9,0,0,1-8.875,8.9Z" transform="translate(-97.407 -323.648)" fill="#ccc"/>
    <path id="패스_1223" data-name="패스 1223" d="M713.44,457.272H245.835v-270.9a10.735,10.735,0,0,1,10.723-10.723H702.717a10.735,10.735,0,0,1,10.723,10.723Z" transform="translate(-97.219 -208.247)" fill="#3f3d56"/>
    <path id="패스_1224" data-name="패스 1224" d="M694.531,204.328H282.778a8.272,8.272,0,0,0-8.262,8.269v225.76a8.272,8.272,0,0,0,8.262,8.269H694.531a8.277,8.277,0,0,0,8.262-8.269V212.6a8.277,8.277,0,0,0-8.262-8.269Z" transform="translate(-106.235 -217.261)" fill="#fff"/>
    <path id="패스_1225" data-name="패스 1225" d="M355.764,204.328v242.3H282.778a8.272,8.272,0,0,1-8.262-8.269V212.6a8.272,8.272,0,0,1,8.262-8.269Z" transform="translate(-106.235 -217.261)" fill="#f0f0f0"/>
    <path id="합치기_8" data-name="합치기 8" d="M66.107,140.643c-1.179-.061-2.369-.152-3.536-.271s-2.335-.269-3.488-.448-2.3-.386-3.431-.618-2.259-.505-3.367-.786-2.219-.606-3.308-.946-2.174-.712-3.238-1.108-2.123-.815-3.165-1.259-2.074-.916-3.086-1.409-2.02-1.01-3.005-1.554-1.963-1.108-2.918-1.694-1.9-1.2-2.827-1.83S28.9,127.432,28,126.758s-1.776-1.376-2.631-2.089-1.707-1.458-2.525-2.212-1.635-1.537-2.421-2.328-1.561-1.615-2.307-2.445S16.634,116,15.93,115.131s-1.4-1.761-2.069-2.66-1.32-1.827-1.943-2.758-1.234-1.894-1.812-2.862-1.145-1.955-1.684-2.946-1.054-2.02-1.537-3.03-.96-2.071-1.4-3.116-.859-2.125-1.248-3.2-.759-2.175-1.1-3.27-.667-2.227-.956-3.337-.542-2.268-.773-3.4S.978,82.237.8,81.084.478,78.727.359,77.562.15,75.178.091,73.989,0,71.572,0,70.375s.03-2.423.091-3.621.15-2.391.268-3.573S.626,60.823.8,59.658s.375-2.328.613-3.472.493-2.283.78-3.4.6-2.239.939-3.34.7-2.189,1.1-3.27.808-2.145,1.248-3.2.907-2.093,1.4-3.116,1.01-2.039,1.537-3.03,1.1-1.983,1.684-2.946,1.189-1.923,1.812-2.862,1.278-1.852,1.943-2.759,1.362-1.793,2.069-2.658,1.445-1.724,2.189-2.552S19.624,21.4,20.415,20.6s1.6-1.576,2.421-2.33,1.672-1.5,2.525-2.211,1.744-1.416,2.633-2.089,1.812-1.333,2.734-1.961,1.874-1.246,2.827-1.83,1.936-1.157,2.918-1.694,2-1.062,3.005-1.554,2.051-.965,3.086-1.409,2.1-.867,3.165-1.259S47.885,3.5,48.968,3.16s2.2-.66,3.308-.948,2.246-.554,3.367-.785S57.934.988,59.079.81,61.406.473,62.568.364,64.925.152,66.1.091,68.5,0,69.693,0s2.4.03,3.586.091,2.369.153,3.536.273S79.149.633,80.3.81s2.3.386,3.436.621,2.259.495,3.367.785,2.219.606,3.308.948,2.184.709,3.241,1.106,2.125.815,3.165,1.259,2.074.918,3.086,1.409,2.02,1.01,3.005,1.554,1.963,1.108,2.918,1.694,1.9,1.2,2.827,1.83,1.844,1.285,2.736,1.958l.168.126h-.017a10.9,10.9,0,0,1,.842.793c.291.3.576.616.842.946a15.153,15.153,0,0,1,.941,1.268,12.642,12.642,0,0,1,1.613,3.386c.1.337.18.673.244,1a9.913,9.913,0,0,1,.175,2.155,9.766,9.766,0,0,1-.1,1.148l-.008.067a.164.164,0,0,1-.01.069h0c-.071.475-.133.884-.212,1.295a12.167,12.167,0,0,1-.315,1.276c-.145.473-.337.983-.572,1.564-.254.611-.574,1.318-.982,2.162a12.442,12.442,0,0,1-.8,1.392c-.306.463-.673.968-1.084,1.5-.716.923-1.588,1.94-2.594,3.03s-1.9,1.978-2.5,2.561c-.741.724-1.312,1.251-1.6,1.5-.956.673-1.769,1.236-2.418,1.652a7.324,7.324,0,0,1-2.946.759,3.749,3.749,0,0,1-.439-.024,16.531,16.531,0,0,1-2.162-.4c-.594-.148-1.2-.337-1.8-.544a17.742,17.742,0,0,1-1.7-.687v.012l-.141-.116c-.928-.751-1.9-1.466-2.9-2.126s-2.041-1.286-3.1-1.852-2.17-1.091-3.286-1.554-2.288-.887-3.455-1.243c-.586-.18-1.179-.347-1.783-.505s-1.212-.29-1.82-.412-1.234-.232-1.852-.325-1.253-.168-1.881-.234-1.274-.113-1.911-.145-1.291-.047-1.933-.047-1.3.015-1.934.047-1.28.081-1.911.145-1.259.141-1.881.234-1.241.2-1.852.325-1.221.261-1.82.412-1.2.318-1.783.505c-1.167.357-2.328.774-3.455,1.243s-2.221.987-3.286,1.554-2.1,1.189-3.1,1.852-1.968,1.375-2.9,2.126-1.822,1.552-2.67,2.386-1.663,1.716-2.426,2.623-1.487,1.864-2.16,2.839-1.308,2.009-1.884,3.047-1.111,2.131-1.584,3.229c-.236.552-.463,1.116-.673,1.684s-.409,1.143-.591,1.717-.354,1.168-.505,1.753-.295,1.19-.419,1.788-.236,1.212-.337,1.82-.168,1.232-.237,1.852-.113,1.251-.145,1.876-.051,1.268-.051,1.9.017,1.271.051,1.9.081,1.256.145,1.877.145,1.237.237,1.852.205,1.219.337,1.82.264,1.2.419,1.786.323,1.179.505,1.753.38,1.153.591,1.717.436,1.126.673,1.684c.473,1.1,1.01,2.189,1.584,3.231s1.211,2.044,1.884,3.025,1.4,1.933,2.165,2.844,1.579,1.791,2.426,2.623,1.748,1.635,2.67,2.386,1.9,1.466,2.9,2.128,2.042,1.285,3.1,1.852,2.17,1.093,3.286,1.556,2.288.886,3.455,1.243c.588.178,1.189.347,1.783.505s1.212.291,1.82.412,1.234.234,1.852.327,1.254.168,1.881.234,1.274.111,1.911.143,1.291.049,1.934.049,1.293-.017,1.933-.049,1.28-.079,1.911-.143,1.259-.143,1.881-.234,1.241-.2,1.852-.327,1.219-.261,1.82-.412,1.2-.318,1.783-.505c1.167-.357,2.328-.774,3.455-1.243s2.221-.988,3.286-1.556,2.1-1.189,3.1-1.852c.7-.468,1.4-.968,2.083-1.487v.034h0c.044-.029.446-.295,1.035-.623.364-.2.729-.391,1.084-.556a12.416,12.416,0,0,1,1.274-.524c.418-.143.822-.266,1.2-.367a9.661,9.661,0,0,1,.992-.216,10.061,10.061,0,0,1,1.461-.145h.037a4.731,4.731,0,0,1,1.01.168,12.4,12.4,0,0,1,1.554.513,13.481,13.481,0,0,1,1.812.889,10.847,10.847,0,0,1,1.769,1.293,18.457,18.457,0,0,1,2.076,2.177c.557.694,1.051,1.418,1.674,2.335.306.451.655.963,1.056,1.539.461.658.918,1.36,1.36,2.084.355.577.7,1.17,1.029,1.761.552,1,.864,1.648.875,1.684a8.406,8.406,0,0,1,.527.966,11.65,11.65,0,0,1,.455,1.091,11.023,11.023,0,0,1,.4,1.4,12.856,12.856,0,0,1,.231,1.293c.035.337.037.643.042,1.162v.556h0c0,.367.012.657,0,.976a10.115,10.115,0,0,1-.118,1.123,11.186,11.186,0,0,1-.842,2.034,20.34,20.34,0,0,1-1.091,1.852c-.374.567-.721,1.04-.946,1.338s-.387.505-.4.517h.022c-.394.311-.793.62-1.179.918-.892.673-1.812,1.333-2.734,1.961s-1.876,1.248-2.827,1.83-1.938,1.157-2.918,1.694-2,1.064-3.005,1.554-2.052.966-3.086,1.409-2.1.869-3.165,1.259-2.155.766-3.238,1.108-2.2.66-3.308.948-2.246.554-3.367.786-2.288.443-3.433.618-2.327.337-3.488.448-2.357.21-3.536.271-2.394.091-3.586.091S67.294,140.7,66.107,140.643Zm96.662-49.771a18.747,18.747,0,0,1-1.945-.315,18.486,18.486,0,0,1-1.877-.505,18.816,18.816,0,0,1-3.51-1.571c-.552-.317-1.094-.673-1.615-1.039s-1.024-.773-1.515-1.194a16.923,16.923,0,0,1-1.391-1.347c-.443-.476-.867-.963-1.264-1.473s-.778-1.047-1.128-1.6-.673-1.128-.98-1.711a19.771,19.771,0,0,1-.827-1.812c-.247-.615-.47-1.263-.658-1.906s-.355-1.318-.483-1.987-.231-1.37-.3-2.059-.1-1.414-.1-2.121.034-1.421.1-2.12.168-1.382.3-2.059.293-1.337.483-1.988.411-1.285.658-1.9.524-1.226.827-1.813.628-1.158.98-1.709.729-1.086,1.128-1.6.823-1.01,1.264-1.473.911-.918,1.391-1.338a17.95,17.95,0,0,1,1.515-1.194c.525-.369,1.064-.722,1.615-1.039A18.672,18.672,0,0,1,170.6,50.432a18.959,18.959,0,0,1,1.8.7,18.759,18.759,0,0,1,1.712.872,19.106,19.106,0,0,1,1.613,1.039c.519.37,1.025.771,1.515,1.194a18.629,18.629,0,0,1,1.389,1.338c.441.468.867.963,1.266,1.473s.778,1.049,1.128,1.6.673,1.126.98,1.709a19.345,19.345,0,0,1,.825,1.813c.246.615.47,1.261.66,1.9s.354,1.32.483,1.988.231,1.37.295,2.059.1,1.413.1,2.12-.034,1.421-.1,2.121-.168,1.382-.295,2.059a20.349,20.349,0,0,1-.483,1.987q-.285.975-.66,1.906c-.249.621-.522,1.224-.825,1.812s-.63,1.158-.98,1.711-.731,1.084-1.128,1.6a18.989,18.989,0,0,1-1.266,1.473c-.443.463-.909.918-1.389,1.347a16.92,16.92,0,0,1-1.515,1.194c-.524.37-1.062.721-1.613,1.039a19.161,19.161,0,0,1-1.712.874,18.951,18.951,0,0,1-1.8.7,18.352,18.352,0,0,1-1.876.505,18.792,18.792,0,0,1-5.95.315Zm-8.307-20.727a10.386,10.386,0,1,0,20.693,0,10.384,10.384,0,1,0-20.693,0ZM97.344,89.589c-.692-.914-3.288-7.005-3.313-7.071,0,0-.311-.71-.606-.71H92.78c-1.759,0-6.431-.012-9.873-.012-2.434,0-3.744,0-3.891.013-.492.029-1.01.7-1.01.71-.311.685-3.03,6.642-3.312,7.071l-.069.1a2.067,2.067,0,0,1-1.835,1.057c-.29.027-.561.04-.825.04a6.073,6.073,0,0,1-3.108-.813c-1.136-.655-2.525-1.7-2.663-2.958a4.923,4.923,0,0,1,.505-2.7c.158-.349,4.14-8.622,7.992-16.624v-.012l.037-.077c3.308-6.872,6.431-13.366,6.637-13.806l.131-.285a6.9,6.9,0,0,1,1.322-2.142,4.081,4.081,0,0,1,3.16-1.438,4.433,4.433,0,0,1,3.315,1.438,6.746,6.746,0,0,1,1.21,1.87c.1.2.192.394.285.556.271.48,8.43,17.651,12.349,25.9l.024.047c1.261,2.655,2.094,4.408,2.17,4.564a4.529,4.529,0,0,1,.349,2.4,4.393,4.393,0,0,1-2.567,3.323,6.9,6.9,0,0,1-3.12.933A3.155,3.155,0,0,1,97.344,89.589ZM83.983,70.332a2.357,2.357,0,1,0,2.116-1.3A2.357,2.357,0,0,0,83.983,70.332ZM113.295,90.3a3.329,3.329,0,0,1-1.323-.271,3.394,3.394,0,0,1-.577-.317,3.434,3.434,0,0,1-.505-.421,3.453,3.453,0,0,1-1-2.443V53.4a3.453,3.453,0,0,1,.995-2.443,3.432,3.432,0,0,1,.505-.421,3.394,3.394,0,0,1,.577-.317,3.328,3.328,0,0,1,1.323-.271h17.8a3.394,3.394,0,0,1,1.032.189,7.24,7.24,0,0,1,1.227.545,13.469,13.469,0,0,1,2.694,2.009,15.941,15.941,0,0,1,1.3,1.392,14.932,14.932,0,0,1,1.16,1.6,13.048,13.048,0,0,1,.934,1.775,11.014,11.014,0,0,1,.623,1.911,11.89,11.89,0,0,1,.266,1.9,12.061,12.061,0,0,1-.03,1.751,12.615,12.615,0,0,1-.626,2.918c-.128.374-.274.748-.434,1.1-.128.288-.266.567-.409.828a7.786,7.786,0,0,1-.424.7c.008.013.249.337.583.882.2.337.4.673.581,1.03.232.444.448.9.643,1.359a16.98,16.98,0,0,1,1.077,3.512,14.476,14.476,0,0,1,.237,2.057c.015.362.015.726,0,1.083s-.047.748-.094,1.111a11.315,11.315,0,0,1-1.483,4.2,14.928,14.928,0,0,1-1.244,1.817,16.843,16.843,0,0,1-1.429,1.578,16.637,16.637,0,0,1-1.5,1.3,13.414,13.414,0,0,1-1.458.975,5.268,5.268,0,0,1-2.335.828Zm6.322-30.872a.333.333,0,0,0-.333.337V80.375a.337.337,0,0,0,.337.337h9.361a1.493,1.493,0,0,0,.256-.045,3.679,3.679,0,0,0,.517-.168,3.831,3.831,0,0,0,.657-.337,3.484,3.484,0,0,0,.673-.559A3.8,3.8,0,0,0,132,76.678a4.751,4.751,0,0,0-.556-2.067,3.482,3.482,0,0,0-1.029-1.143,3.648,3.648,0,0,0-.534-.31,3.386,3.386,0,0,0-.46-.178,2.591,2.591,0,0,0-.444-.1h-3.477a1.579,1.579,0,0,1-.832-.219,1.43,1.43,0,0,1-.47-.473,1.915,1.915,0,0,1-.21-.471,1.362,1.362,0,0,1-.047-.215V66.783a1.8,1.8,0,0,1,.045-.242,2.277,2.277,0,0,1,.205-.535,1.551,1.551,0,0,1,.471-.539,1.455,1.455,0,0,1,.842-.256h3.352a1.963,1.963,0,0,0,1.237-.38,2.876,2.876,0,0,0,.716-2.369,3.44,3.44,0,0,0-.852-2.525,1.773,1.773,0,0,0-.354-.254,1.958,1.958,0,0,0-.365-.155,2.64,2.64,0,0,0-.673-.108c-.232-.008-1.131-.013-2.675-.013Z" transform="translate(308.911 37.834)" fill="#5b8def"/>
    <path id="패스_1201" data-name="패스 1201" d="M890.524,347.1c-6.239,3.741-17.353,8.43-28.714,3.612l-7.343-3.115,14.715-16.5a70.275,70.275,0,1,1,21.342,16Z" transform="translate(-324.683 -316.522)" fill="#fff"/>
    <path id="패스_1202" data-name="패스 1202" d="M890.349,347.779c-5.995,3.52-17.415,8.384-29.058,3.445l-8.351-3.542,14.977-16.787a71.058,71.058,0,1,1,100.845,5.423h0a70.742,70.742,0,0,1-78.412,11.462ZM972.495,237a69.49,69.49,0,0,0-102.947,93.368l.474.523-14.455,16.2,6.335,2.687c11.244,4.77,22.372-.185,28-3.562l.364-.224.382.186A69.49,69.49,0,0,0,972.488,237Z" transform="translate(-324.465 -316.307)" fill="#03c988"/>
    <path id="패스_1203" data-name="패스 1203" d="M999.994,284.88a64.671,64.671,0,0,0-58.947-64.415c1.877-.166,3.782-.254,5.707-.254a64.67,64.67,0,1,1,0,129.34c-1.923,0-3.825-.091-5.709-.256A64.673,64.673,0,0,0,999.994,284.88Z" transform="translate(-344.115 -317.943)" opacity="0.1"/>
    <rect id="사각형_994" data-name="사각형 994" width="46.211" height="4.291" transform="translate(559.47 -45.959)" fill="#03c988"/>
    <rect id="사각형_995" data-name="사각형 995" width="80.541" height="4.291" transform="translate(559.47 -31.114)" fill="#03c988"/>
    <rect id="사각형_996" data-name="사각형 996" width="80.461" height="4.291" transform="translate(559.47 -16.271)" fill="#03c988"/>
  </g>
</svg>
