<svg xmlns="http://www.w3.org/2000/svg" width="561.101" height="340.971" viewBox="0 0 561.101 340.971">
  <g id="undraw_mobile_payments_re_7udl" transform="translate(-166.082 25.831)">
    <path id="패스_1187" data-name="패스 1187" d="M1015.55,469.267H828.377a4.358,4.358,0,0,1-4.353-4.353V349.131a4.358,4.358,0,0,1,4.353-4.353h187.169a4.358,4.358,0,0,1,4.353,4.353V464.914a4.358,4.358,0,0,1-4.349,4.353Z" transform="translate(-292.716 -188.278)" fill="#fff"/>
    <path id="패스_1188" data-name="패스 1188" d="M1015.55,469.267H828.377a4.358,4.358,0,0,1-4.353-4.353V349.131a4.358,4.358,0,0,1,4.353-4.353h187.169a4.358,4.358,0,0,1,4.353,4.353V464.914a4.358,4.358,0,0,1-4.349,4.353ZM828.377,346.519a2.615,2.615,0,0,0-2.612,2.612V464.914a2.614,2.614,0,0,0,2.612,2.612h187.169a2.614,2.614,0,0,0,2.612-2.612V349.131a2.615,2.615,0,0,0-2.612-2.612Z" transform="translate(-292.716 -188.278)" fill="#3f3d56"/>
    <path id="패스_1189" data-name="패스 1189" d="M978.547,383.446H865.376a3.918,3.918,0,0,1,0-7.835H978.547a3.917,3.917,0,0,1,0,7.835Z" transform="translate(-292.716 -188.278)" fill="#ccc"/>
    <path id="패스_1190" data-name="패스 1190" d="M978.547,410.433H865.376a3.918,3.918,0,0,1,0-7.835H978.547a3.917,3.917,0,0,1,0,7.835Z" transform="translate(-292.716 -188.278)" fill="#ccc"/>
    <circle id="타원_308" data-name="타원 308" cx="14" cy="14" r="14" transform="translate(661.749 236.944)" fill="#03c988"/>
    <path id="패스_1191" data-name="패스 1191" d="M968.849,432.627v-1.334h.395v1.334a4.259,4.259,0,0,1,1.615.395,2.372,2.372,0,0,1,.921.768,1.794,1.794,0,0,1,.333,1.048,1.132,1.132,0,0,1-.259.755.8.8,0,0,1-.636.307.668.668,0,0,1-.491-.2.679.679,0,0,1-.2-.5.95.95,0,0,1,.079-.377l.158-.333a1.109,1.109,0,0,0,.079-.439,1.033,1.033,0,0,0-.211-.645,1.273,1.273,0,0,0-.6-.417,3.376,3.376,0,0,0-.79-.158v4.8l.088.053a8.74,8.74,0,0,1,2.22,1.676,3.94,3.94,0,0,1,.671,1.137,3.489,3.489,0,0,1,.241,1.259,3.055,3.055,0,0,1-.421,1.588,2.851,2.851,0,0,1-1.167,1.1,4.929,4.929,0,0,1-1.632.474v1.43h-.395v-1.4a4.4,4.4,0,0,1-1.667-.342,3.155,3.155,0,0,1-1.347-.965,2.186,2.186,0,0,1-.478-1.378,1.558,1.558,0,0,1,.307-.979.915.915,0,0,1,.746-.4.645.645,0,0,1,.667.665,1.3,1.3,0,0,1-.325.727,2.2,2.2,0,0,0-.241.4.9.9,0,0,0-.066.35,1.418,1.418,0,0,0,.312.88,1.989,1.989,0,0,0,.838.626,3.086,3.086,0,0,0,1.185.21h.07v-5.73l-.5-.29q-.711-.412-1.084-.684a4.529,4.529,0,0,1-.671-.6,2.882,2.882,0,0,1-.781-1.983,2.691,2.691,0,0,1,.334-1.312,2.617,2.617,0,0,1,.921-.979,3.751,3.751,0,0,1,1.781-.535Zm0,.193a2.715,2.715,0,0,0-.987.219,1.682,1.682,0,0,0-.734.709,2.171,2.171,0,0,0-.28,1.095,2.223,2.223,0,0,0,.411,1.305,2.649,2.649,0,0,0,.511.552,9.511,9.511,0,0,0,.992.648l.087.053Zm.395,11.9a2.722,2.722,0,0,0,.664-.14,1.751,1.751,0,0,0,.48-.281,2.172,2.172,0,0,0,.612-.855,2.95,2.95,0,0,0,.227-1.154,3.625,3.625,0,0,0-1.983-3.036Z" transform="translate(-292.716 -188.278)" fill="#fff"/>
    <path id="패스_1192" data-name="패스 1192" d="M888.046,391.767H700.877a4.358,4.358,0,0,1-4.353-4.353V271.631a4.358,4.358,0,0,1,4.353-4.353H888.046a4.358,4.358,0,0,1,4.353,4.353V387.414A4.358,4.358,0,0,1,888.046,391.767Z" transform="translate(-238.102 -188.278)" fill="#fff"/>
    <path id="패스_1193" data-name="패스 1193" d="M888.046,391.767H700.877a4.358,4.358,0,0,1-4.353-4.353V271.631a4.358,4.358,0,0,1,4.353-4.353H888.046a4.358,4.358,0,0,1,4.353,4.353V387.414A4.358,4.358,0,0,1,888.046,391.767ZM700.877,269.019a2.615,2.615,0,0,0-2.612,2.612V387.414a2.615,2.615,0,0,0,2.612,2.612H888.046a2.615,2.615,0,0,0,2.612-2.612V271.631a2.614,2.614,0,0,0-2.612-2.612Z" transform="translate(-238.102 -188.278)" fill="#3f3d56"/>
    <path id="패스_1194" data-name="패스 1194" d="M851.047,305.946H737.876a3.918,3.918,0,0,1,0-7.835H851.047a3.917,3.917,0,0,1,0,7.835Z" transform="translate(-238.102 -188.278)" fill="#ccc"/>
    <path id="패스_1195" data-name="패스 1195" d="M851.047,332.933H737.876a3.918,3.918,0,0,1,0-7.835H851.047a3.917,3.917,0,0,1,0,7.835Z" transform="translate(-238.102 -188.278)" fill="#ccc"/>
    <circle id="타원_309" data-name="타원 309" cx="14" cy="14" r="14" transform="translate(588.863 159.444)" fill="#03c988"/>
    <path id="패스_1196" data-name="패스 1196" d="M841.349,355.127v-1.334h.395v1.334a4.259,4.259,0,0,1,1.615.395,2.372,2.372,0,0,1,.921.768,1.8,1.8,0,0,1,.333,1.048,1.131,1.131,0,0,1-.259.755.8.8,0,0,1-.636.307.668.668,0,0,1-.491-.2.679.679,0,0,1-.2-.5.95.95,0,0,1,.079-.377l.158-.333a1.108,1.108,0,0,0,.079-.439,1.033,1.033,0,0,0-.211-.645,1.273,1.273,0,0,0-.6-.417,3.38,3.38,0,0,0-.79-.158v4.8l.088.053a8.74,8.74,0,0,1,2.22,1.676,3.941,3.941,0,0,1,.671,1.137,3.485,3.485,0,0,1,.241,1.259,3.056,3.056,0,0,1-.421,1.588,2.852,2.852,0,0,1-1.167,1.1,4.93,4.93,0,0,1-1.632.474v1.43h-.395v-1.4a4.405,4.405,0,0,1-1.667-.342,3.156,3.156,0,0,1-1.347-.965,2.185,2.185,0,0,1-.478-1.378,1.557,1.557,0,0,1,.307-.979.914.914,0,0,1,.746-.4.645.645,0,0,1,.667.665,1.3,1.3,0,0,1-.325.727,2.2,2.2,0,0,0-.241.4.9.9,0,0,0-.066.35,1.417,1.417,0,0,0,.312.88,1.989,1.989,0,0,0,.838.626,3.087,3.087,0,0,0,1.185.21h.07v-5.73l-.5-.29q-.711-.412-1.084-.684a4.523,4.523,0,0,1-.671-.6,2.882,2.882,0,0,1-.781-1.983,2.691,2.691,0,0,1,.334-1.312,2.617,2.617,0,0,1,.921-.979,3.751,3.751,0,0,1,1.781-.535Zm0,.193a2.717,2.717,0,0,0-.987.219,1.681,1.681,0,0,0-.734.709,2.171,2.171,0,0,0-.279,1.095,2.223,2.223,0,0,0,.41,1.305,2.646,2.646,0,0,0,.511.552,9.526,9.526,0,0,0,.992.648l.087.053Zm.395,11.9a2.72,2.72,0,0,0,.664-.14,1.749,1.749,0,0,0,.481-.281,2.172,2.172,0,0,0,.612-.855,2.947,2.947,0,0,0,.227-1.154,3.625,3.625,0,0,0-1.983-3.036Z" transform="translate(-238.102 -188.278)" fill="#fff"/>
    <path id="패스_1207" data-name="패스 1207" d="M665.066,415.482h-1.874V364.159a29.7,29.7,0,0,0-29.7-29.7H524.752a29.7,29.7,0,0,0-29.7,29.7V645.721a29.7,29.7,0,0,0,29.7,29.7H633.487a29.7,29.7,0,0,0,29.7-29.7V452.013h1.874Z" transform="translate(-328.965 -360.285)" fill="#3f3d56"/>
    <path id="패스_1208" data-name="패스 1208" d="M628.413,336.268H614.22a10.539,10.539,0,0,1-9.757,14.519H542.169a10.539,10.539,0,0,1-9.758-14.519H519.155a22.183,22.183,0,0,0-22.183,22.183V639.6a22.183,22.183,0,0,0,22.183,22.183H628.413A22.183,22.183,0,0,0,650.6,639.6h0V358.451A22.183,22.183,0,0,0,628.413,336.268Z" transform="translate(-322.691 -354.371)" fill="#fff"/>
    <path id="패스_1209" data-name="패스 1209" d="M758.046,312.767H570.877a4.358,4.358,0,0,1-4.353-4.353V192.631a4.358,4.358,0,0,1,4.353-4.353H758.046a4.358,4.358,0,0,1,4.353,4.353V308.414A4.358,4.358,0,0,1,758.046,312.767Z" transform="translate(-180.102 -188.278)" fill="#fff"/>
    <path id="패스_1210" data-name="패스 1210" d="M758.046,312.767H570.877a4.358,4.358,0,0,1-4.353-4.353V192.631a4.358,4.358,0,0,1,4.353-4.353H758.046a4.358,4.358,0,0,1,4.353,4.353V308.414A4.358,4.358,0,0,1,758.046,312.767ZM570.877,190.019a2.615,2.615,0,0,0-2.612,2.612V308.414a2.614,2.614,0,0,0,2.612,2.612H758.046a2.614,2.614,0,0,0,2.612-2.612V192.631a2.614,2.614,0,0,0-2.612-2.612Z" transform="translate(-180.102 -188.278)" fill="#3f3d56"/>
    <path id="패스_1211" data-name="패스 1211" d="M721.047,226.946H607.876a3.918,3.918,0,1,1,0-7.835H721.047a3.917,3.917,0,0,1,0,7.835Z" transform="translate(-180.102 -188.278)" fill="#ccc"/>
    <path id="패스_1212" data-name="패스 1212" d="M721.047,253.933H607.876a3.918,3.918,0,1,1,0-7.835H721.047a3.917,3.917,0,0,1,0,7.835Z" transform="translate(-180.102 -188.278)" fill="#ccc"/>
    <circle id="타원_310" data-name="타원 310" cx="14" cy="14" r="14" transform="translate(516.863 80.444)" fill="#03c988"/>
    <path id="패스_1213" data-name="패스 1213" d="M711.349,276.127v-1.334h.395v1.334a4.259,4.259,0,0,1,1.615.395,2.372,2.372,0,0,1,.921.768,1.8,1.8,0,0,1,.333,1.048,1.131,1.131,0,0,1-.259.755.8.8,0,0,1-.636.307.668.668,0,0,1-.491-.2.679.679,0,0,1-.2-.5.95.95,0,0,1,.079-.377l.158-.333a1.107,1.107,0,0,0,.079-.439,1.033,1.033,0,0,0-.211-.645,1.273,1.273,0,0,0-.6-.417,3.379,3.379,0,0,0-.79-.158v4.8l.088.053a8.74,8.74,0,0,1,2.22,1.676,3.94,3.94,0,0,1,.671,1.137,3.485,3.485,0,0,1,.241,1.259,3.056,3.056,0,0,1-.421,1.588,2.852,2.852,0,0,1-1.167,1.1,4.929,4.929,0,0,1-1.632.474v1.43h-.395v-1.4a4.4,4.4,0,0,1-1.667-.342,3.156,3.156,0,0,1-1.347-.965,2.185,2.185,0,0,1-.478-1.378,1.557,1.557,0,0,1,.307-.979.915.915,0,0,1,.746-.4.645.645,0,0,1,.667.665,1.3,1.3,0,0,1-.325.727,2.2,2.2,0,0,0-.241.4.9.9,0,0,0-.066.35,1.418,1.418,0,0,0,.312.88,1.989,1.989,0,0,0,.838.626,3.087,3.087,0,0,0,1.185.21h.07v-5.73l-.5-.29q-.711-.412-1.084-.684a4.525,4.525,0,0,1-.671-.6,2.882,2.882,0,0,1-.781-1.983,2.69,2.69,0,0,1,.333-1.312,2.617,2.617,0,0,1,.922-.979A3.751,3.751,0,0,1,711.349,276.127Zm0,.193a2.716,2.716,0,0,0-.987.219,1.682,1.682,0,0,0-.734.709,2.171,2.171,0,0,0-.28,1.095,2.223,2.223,0,0,0,.411,1.305,2.645,2.645,0,0,0,.511.552,9.522,9.522,0,0,0,.992.648l.087.053Zm.395,11.9a2.721,2.721,0,0,0,.664-.14,1.749,1.749,0,0,0,.481-.281,2.173,2.173,0,0,0,.612-.855,2.947,2.947,0,0,0,.227-1.154,3.625,3.625,0,0,0-1.983-3.036Z" transform="translate(-180.102 -188.278)" fill="#fff"/>
    <path id="합치기_8" data-name="합치기 8" d="M28.239,59.839c-.5-.026-1.012-.065-1.512-.116s-1-.114-1.49-.19-.982-.164-1.466-.264-.966-.211-1.441-.334-.948-.258-1.412-.4-.929-.3-1.383-.471-.907-.347-1.353-.536-.886-.39-1.319-.6-.863-.431-1.283-.661-.839-.472-1.247-.721-.814-.51-1.209-.778-.787-.548-1.167-.835-.758-.585-1.124-.888-.73-.62-1.08-.941-.7-.653-1.034-.991-.667-.687-.986-1.039S7.1,49.351,6.8,48.983s-.6-.749-.884-1.131-.564-.778-.831-1.174-.527-.806-.774-1.215-.489-.833-.716-1.254-.45-.858-.658-1.291-.41-.882-.6-1.327-.367-.9-.534-1.36-.324-.925-.468-1.39-.28-.947-.4-1.421S.7,36.456.6,35.973.418,34.99.343,34.5.2,33.5.154,33s-.09-1.014-.115-1.521S0,30.451,0,29.939.013,28.908.039,28.4.1,27.381.154,26.878s.114-1,.189-1.5S.506,24.392.6,23.9s.211-.971.332-1.448.257-.952.4-1.421.3-.933.468-1.39.346-.913.534-1.36.387-.89.6-1.326.429-.868.658-1.292.469-.843.716-1.254.508-.818.774-1.215.545-.79.831-1.174.581-.762.884-1.13.616-.733.935-1.086.651-.7.986-1.04S9.4,8.1,9.754,7.778s.714-.637,1.08-.941.744-.6,1.124-.888.774-.568,1.167-.835.8-.53,1.209-.779.827-.492,1.247-.721.852-.453,1.283-.661.877-.411,1.319-.6.9-.369,1.353-.536.92-.327,1.383-.471.94-.282,1.412-.4S23.29.707,23.772.608,24.748.42,25.238.345s.994-.14,1.49-.19,1.009-.09,1.512-.116S29.262,0,29.771,0,30.8.014,31.3.039,32.315.1,32.816.155s1,.114,1.49.19.982.164,1.466.264.965.212,1.44.334.948.258,1.413.4.929.3,1.383.471.908.346,1.352.536.887.391,1.319.6.862.431,1.283.661.839.472,1.247.721.813.51,1.208.779.787.549,1.167.835L47.655,6l-.007,0h0a4.505,4.505,0,0,1,.361.337c.124.128.246.263.361.4a6.458,6.458,0,0,1,.4.54,5.348,5.348,0,0,1,.688,1.44,4.312,4.312,0,0,1,.1.426,4.256,4.256,0,0,1,.062.448,4.086,4.086,0,0,1,.014.469,4.041,4.041,0,0,1-.045.489c0,.01,0,.019,0,.029a.275.275,0,0,0,0,.029h0c-.031.2-.057.376-.091.551a5.034,5.034,0,0,1-.135.543c-.061.2-.141.418-.244.665s-.246.562-.419.921a5.259,5.259,0,0,1-.345.592c-.131.2-.286.412-.462.638-.306.392-.68.825-1.109,1.286s-.812.842-1.067,1.09c-.317.308-.561.532-.683.638-.41.289-.756.526-1.033.7a3.144,3.144,0,0,1-1.258.323,1.6,1.6,0,0,1-.188-.011,7.175,7.175,0,0,1-.923-.17c-.255-.064-.514-.142-.771-.232a7.278,7.278,0,0,1-.724-.292v.005l-.06-.049c-.4-.319-.812-.624-1.237-.9s-.872-.547-1.325-.788-.927-.464-1.4-.662-.977-.377-1.475-.529c-.251-.076-.508-.148-.762-.212s-.518-.123-.778-.175-.526-.1-.79-.138-.536-.074-.8-.1-.545-.047-.816-.06-.552-.021-.826-.021-.553.007-.827.021-.545.034-.815.06-.538.06-.8.1-.53.085-.791.138-.521.111-.777.175-.511.136-.762.212c-.5.152-.994.33-1.476.529s-.949.419-1.4.662-.9.506-1.324.788-.841.585-1.237.9-.778.661-1.14,1.015-.711.73-1.037,1.116-.638.795-.925,1.21-.559.853-.8,1.3-.474.907-.676,1.373c-.1.235-.2.475-.288.714s-.175.486-.252.731-.151.5-.217.746-.126.507-.179.76-.1.516-.141.774-.075.524-.1.787-.049.533-.062.8-.022.54-.022.809.007.541.022.808.034.535.062.8.061.527.1.787.088.519.141.774.113.51.179.76.139.5.217.746.163.49.252.731.186.479.288.714c.2.466.429.929.676,1.374s.517.878.8,1.3.6.823.925,1.21.674.762,1.037,1.116.745.7,1.14,1.015.812.624,1.237.9.872.547,1.324.787.928.464,1.4.661.977.377,1.476.529c.251.076.508.148.762.212s.517.123.777.175.527.1.791.139.536.073.8.1.545.047.815.06.553.021.827.021.553-.007.826-.021.546-.034.816-.06.538-.06.8-.1.529-.086.79-.139.521-.111.778-.175.511-.136.762-.212c.5-.152.994-.329,1.475-.529s.949-.419,1.4-.661.9-.5,1.325-.787c.3-.2.6-.411.889-.632v.014h0c.019-.013.19-.126.442-.265.156-.086.311-.166.463-.237a5.8,5.8,0,0,1,.544-.222c.178-.061.351-.113.515-.156.145-.038.287-.068.423-.092a4.432,4.432,0,0,1,.625-.062h.015a2,2,0,0,1,.429.07,5.19,5.19,0,0,1,.664.219,5.7,5.7,0,0,1,.773.378,4.575,4.575,0,0,1,.756.55,7.834,7.834,0,0,1,.887.926c.239.3.448.6.715.994.131.193.279.41.451.655.2.281.392.579.581.887.152.246.3.5.439.749.236.425.369.7.374.713a3.705,3.705,0,0,1,.225.411,4.785,4.785,0,0,1,.194.465,4.583,4.583,0,0,1,.169.593,5.309,5.309,0,0,1,.1.55c.014.139.016.274.018.495v.011c0,.085,0,.162,0,.225h0c0,.157,0,.28,0,.415a4.359,4.359,0,0,1-.05.478,4.767,4.767,0,0,1-.359.866,8.474,8.474,0,0,1-.466.785c-.159.24-.308.442-.4.569s-.166.211-.173.22l.009,0c-.168.132-.338.263-.507.389-.381.287-.773.568-1.167.835s-.8.53-1.208.778-.828.492-1.247.721-.853.453-1.283.661-.877.411-1.319.6-.9.369-1.352.536-.921.326-1.383.471-.94.281-1.413.4-.959.235-1.44.334-.977.188-1.466.264-.994.139-1.49.19-1.009.09-1.512.116-1.023.039-1.533.039S28.747,59.865,28.239,59.839ZM69.532,38.663a7.826,7.826,0,0,1-.831-.134,7.915,7.915,0,0,1-1.57-.514c-.248-.111-.494-.236-.732-.372s-.467-.284-.689-.442-.438-.328-.644-.508-.4-.37-.594-.569-.37-.41-.54-.627-.332-.446-.482-.679-.292-.48-.419-.728-.247-.509-.352-.771-.2-.536-.282-.81-.15-.562-.206-.846-.1-.583-.127-.877-.043-.6-.043-.9.015-.6.043-.9.071-.589.127-.877.125-.569.206-.845.175-.547.282-.811.223-.521.352-.771.269-.493.419-.728.311-.462.482-.679.352-.428.54-.627.389-.391.594-.569.423-.351.644-.508.454-.307.689-.442.483-.261.732-.372a7.915,7.915,0,0,1,1.57-.514,7.827,7.827,0,0,1,.831-.134,8.154,8.154,0,0,1,1.711,0,7.864,7.864,0,0,1,.831.134c.269.059.539.131.8.217s.518.185.769.3a8.2,8.2,0,0,1,.731.372c.236.135.468.284.69.442s.437.328.644.508.406.37.595.569.37.41.539.627.333.445.482.679.291.48.419.728.247.509.353.771.2.536.281.811.151.561.206.845.1.583.127.877.043.6.043.9-.014.6-.043.9-.071.589-.127.877-.124.569-.206.846-.175.546-.281.81-.224.522-.353.771-.268.493-.419.728-.311.462-.482.679-.351.428-.539.627-.389.391-.595.569-.422.351-.644.508-.454.307-.69.442a8.2,8.2,0,0,1-.731.372c-.251.112-.509.211-.769.3a8.306,8.306,0,0,1-.8.217,7.863,7.863,0,0,1-.831.134,8.154,8.154,0,0,1-1.711,0Zm-3.549-8.818a4.435,4.435,0,1,0,8.84,0,4.435,4.435,0,1,0-8.84,0Zm-24.4,8.273c-.294-.389-1.4-2.981-1.415-3.007,0,0-.133-.3-.259-.3h-.276c-.751,0-2.748,0-4.217,0-1.04,0-1.6,0-1.662.005-.21.013-.428.3-.43.3-.133.292-1.292,2.826-1.415,3.007l-.029.043a.885.885,0,0,1-.784.449c-.122.012-.241.018-.353.018a2.594,2.594,0,0,1-1.327-.347c-.486-.279-1.078-.724-1.139-1.259a2.092,2.092,0,0,1,.217-1.149c.067-.148,1.752-3.635,3.382-7.008l0,0,.011-.022c1.432-2.963,2.784-5.761,2.871-5.948.02-.04.038-.081.057-.121a2.945,2.945,0,0,1,.564-.912,1.748,1.748,0,0,1,1.35-.612,1.875,1.875,0,0,1,1.417.612,2.871,2.871,0,0,1,.518.8c.042.086.083.167.121.237.113.2,3.4,7.084,5.162,10.782l0,.005.006.013L45,35.873a1.824,1.824,0,0,1-.948,2.434,2.951,2.951,0,0,1-1.333.4A1.35,1.35,0,0,1,41.583,38.118Zm-5.7-8.2a1.006,1.006,0,1,0,.9-.559A1,1,0,0,0,35.879,29.92Zm12.52,8.5a1.43,1.43,0,0,1-.565-.115,1.367,1.367,0,0,1-.247-.135,1.411,1.411,0,0,1-.215-.179,1.471,1.471,0,0,1-.311-.466,1.471,1.471,0,0,1-.114-.571V22.719a1.468,1.468,0,0,1,.114-.571,1.509,1.509,0,0,1,.134-.249,1.444,1.444,0,0,1,1.2-.647H56a1.443,1.443,0,0,1,.441.081,3.138,3.138,0,0,1,.524.232,5.706,5.706,0,0,1,1.153.855,6.787,6.787,0,0,1,.557.592,6.4,6.4,0,0,1,.5.681,5.49,5.49,0,0,1,.4.755,4.607,4.607,0,0,1,.266.813,4.966,4.966,0,0,1,.1,1.553,5.353,5.353,0,0,1-.266,1.242c-.055.159-.118.318-.186.471-.055.122-.113.24-.175.352a3.364,3.364,0,0,1-.182.3c0,.005.107.142.249.375.085.139.169.287.248.438.1.188.191.383.274.578a7.18,7.18,0,0,1,.46,1.495,6.038,6.038,0,0,1,.1.875c.006.155.006.31,0,.461s-.02.318-.04.472a4.805,4.805,0,0,1-.634,1.786,6.431,6.431,0,0,1-.532.773,7.246,7.246,0,0,1-.61.671,7.036,7.036,0,0,1-.64.552,5.935,5.935,0,0,1-.623.415,2.264,2.264,0,0,1-1,.352Zm2.7-13.135a.138.138,0,0,0-.1.041.146.146,0,0,0-.042.1V34.2a.143.143,0,0,0,.142.144h4a.687.687,0,0,0,.109-.019,1.674,1.674,0,0,0,.221-.071,1.711,1.711,0,0,0,.28-.144,1.472,1.472,0,0,0,.286-.238,1.613,1.613,0,0,0,.394-1.245,2.022,2.022,0,0,0-.238-.879,1.481,1.481,0,0,0-.44-.486,1.5,1.5,0,0,0-.228-.131,1.526,1.526,0,0,0-.2-.076,1.29,1.29,0,0,0-.189-.044h0l-.833,0-.649,0a.678.678,0,0,1-.356-.092.614.614,0,0,1-.2-.2.829.829,0,0,1-.09-.2.584.584,0,0,1-.02-.091V28.416a.672.672,0,0,1,.02-.1.933.933,0,0,1,.088-.229.668.668,0,0,1,.2-.229.63.63,0,0,1,.357-.108l.373,0,.466,0H54.5l.337,0c.087,0,.151,0,.2,0h.009a.84.84,0,0,0,.529-.161,1.227,1.227,0,0,0,.31-1.007,1.464,1.464,0,0,0-.364-1.073.8.8,0,0,0-.307-.174,1.072,1.072,0,0,0-.288-.046c-.1,0-.484-.006-1.142-.006C52.663,25.279,51.113,25.286,51.1,25.286Z" transform="translate(211.715 19.122)" fill="#5b8def"/>
    <rect id="사각형_905" data-name="사각형 905" width="131.975" height="57.688" rx="10" transform="translate(185.105 101.756)" fill="#f2f2f2"/>
    <rect id="사각형_905-2" data-name="사각형 905" width="131.975" height="57.688" rx="10" transform="translate(185.105 166.324)" fill="#f2f2f2"/>
    <rect id="사각형_905-3" data-name="사각형 905" width="131.975" height="57.688" rx="10" transform="translate(185.105 230.892)" fill="#f2f2f2"/>
  </g>
</svg>
