<svg id="sHome_icon5" xmlns="http://www.w3.org/2000/svg" width="392" height="391.926" viewBox="0 0 392 391.926">
  <path id="패스_1208" data-name="패스 1208" d="M392,196a196.625,196.625,0,0,1-3.732,38.238q-1.143,5.817-2.638,11.506a193.122,193.122,0,0,1-7.168,21.977q-.572,1.47-1.18,2.928-1.5,3.639-3.14,7.2-.871,1.906-1.8,3.793-3.457,7.123-7.483,13.92-4.565,7.731-9.812,15A196.132,196.132,0,0,1,18.771,279.8q-1.279-2.686-2.468-5.42c-.1-.224-.194-.442-.29-.665q-1.824-4.2-3.442-8.505-1.452-3.847-2.746-7.78-1.906-5.77-3.455-11.692-1.252-4.773-2.262-9.643A195.635,195.635,0,0,1,.042,199.823Q0,197.918,0,196q0-8.593.726-17,.254-2.922.587-5.82a194.679,194.679,0,0,1,17.144-60.324q3.385-7.214,7.326-14.1a196.665,196.665,0,0,1,36.048-45.63q2.967-2.795,6.049-5.451A195.2,195.2,0,0,1,196,0C304.248,0,392,87.752,392,196Z" fill="#fff"/>
  <rect id="사각형_997" data-name="사각형 997" width="7.326" height="52.015" transform="translate(288.791 140.979)" fill="#3f3d56"/>
  <path id="패스_1210" data-name="패스 1210" d="M379.276,512.216a195.962,195.962,0,0,1-20.767,24.337c-87.141,1.7-192.153,1.488-277.056-.484A196.2,196.2,0,0,1,61.32,512.415c17.634-.49,36.363-.877,55.787-1.18q11.533-.191,23.381-.327,11.751-.127,23.732-.23h.006c72.5-.587,150.055-.048,215.049,1.537Z" transform="translate(-24.225 -201.659)" fill="#d0cde1"/>
  <path id="패스_1211" data-name="패스 1211" d="M625.9,406.23a193.114,193.114,0,0,1-7.168,21.977q-.572,1.47-1.18,2.928h-9.37v-24.9Z" transform="translate(-240.269 -160.486)" fill="#3f3d56"/>
  <path id="패스_1212" data-name="패스 1212" d="M451.279,442.56q-.572,1.47-1.18,2.928-1.5,3.639-3.14,7.2-.871,1.906-1.8,3.793-3.457,7.123-7.483,13.92c-93.632,10.91-180.285,13.524-253.36,0V442.56Z" transform="translate(-72.818 -174.839)" fill="#3f3d56"/>
  <path id="패스_1213" data-name="패스 1213" d="M569.2,350.743v43.229q-.871,1.9-1.8,3.793c-26.593-12.984-50.9-11.435-73.663,0V302.893c18.424-11.015,37.165-12.828,56.41,0L567.833,347.3Z" transform="translate(-195.058 -116.124)" fill="#d0cde1"/>
  <path id="패스_1214" data-name="패스 1214" d="M510.372,318.426h32.235v32.235c-10.628,5.677-21.376,5.556-32.235,0Q501.973,334.543,510.372,318.426Z" transform="translate(-199.969 -125.798)" fill="#fff"/>
  <path id="패스_1215" data-name="패스 1215" d="M592.97,351.267c-4.237,4.769-12.005,3.062-20.513,0V319.032h8.792l11.721,32.235Z" transform="translate(-226.156 -126.037)" fill="#fff"/>
  <rect id="사각형_998" data-name="사각형 998" width="7.326" height="13.92" transform="translate(311.868 243.178)" fill="#3f3d56"/>
  <path id="패스_1216" data-name="패스 1216" d="M582.751,352.941h.366a6.96,6.96,0,0,1,6.96,6.96h0a6.96,6.96,0,0,1-6.96,6.96h-.366v-13.92Z" transform="translate(-230.223 -139.433)" fill="#3f3d56"/>
  <path id="패스_1217" data-name="패스 1217" d="M132.241,442.558h.366a6.96,6.96,0,0,1,6.96,6.96h0a6.96,6.96,0,0,1-6.96,6.96h-.366v-13.92h0Z" transform="translate(-52.243 -174.838)" fill="#3f3d56"/>
  <path id="패스_1218" data-name="패스 1218" d="M628.058,384.492q-1.143,5.817-2.638,11.506a193.1,193.1,0,0,1-7.168,21.977q-.572,1.47-1.18,2.928-1.5,3.639-3.14,7.2-.871,1.906-1.8,3.793H608.8l-.39-11-.1-2.928-.6-17.053-.732-20.592,5.6,1.1,15.493,3.061Z" transform="translate(-239.791 -150.254)" fill="#d0cde1"/>
  <circle id="타원_309" data-name="타원 309" cx="27.839" cy="27.839" r="27.839" transform="translate(88.423 266.622)" fill="#3f3d56"/>
  <circle id="타원_310" data-name="타원 310" cx="14.652" cy="14.652" r="14.652" transform="translate(101.61 279.809)" fill="#d0cde1"/>
  <path id="패스_1219" data-name="패스 1219" d="M352.884,377.783h0V286.939H337.5c-3.052,5.753-4.6,14.5-5.154,25.24a68.9,68.9,0,0,1-68.679,65.6H131.636v6.593H336.19c.434,4.512.875,9.04,1.309,13.553h15.385V384.376h0v-6.594Z" transform="translate(-52.004 -113.359)" fill="#3f3d56"/>
  <rect id="사각형_999" data-name="사각형 999" width="7.326" height="2.93" transform="translate(349.597 226.695)" fill="#3f3d56"/>
  <path id="패스_1222" data-name="패스 1222" d="M367.931,303.1a.609.609,0,0,0,0-.154.727.727,0,0,0-.806-.648l-4.723.531-165.869,6-1.467.161a.733.733,0,0,0-.044,1.449L364.388,331.55a.733.733,0,0,0,.8-.662l2.745-27.784Zm-167.693,6.78,161.893-5.553,4.252-.474-2.578,26.1Z" transform="translate(-76.807 -119.424)" fill="#3f3d56"/>
  <path id="패스_1225" data-name="패스 1225" d="M139.16,324.122l-3.944,2.154-11.27,3.152-9.449,2.65-20.52,5.741-9.449,2.644c-29.369-4.818-44.2,5.323-58.219,16.3L16.86,359.4l-7.035,1.972Q7.919,355.6,6.37,349.68q-1.252-4.773-2.262-9.643A195.65,195.65,0,0,1,.042,303.765Q0,301.86,0,299.942q0-8.593.726-17,.254-2.922.587-5.819l14.815-4.168,1.524-.43,8.935-2.51,1.428-.4,22.679-6.382C68.13,262,81.412,269.575,92.725,281.322c0,0,16.1-4.809,27.954,3.678A26.7,26.7,0,0,1,130,297.65l1.942,5.6,7.217,20.876Z" transform="translate(0 -103.942)" fill="#03c988"/>
  <circle id="타원_311" data-name="타원 311" cx="20.548" cy="20.548" r="20.548" transform="translate(83.191 208.669)" fill="#3f3d56"/>
  <circle id="타원_312" data-name="타원 312" cx="10.815" cy="10.815" r="10.815" transform="translate(92.924 218.403)" fill="#d0cde1"/>
  <path id="패스_1226" data-name="패스 1226" d="M29.33,410.67a20.5,20.5,0,0,1-8.4,16.563,20.668,20.668,0,0,1-1.948,1.27c-.1-.224-.194-.442-.29-.665q-1.824-4.2-3.442-8.505-1.452-3.847-2.746-7.779-1.9-5.772-3.452-11.694Q7.8,395.087,6.79,390.217a19.654,19.654,0,0,1,1.99-.1,20.532,20.532,0,0,1,20.55,20.55Z" transform="translate(-2.682 -154.122)" fill="#3f3d56"/>
  <path id="패스_1227" data-name="패스 1227" d="M21.074,417.03a10.792,10.792,0,0,1-4.343,8.663q-1.452-3.847-2.746-7.779-1.906-5.771-3.454-11.693a10.808,10.808,0,0,1,10.544,10.81Z" transform="translate(-4.16 -160.482)" fill="#d0cde1"/>
  <path id="패스_1228" data-name="패스 1228" d="M84.244,285.875l-63.579,17.8-5.357-19.138c8-6.252,23.756-9.034,40.548-11.35l28.388,12.692Z" transform="translate(-6.048 -107.924)" fill="#fff"/>
  <path id="패스_1229" data-name="패스 1229" d="M6.83,314.684l-6.787,1.9Q0,314.678,0,312.761q0-8.593.726-17l.75-.212c6.631,4.351,8.307,10.774,5.354,19.134Z" transform="translate(0 -116.761)" fill="#fff"/>
  <rect id="사각형_1000" data-name="사각형 1000" width="3.368" height="6.4" transform="translate(18.611 210.02) rotate(-15.637)" fill="#3f3d56"/>
  <path id="패스_1230" data-name="패스 1230" d="M208.358,317.547A10.882,10.882,0,0,1,197.1,299.3a26.672,26.672,0,0,1,9.326,12.648Z" transform="translate(-76.418 -118.243)" fill="#3f3d56"/>
  <circle id="타원_313" data-name="타원 313" cx="10.257" cy="10.257" r="10.257" transform="translate(282.198 132.188)" fill="#3f3d56"/>
</svg>
