<svg xmlns="http://www.w3.org/2000/svg" width="282.046" height="346.979" viewBox="0 0 282.046 346.979">
  <g id="그룹_436" data-name="그룹 436" transform="translate(-1288.058 -5472.521)">
    <path id="패스_1232" data-name="패스 1232" d="M325.1,540.375a10.221,10.221,0,0,0-10.21,10.21V574.47a10.221,10.221,0,0,0,10.21,10.21h12.95a10.221,10.221,0,0,0,10.21-10.21V550.585a10.221,10.221,0,0,0-10.21-10.21Z" transform="translate(984.29 5234.025)" fill="#3f3d56"/>
    <path id="패스_1233" data-name="패스 1233" d="M564.482,585.475h-12.95a11.017,11.017,0,0,1-11-11V550.585a11.017,11.017,0,0,1,11-11h12.95a11.017,11.017,0,0,1,11,11v23.886A11.017,11.017,0,0,1,564.482,585.475Z" transform="translate(984.29 5234.025)" fill="#3f3d56"/>
    <path id="패스_1234" data-name="패스 1234" d="M555.889,566.35H332.9c-10.148,0-18.4-5.983-18.4-13.336V510.134l11.068-11.656H565.379l8.915,11.681v42.855C574.294,560.367,566.038,566.35,555.889,566.35Z" transform="translate(984.29 5234.025)" fill="#03c988"/>
    <path id="패스_1235" data-name="패스 1235" d="M564.338,519.929h-237.5L324.42,482.92l1.536-3.787,8.928-21.969h219.8l12.071,24.948Z" transform="translate(984.29 5234.025)" fill="#03c988"/>
    <path id="패스_1236" data-name="패스 1236" d="M425.64,248.216l-1.772,27.807H371.614V255.366l52.54-10.217Z" transform="translate(1124.999 5468)" fill="#fff"/>
    <path id="패스_1237" data-name="패스 1237" d="M237.345,255.366v20.657H185.877l-1.764-27.013,1.5-3.7Z" transform="translate(1124.999 5468)" fill="#fff"/>
    <path id="패스_1238" data-name="패스 1238" d="M553.356,463.52H336.206l23.161-77.2a15.5,15.5,0,0,1,14.763-11.093l143.811-1.37a15.564,15.564,0,0,1,15.219,11.664Z" transform="translate(984.29 5234.025)" fill="#03c988"/>
    <path id="패스_1239" data-name="패스 1239" d="M536.639,456.22l-183.752-2.179a1.485,1.485,0,0,1-1.4-1.938l17.616-54.96a1.485,1.485,0,0,1,1.414-1.032h147.8a1.485,1.485,0,0,1,1.414,1.031l18.341,57.139a1.485,1.485,0,0,1-1.432,1.939Z" transform="translate(984.29 5234.025)" fill="#fff"/>
    <path id="패스_1240" data-name="패스 1240" d="M469.545,383.276H420.017c-.417,0-.8-.411-.988-1.073a3.34,3.34,0,0,1,.079-2.059l4.084-10.328c.208-.526.548-.841.909-.841h41.36c.361,0,.7.314.909.841l4.084,10.328a3.34,3.34,0,0,1,.079,2.059C470.341,382.865,469.962,383.276,469.545,383.276Z" transform="translate(984.29 5234.025)" fill="#5b8def"/>
    <path id="패스_1241" data-name="패스 1241" d="M336.342,461.931H303.768v-7.16a8.74,8.74,0,0,1,8.73-8.73h23.844Z" transform="translate(984.29 5234.025)" fill="#03c988"/>
    <path id="패스_1242" data-name="패스 1242" d="M585.814,461.931H553.24v-15.89h23.844a8.74,8.74,0,0,1,8.73,8.73Z" transform="translate(984.29 5234.025)" fill="#03c988"/>
    <circle id="타원_315" data-name="타원 315" cx="47.29" cy="47.29" r="47.29" transform="translate(1381.504 5472.521)" fill="#03c988"/>
    <path id="패스_1258" data-name="패스 1258" d="M299.288,71.773l-14.154-18.2,8.231-6.4,6.7,8.617,22.64-23.9,7.571,7.173Z" transform="translate(1124.999 5468)" fill="#fff"/>
  </g>
</svg>
