<svg xmlns="http://www.w3.org/2000/svg" width="287.727" height="305" viewBox="0 0 287.727 305">
  <g id="그룹_432" data-name="그룹 432" transform="translate(-14.857 -1278)">
    <path id="패스_1166" data-name="패스 1166" d="M335.152,463a56.5,56.5,0,0,1-14.005-1.812l-.9-.249-.836-.419c-30.237-15.16-55.746-35.184-75.819-59.517a225.31,225.31,0,0,1-38.282-67.977,261.637,261.637,0,0,1-14.8-92.167c.013-.658.024-1.167.024-1.517,0-15.245,8.462-28.621,21.558-34.077,10.023-4.176,101.026-41.555,107.6-44.255,12.383-6.2,25.593-1.026,27.707-.12,4.742,1.939,88.868,36.348,107.049,45,18.736,8.922,23.735,24.95,23.735,33.014,0,36.508-6.323,70.627-18.793,101.41a234.817,234.817,0,0,1-42.2,68.007c-34.448,38.766-68.905,52.509-69.238,52.63A37.652,37.652,0,0,1,335.152,463Zm-8.1-20.072c2.987.67,9.865,1.674,14.348.039,5.695-2.077,34.535-17.032,61.485-47.36,37.236-41.9,56.129-94.579,56.157-156.565-.067-1.256-.958-10.213-12.82-15.861-17.827-8.489-105.27-44.244-106.151-44.6l-.242-.1c-1.833-.768-7.664-2.385-11.684-.279l-.8.375c-.975.4-97.575,40.076-107.878,44.369-7.207,3-9.775,10.442-9.775,16.4,0,.436-.011,1.069-.027,1.888-.823,42.413,8.992,146.778,117.392,201.7Z" transform="translate(-175.603 1120)" fill="#3f3d56"/>
    <path id="패스_1167" data-name="패스 1167" d="M326.864,172.882s-97.479,40.036-107.923,44.388-15.666,14.8-15.666,25.24-7.833,146.726,123.59,212.619c0,0,11.928,3.3,20.977,0s123.935-59,123.935-213.054c0,0,0-15.666-18.277-24.37s-106.645-44.823-106.645-44.823S336,168.1,326.864,172.882Z" transform="translate(-178.768 1116.83)" fill="#03c988"/>
    <path id="패스_1168" data-name="패스 1168" d="M349.431,215.286V428.864s-98.349-47.342-97.479-171.8Z" transform="translate(-190.891 1105.758)" opacity="0.1"/>
    <path id="패스_1169" data-name="패스 1169" d="M182.564,232.369l-31.329-40.283,18.219-14.17,14.834,19.073,50.113-52.9,16.758,15.877Z" transform="translate(-22.741 1242.176)" fill="#fff"/>
  </g>
</svg>
